/* XPM */
static char *xpm_[] = {
/* columns rows colors chars-per-pixel */
"80 80 217 2 ",
"   c #161616",
".  c #1B1B1B",
"X  c #201F1C",
"o  c #1F201F",
"O  c #1F2020",
"+  c #242424",
"@  c #282727",
"#  c #262827",
"$  c #272928",
"%  c #2B2C2B",
"&  c #2E302F",
"*  c #36332E",
"=  c #302F30",
"-  c #2F3030",
";  c #333434",
":  c #35353A",
">  c #3C3C3C",
",  c #423D38",
"<  c #504B3A",
"1  c #544B38",
"2  c #725D32",
"3  c #7B6439",
"4  c #3C3C40",
"5  c #3D4147",
"6  c #444444",
"7  c #484847",
"8  c #454649",
"9  c #46494B",
"0  c #49494A",
"q  c #504F4B",
"w  c #555040",
"e  c #54534E",
"r  c #4B4D52",
"t  c #484D56",
"y  c #4D525A",
"u  c #545453",
"i  c #565656",
"p  c #5B5A54",
"a  c #5C5C5C",
"s  c #625E5A",
"d  c #5F615F",
"f  c #64625D",
"g  c #69655F",
"h  c #515761",
"j  c #535A66",
"k  c #5E5E62",
"l  c #545A69",
"z  c #555B69",
"x  c #595E6A",
"c  c #605F61",
"v  c #57606C",
"b  c #5C626D",
"n  c #5B6475",
"m  c #5D6574",
"M  c #626263",
"N  c #6C6A64",
"B  c #666669",
"V  c #6B6D6D",
"C  c #716E68",
"Z  c #6D716D",
"A  c #74726C",
"S  c #7A766D",
"D  c #7A766E",
"F  c #626672",
"G  c #636975",
"H  c #6A6B70",
"J  c #61697A",
"K  c #6A6E7C",
"L  c #6E7270",
"P  c #6D717D",
"I  c #747373",
"U  c #757876",
"Y  c #7C7A74",
"T  c #7D7D7D",
"R  c #886C35",
"E  c #857939",
"W  c #827D75",
"Q  c #827F79",
"!  c #7D807C",
"~  c #AC8F3B",
"^  c #C99B3A",
"/  c #BEAA44",
"(  c #84827B",
")  c #88847B",
"_  c #89857E",
"`  c #D2AB42",
"'  c #E7B542",
"]  c #ECCE49",
"[  c #696F80",
"{  c #6D7382",
"}  c #6F7688",
"|  c #727785",
" . c #757C8C",
".. c #787C8C",
"X. c #767E90",
"o. c #787F90",
"O. c #807F80",
"+. c #7C838A",
"@. c #7C8394",
"#. c #7C8496",
"$. c #818181",
"%. c #858A86",
"&. c #8C8B83",
"*. c #8B8D8A",
"=. c #918E85",
"-. c #928F8B",
";. c #8C928C",
":. c #95938B",
">. c #99948A",
",. c #9A958C",
"<. c #818695",
"1. c #828996",
"2. c #808798",
"3. c #838B9D",
"4. c #8B8E9E",
"5. c #8D909E",
"6. c #949492",
"7. c #969895",
"8. c #9C9B93",
"9. c #9B9B9A",
"0. c #A19C8F",
"q. c #A29D92",
"w. c #A19F99",
"e. c #9CA19C",
"r. c #A5A399",
"t. c #A5A49C",
"y. c #AAA69C",
"u. c #AAA99E",
"i. c #B0AA9F",
"p. c #858DA1",
"a. c #8A8EA0",
"s. c #8C92A3",
"d. c #8D95A9",
"f. c #9194A5",
"g. c #949AA6",
"h. c #929AAD",
"j. c #9A9DA8",
"k. c #949DB1",
"l. c #989FB1",
"z. c #9FA0A2",
"x. c #9BA1AA",
"c. c #9BA2B5",
"v. c #9CA4BA",
"b. c #A4A4A3",
"n. c #A7A8A2",
"m. c #ADADA4",
"M. c #A4A6AB",
"N. c #A7AAAD",
"B. c #AAABAA",
"V. c #B2AEA4",
"C. c #B1AEA9",
"Z. c #AEB1A8",
"A. c #B2B1A6",
"S. c #B5B5AB",
"D. c #B6B6AC",
"F. c #B8B4A9",
"G. c #B9B6AC",
"H. c #BAB9AE",
"J. c #A7ABB5",
"K. c #A1A6B9",
"L. c #A3AABD",
"P. c #ADB0B4",
"I. c #AAB0BE",
"U. c #B6B5B1",
"Y. c #B8B7B3",
"T. c #B7BAB4",
"R. c #BCBAB2",
"E. c #C0B9AE",
"W. c #C3BDB2",
"Q. c #BEC0B7",
"!. c #C6C3B9",
"~. c #9FABC3",
"^. c #A5ADC2",
"/. c #A8AFC5",
"(. c #ACB3C3",
"). c #AEB8C6",
"_. c #AEB6CB",
"`. c #AEB8C8",
"'. c #B1B7C9",
"]. c #B6BBC9",
"[. c #BABFCB",
"{. c #B4BBD2",
"}. c #B8BED3",
"|. c #BCC1CD",
" X c #BBC1D6",
".X c #BCC3D9",
"XX c #BEC8E1",
"oX c #C7C8C9",
"OX c #C3C7D2",
"+X c #C4C8D2",
"@X c #C0C6DF",
"#X c #C3CADB",
"$X c #CACDDA",
"%X c #CAD2DD",
"&X c #D1D5DF",
"*X c #C0C7E0",
"=X c #C6CEE6",
"-X c #C8CEE7",
";X c #C7CFE8",
":X c #C8CFE8",
">X c #CCD3E3",
",X c #C7D0E9",
"<X c #C8D0E8",
"1X c #D3D6E2",
"2X c #D6DAE6",
"3X c #D5DBEB",
"4X c #DADEEA",
"5X c #DADFF3",
"6X c #D7E1E9",
"7X c #DCE4EC",
"8X c #DDE6F1",
"9X c #E0E6EC",
"0X c #E5ECF4",
"qX c #E4E9F8",
"wX c #E7F1F6",
"eX c #EDF5FC",
"rX c #EEF8FE",
/* pixels */
"u.F.G.G.G.F.V.i.V.i.i.0.0.i.F.F.C.G.G.C.r.,.8.,.:.:.&.( A D Q _ &.&.-.=.,.r.i.V.E.i.y.V.V.i.i.y.q.q.q.q.q.O.y.O.q.O.O.O.q.O.,.O.=.=.,.,.=.=.:.8.r.u.n.m.y.r.&.s ",
"F.G.G.H.H.H.H.F.G.H.Q.i.F.!.!.!.!.W.!.D.u.r.u.r.r.r.r.=.Q D Y Q &.:.:.q.y.V.G.W.W.E.E.W.W.W.E.E.E.E.E.E.E.E.E.E.E.E.i.i.i.i.i.E.V.F.E.W.S.q.,.q.n.A.F.A.A.A.:.s ",
"D.D.G.D.G.D.D.D.H.!.H.H.!.!.Q.D.C.n.n.t.8.e.t.n.t.u.y.r.-.Q Q %.-.6.8.q.w.t.i.V.n.w.m.C.E.V.i.C.i.C.C.V.b.b.B.b.i.y.i.i.b.y.i.i.B.C.G.E.E.n.q.6.7.e.r.b.n.u.=.p ",
"D.D.G.D.D.D.D.D.H.E.!.!.!.T.$.A I I I I I I I I I I I I I I I I I I I I I I I I I I I I I I I I I I H W W H W W W W W H W W W W I I I D I I I I I I $.6.8.r.) p ",
"D.D.D.S.D.D.D.D.H.E.!.oXoXB.I a H V H H H H V H H V H H V H V H V H H H H H H H V H H V H V H H H H [ H H H [ H O.O.[ [ F O.[ [ V H H H H H H V V k H -.O.8.Y e ",
"A.D.D.D.D.D.D.D.H.G.E.!.!.n.a x <.a.4.4.5.a.a.4.4.4.4.4.4.a.4.4.4.4.4.4.f.4.s.a.s.4.a.a.s.5.s.5.h.O.k.O.k.O.h.O.O.O.O.O.O.O.O.O.4.4.4.4.4.4.4.4.<.F i O.I -.C q ",
"m.D.D.D.D.D.D.D.G.D.G.W.U.b.c <.'.}..X.X.X.X.X X.X.X X.X.X X.X.X}.}.}.}.}.[.}.}.}.}.}.}.}.}.}.}..X}.}.}..X}.}.}.:X*X.X.X.X@X:X:X.X X.X}..X X.X X[.3.s O.C A f 6 ",
"u.D.D.D.S.D.D.D.D.G.U.G.V.b.c 4.}.-X-X-X-X-X=X-X=X<X-X-X-X-X-X-X*X}.L.K.K.K.K.K.K.K.K.K.K.K.K.K.K.K.K.K.L.K.L.{.*X:X:X:X:X:X:X:X-X:X:X-X=X-X=X=X@X5.c O.M f e 6 ",
"n.D.D.D.D.D.D.H.D.G.R.S.n.b.b 4..X:X:X<X<X:X:X:X<X:X:X;X:X:X,X;X.XK.{ F F H F H c F F F B b F m F H F F F F } v..X:X:X:X:X:X:X:X<X<X,X<X-X:X:X:X.Xs.b ( e d q , ",
"A.D.D.D.D.D.D.D.G.G.H.n.u.b.f 4. X<X<X:X:X:X<X<X<X<X<X<X<X,X;X;X}.h.0 % % = * , 3 R R R R R R R R , * = = @ 8 k.{.:X:X:X:X:X:X:X<X<X-X<X<X<X:X:X@Xd.d ! d e q 6 ",
"n.D.D.D.D.D.D.D.G.R.D.u.m.b.a a. X<X<X<X:X:X<X<X=X<X<X<X<X<X<X>X}.f.8 + @ @ * 2 R ^ ^ ^ ^ ^ ^ ^ R R * @ @ O t O.{.:X:X:X:X:X:X:X<X<X,X,X=X<X<X:X@Xf.x ! e e e 6 ",
"A.H.D.D.D.D.D.D.R.R.D.n.m.b.c 4. X:X:X<X:X;X=X;X<X<X<X<X=X;X<X=X}.f.8 @ = % , 3 ^ ^ ' ' ] ' ' ` ~ R , = = @ y O.{.:X:X:X:X:X:X:X<X<X=X=X=X<X<X:X*Xf.d ! u d d 7 ",
"A.D.D.D.D.S.D.D.D.Q.S.u.A.b.k 4..X:X;X<X,X=X;X;X<X=X=X<X=X<X<X,X}.h.5 @ = : , 1 R ~ ` ] ] ] / ~ R 1 , , = + 8 h.}.:X:X:X:X:X:X:X;X;X;X;X=X:X:X:X@Xf.k O.i d d 7 ",
"A.D.H.D.D.D.D.D.D.D.Z.m.S.M.c a. X<X:X:X=X;X=X;X:X:X,X=X;X=X<X=X}.h.8 @ % : : 4 8 R / ] ] ] / E 6 , : = = O 8 O.}.:X:X:X:X:X:X:X>X<X;X=X<X:X:X:X@Xf.k O.d b b e ",
"D.D.D.D.S.D.S.D.H.H.n.A.D.b.c 4. X:X:X<X<X<X>X;X:X:X<X:X<X<X<X;X}.f.8 + @ @ = = : 1 E ~ ~ ~ ~ < = = = = @ . t O.}.:X:X:X:X:X:X:X<X<X<X:X:X<X<X:X*Xs.k $.a B V a ",
"D.D.D.D.D.D.D.D.Q.H.n.Z.T.b.c a. X<X:X<X,X<X<X<X:X:X:X:X<X;X<X,X.Xh.y 4 4 4 4 4 4 4 < 1 w w > 5 : 4 4 : 4 4 h d.}.:X:X:X:X:X:X:X-X<X<X:X:X<X:X:X*Xf.k O.d U L d ",
"D.D.D.D.D.D.D.D.H.H.m.Z.H.n.b 4. X=X,X<X<X=X=X<X,X=X,X=X=X=X,X,X@XK...{ { { { { { { { [ { P { { { { O.[ [ [ O.v.}.:X;X;X;X;X;X;X;X;X;X;X;X;X:X:X*Xf.k O.M ! U a ",
"D.D.D.D.D.D.D.D.R.H.Z.S.T.b.k a. X>X<X,X=X=X=X=X=X,X=X=X=X=X=X=X*X{./.~.K.L.L.^.L.L.L.^.L.L.L.v.L.L.K.K.L.K./.{.@X-X;X;X;X;X*X;X=X=X=X=X=X=X:X;X.Xf.k O.N U Z e ",
"D.D.D.D.D.D.D.D.H.H.S.S.S.b.b 9.$X3X3X<X.X_._._.{._._.{._._._.{._./.l.l.c.c.l.l.c.c.l.v.K.l.c.c.v.v.l.K.v.l.v.^./..X{.{.{.XX{._.{._._._.{.*X,X;X*Xf.k $.N Z N u ",
"D.D.D.D.D.D.D.D.Q.H.S.S.Z.b.f x.2XwX0X6XL.2.#.#.#.#.#.#.#.#.#.#.O.o................. ...X...X. .} } ..O.......O.O.O.X.o.X.O.O.o.#.#.#.#.l. X;X;X*Xd.k O.V A N p ",
"D.D.D.D.D.D.H.H.D.A.A.m.n.b.M N.7XrXeX7Xx.n n m n m m n z l z z l l l l l j l j l l l l z l l z l l z z l l l l l l l l [ t [ [ J J n n @.{.=X;X@Xf.k O.A Y A p ",
"D.D.D.D.D.D.H.H.V.y.u.u.n.n.B N.7XrXwX7Xx.m { @.@. .} m z h y y h y y t y y y y y y y t y y y y t y y y y y y y t t t h [ [ [ [ X.X.} n p.{.=X;X*Xf.c O.I %.A s ",
"D.D.D.D.D.D.H.H.V.y.y.u.A.n.M N.9XrXeX6Xc.m  .3.s.s.#.J l r r 9 8 0 t 8 0 0 0 8 8 8 8 8 5 7 0 0 8 8 0 0 8 0 0 0 t 8 t t [ [ } p.d.3.X.[ p.{.=X=X@Xf.k Q W &.A u ",
"D.D.D.D.D.H.H.D.V.u.r.y.m.b.b N.8XrXrX7Xx.m  .s.v.^.c.} z r 0 7 0 0 8 8 8 6 6 4 4 , 4 , < > 4 4 4 4 4 8 0 0 0 0 9 8 4 t t [ k.~.v.p.X.m p.{.=X=X@Xf.k ..W =.D u ",
"D.D.D.D.G.R.D.S.n.8.&._ :.b.M N.7XrXrX7Xx.J +.d.~. X~.+.j r 0 7 0 q 8 7 8 6 , : : ; ; ; ; ; ; ; : ; > 6 7 7 7 8 8 8 0 r c { K.}._.s.X.m p.{.=X=X@Xf.a +.) >.S p ",
"D.D.D.D.H.G.F.n.8.%.U Z ! z.M J.7XrXeX7XL.#.#.d./..X~.@.z r 0 7 8 8 8 6 , 4 : * ; % & & & * & & & ; : > 4 6 7 7 8 8 7 r z } /.}._.d.X.n p.{.=X=X@Xf.c Q W ,.W p ",
"D.D.D.D.R.G.A.u.;.+.! ! +.t.b N.9XrXeX7X(.#.p.g.)..X/.@.j r 0 0 q 8 7 4 , ; : * % % $ # $ $ $ % % = ; ; > 4 8 7 0 0 0 r z } /..X_.d.X.J p._.=X=X@Xs.b ( W >.S e ",
"D.D.D.H.U.G.F.m.7.;.;.+.;.n.M N.9XrXrX7X(.p.d.c.]..X/.@.j y 0 0 8 8 6 , : ; ; = % $ $ % % # % $ % % ; ; > , 6 7 0 0 0 r x } ^..X_.d.X.m p.{.=X;X*Xf.a ( W =.S e ",
"D.Q.S.H.H.D.G.G.e.7.e.7.e.e.f Z.9XrXwX7Xx.+.g.|.%X>X].@.j r 9 0 8 6 > : ; ; % % $ $ + % % # # # @ $ % * ; : > 4 8 0 8 r x } /..X_.d.X.J 3.{.=X:X*Xf.k O.! _ S e ",
"Z.Z.S.Q.D.F.G.G.m.u.m.e.Z.t.b N.7XrXeX7Xx.{ g.|.$X1X].@.v r 9 7 6 , ; ; ; = = @ @ % + + + + # # @ # % & ; ; ; , 7 0 0 r z } ^.@X_.d.X.n 3.{.=X:X*Xs.k O.! =.S p ",
"D.D.Q.H.G.A.G.H.Q.Q.F.Q.T.n.b N.9XrXeX6Xx.K #.J.}.$X_.@.j r 0 7 6 4 ; ; ; = % @ + + + o + . + # # # $ % = = ; > 6 7 9 r l } ^..X_.d.X.m p.{.=X=X*Xd.k O.Y =.S e ",
"D.D.S.H.D.A.V.A.A.Q.Q.Q.P.z.f N.9XrXeX7Xc.} #.x._..X(.@.j r 0 7 6 , ; ; = = % @ + + . . . . o + + # # # @ = ; > 6 6 8 t z } ^..X_.d.X.n 3.{.=X-X@Xf.k O.S ) S e ",
"G.G.R.H.A.A.A.m.n.b.n.Z.S.b.M N.7XrXeX7XL.#.j.I. X%X].#.j t 5 < 4 > ; = % % % $ + O . . . . . O + + @ @ $ - ; > > 5 7 9 x } ^. X_.d.X.m p.{.=X=XXXf.k ..C S g q ",
"G.H.E.H.A.Z.m.n.z.b.e.n.P.b.M N.9XrXeX8X].k.I.+X1X1X|.#.j r 9 > : ; ; = % @ # # O . . . . . O . . + @ @ % - ; ; ; > 7 r z } (..X_.d.X.n p.{.=X;XXXs.a ( g C g q ",
"G.G.R.H.D.A.B.P.Z.z.9.Z.R.M.M J.9XrXeX8X_.k.I.+X&X6X|.#.j r 8 > ; ; ; = % # # + O .   . . . . . O + @ $ % - ; ; ; > 7 r z } ^..X_.d.#.n #.{.XX;X*Xf.k ( f g d e ",
"G.E.!.H.m.m.B.U.T.n.7.n.!.n.M N.9XrXeX8X).k.I.+X&X2X|.1.v r 7 > ; : ; * % % @ + . . . . . . . . o + $ $ % - ; : ; 4 7 9 x } ^..X_.d.X.[ p. X,X,X*Xf.k O.p f d 0 ",
"V.D.C.6.&.&.*.-.;.%.7.e.C.b.M N.9XrXeX7X).k./.+X&X2X|.1.j r 9 > ; : ; = @ + + + + . . . . . . X o + # # % & ; ; ; > 7 r z } ^..X_.d.+.n #.{.=X;X*Xf.k O.a c M e ",
"=.9.m...I I U U Z Z 9.B.C.b.M J.9XrXrX9X_.k.I.+X&X2X|.1.j r 8 > * ; ; % % + o . .   . . . . . . . + # # % & - : ; > 6 r z } /..X).d.X.n p.{.=X=X*Xf.k Q i V V a ",
"I %.7.i B O.1.$.U 0 +.e.S.b.c N.9XrXrX7X).k.I.+X&X2X[.1.j r 9 > : ; ; = % + o . . .   . .   . . . O $ $ % & - - ; > 6 0 x } /.*X_.d.@.n p.{.=X=X*Xf.k Q M U U a ",
"T *.7.i j.|.$X+X'.V T 9.G.b.M J.9XrXrX8X).k.I.OX&X2X[.1.j r 8 4 ; * ; % @ + . . . .   . . . . . o + $ $ $ & ; ; ; > 7 t j | ].>X Xd.X.P #.{.=X;X@Xf.k ..H *.+.N ",
"7.7.7.h x.$X1X4XOXP Q w.C.M.M N.7XeXeX8X'.k./.+X&X2X[.1.j y 7 > 4 > ; & % + X . X . . . . . . . O + # % & ; ; ; ; < 7 r v  .].%X.Xx.3.J #. X,X,X*Xf.c ! U 7.;.C ",
"y.b.9.i <.L.}.-X}.P O.w.U.b.c M.4XqXqX4X'.h./.+X&X2X[.1.j r 0 7 6 > ; = % + o X . . . . + . . . o + $ $ $ - ; ; ; : 7 r x | (.>XOXI.z.{ #. XXX,X*Xf.k ! ! 7.:.A ",
"w.t.7.u [ p./.@X'.K Q 9.C.b.c j.2XqXqX2X/.l.I.+X&X2X|.1.j r 0 0 5 < ; = @ + o . .   . . . . . . o + # $ % & ; ; ; > 7 9 x } ^.#X$X|.x.} p.{.XX,X@Xf.v ( U e.=.C ",
"q.t.9.y O.v.{.*X'.H | w.V.b.c M.2XqXqX2X/.l.I.+X&X2X[.1.j y 0 0 6 4 ; * % + + . . . . . . . . . o + # # & & ; ; ; 4 8 r x  .).=X.XI.5.{ p. X,X,X@Xf.d ! Y :.) g ",
"r.y.9.i d.{.*X*X_.G Q w.F.b.c x.3XqXqX3X(.k.L.+X&X2X|.1.j r 7 6 6 4 ; = $ + . . .     . . . . . . O # # $ & ; ; ; > 8 r x  .].>XOXc.1.J p. X;X<X#Xf.c $.! =.) g ",
",.b.9.i X.k./.{.^.F +.9.C.b.c x.2XqX5X3X_.k.I.+X&X2X[.1.j r 8 6 4 > ; & @ + X . . . .   . . . . . o + + % & ; ; ; > 6 r z  .].1X%XP.s.K s.#X6X7X2Xx.c $.! :.( f ",
"O.y.d.0 [ } d./.K.b | 9.U.b.c x.1XqXqX3X/.k.I.+X&X2X|.1.j r 6 5 ; ; ; & $ + o . . .   . . . . . . . O + % & ; ; ; > 8 0 v  .[.1X&X|.x.| g.%XqXqX7XN.M ..! ,.( f ",
"Q w.5.t l X.k.^.l.c Q w.U.b.c j.>X5X8X<X/.k.I.+X&X2X|.#.j r 9 > ; ; ; = % # + o . . . . . . . . . . O + % ; ; ; > 6 7 q v  .[.2X&X+Xc.| d.%X8XqX6XM.M ( ! ,.( d ",
"Q w.9.i ..h.L./.l.x Q w.U.b.s f.XX3X,X,X~.k.~..X1X6X|.+.j t 9 > : ; ; = @ $ $ + o . . . . . . . . . . + $ & ; > 5 7 0 r v | ].2X&XoXN.+.4. X<X6X,Xj.b ! ! ;.! f ",
"Q q.9.i P f.h.g.1.y ..w.C.M.c a.XX3X,XXX~.k.Q.OX1X6X|.1.z r 7 > : ; ; = % $ $ + o . .   . . . . . . o + % & ; 6 6 7 0 r v +.].2X2X+XJ.@.x..X3X6X>Xj.k $.Z %.! g ",
"Q 9.6.r y F G G k > Q 9.C.n.c a..X,X,XXX~.k.^.|.&X2X|.1.j r 7 > ; ; ; % % $ $ + + . . . . . . . . . . + % & ; > 6 7 7 r v | |.1X&X+XI.d.v.>X0X7X7XM.M ..Z +._ Z ",
"O.b.E.O.( +.%.( Q ..z.C.C.b.s s..X,X,XXX~.d.I..X&X2X|.#.z r 6 > ; ; ; = @ $ $ + . .   . . . . . . . . + % & ; 4 7 7 7 r j +.].2X&X XI.k.).6XeXeX0XP.M ( Z +.;.L ",
"O.V.W.M.b.j.t.z.j.b.B.D.C.b.c s..X,X,XXXx.#.x.OX&X2X|.@.j 9 9 > ; ; ; = $ @ @ + . .   . .   . .   . o O $ - ; 4 8 7 7 r v  .[.2X1X+XI.x.`.6XeXrX0XP.M $.Z %.;.L ",
"-.y.C.C.A.F.S.S.A.A.A.A.m.b.c s.XX,X,X.Xp.| x.|.&X2X|.1.j r 7 > ; ; * & @ $ $ $ + .   . . . .     . o + $ - ; > 6 8 7 r x | ].2X1X+XI.c.`.6XeXeX0XP.M O.I %.%.Z ",
"6.m.C.C.F.D.A.A.A.A.Z.V.C.b.c a.XX,XXX.Xp.{ 3.I.OX1X|.1.j r 7 > ; ; ; % % $ @ + . . .   . . . . . o O + $ & - > > , 8 9 j | ].2X1X+X(.k._.6XeXrX0XP.M $.T &.! M ",
"w.C.C.F.G.A.A.m.A.m.C.m.C.n.c a.XX,XXX.Xp.J @.x.|.%X|.#.v r 6 > ; ; : % @ $ $ + o   . . .   . . . O + $ & & ; ; : > 6 r x +.].2X1X+X(.k.`.6XeXeX0XP.M Q ( &.D p ",
"t.S.S.S.S.S.m.m.m.Z.A.m.m.b.d 1.{.XX.X{.3.n  .d.(..X(.#.z r 7 > : ; ; & $ $ $ # O . . . . . . o o + $ $ $ & & ; ; > 8 9 b  .[.2X2X+XI.c.).6XeXrXqXP.M O.) ) g e ",
"e.m.Z.Z.m.A.m.A.A.V.m.A.Z.n.s #./.{.{./.@.{  .d.K.).c. .j r 9 4 : * ; = % @ # # O . . . . . . . o + $ $ $ $ % & : > 7 9 x  .].2X1X+XI.c.`.6XeXeXqXY.M $.) ) g e ",
"8.u.Z.A.m.A.A.m.m.A.A.A.m.b.k ..L._._.^.@.[  .p.c.I.k.} j r 8 > * * ; & @ # # + O .   . . . .   . o + + $ $ # % ; > 6 r j +.].2X1X+XI.k.`.6XeXeXqXP.M Q Q ) g e ",
":.e.m.A.A.A.A.m.A.m.n.A.A.b.k ..~._._.^.X.n  .p.c.^.x.} j r 7 > : : ; & % @ # + . . .   . . . . . . o + # $ # % = > 6 0 v | ].2X1X+XI.k.`.6XeXeX0XP.c _ Q ) N e ",
"=.8.u.m.Z.A.Z.A.m.C.A.m.m.b.k ..~._._.v.@.J +.d.c.^.x.} j r 7 4 : ; ; = % % @ + + . . . . . .   . . . O # $ $ & * > 8 r x  .[.1X1X+XI.k.).6XeXeX0XP.M Q Q _ C e ",
"_ ,.e.m.A.A.V.A.A.Z.m.Z.S.b.k ..^._._.^.#.n } p.c.L.h.} j r 9 6 5 < : ; = % @ # + + . . . . . .   . . O # $ $ & & > 6 0 j  .].2X1X+X).x._.6XeXeX0XG.f ..Q =.C p ",
") ;.0.u.V.A.A.m.A.m.m.A.m.b.k ..L._._.~.#.n } p.c.^.k.} j r 9 7 6 < ; ; ; = % @ + + o . . . . .   . o + # $ # % ; > 6 r v  .].2X1X+X(.k.).7XeXrX0XP.M $.Q =.A e ",
") ;.,.e.m.Z.A.A.A.A.A.m.A.n.k ..~.{._.~.#.n +.s.c.^.x.} j r 9 7 5 > ; ; ; ; % % $ + o . . . . . . . o + $ $ $ & ; > 7 0 x  .[.2X1X+XI.c.`.6XeXrX0XP.M $.Q >.S e ",
"! ) _ 0.u.A.A.A.C.m.A.A.m.n.s ..L._._.^.#.n  .d.c.K.k.} h t 0 0 6 > : ; ; = % @ # + o . . . . . . . o O # $ $ & & > 7 r v +.|.>X%X|.I.g.).6XwXwX5XP.c O.Q ,.S i ",
"N Z ! ;.u.D.H.A.A.A.A.A.Z.b.a | l./.^.k. .v [ #.d.v.d.{ h 9 0 9 6 5 ; ; ; = % $ # + o . . . .   .   o + + $ # & & > 7 9 y J c.|.].N.s.#.d.|.%X%XOXf.c O.Q 0.S e ",
"d d N ! 0.V.H.S.A.A.A.A.m.b.a K k.v.v.k.} z J X.s.c.#.J y 9 9 8 5 > ; ; ; = % @ $ O o . .   .     . . O # $ # & ; > 5 9 y n s.v.x.#.| m +.c.^.(.L.O.a O.O.,.W s ",
"u u d Z ) r.F.F.F.F.F.V.C.n.k K d.^.l.d.[ l F  .p.h.p.m t 9 7 6 < > ; * = - $ @ $ + o . . . . . . o o + # $ $ & & > 7 9 y n #.c.s...J j J d.c.v.l.{ a O.=.,.S e ",
"0 r u M D 8.V.F.A.S.A.V.V.b.a K h.l.v.d.K l F ..p.h.3.J t 9 5 5 : : * = % % $ $ # + o .   . . . o O + + $ & - ; * > 6 9 y x #.h.s.+.J h [ d.c.c.l.{ a O.Q ,.W p ",
"p f f M Z _ y.i.V.m.V.n.w.t.b K h.~.v.h.[ l J ..p.k.p.J y 9 7 4 ; ; ; = % $ $ + # + o . . . . . o + $ $ & - ; ; > > 6 9 y n 3.k.p.+.J j [ d.c.v.l.{ a O._ ,.S e ",
"N U U A S ) 0.r.8.,.,.*.*.b.a P h.v.l.h.[ l n X.p.k.3.m y 9 7 > : ; ; = % $ % + $ + o o . . . . o O $ & ; ; ; > 5 6 9 9 y n p.k.s. .J j [ d.c.v.l.| s O._ q.C e ",
"N Y ( =.:.,.,.,.-.%.( Y $.z.a P d.l.l.h.[ l n  .3.d.#.m t 0 8 4 : ; ; = @ $ % # + + o . .   . . o + & - ; ; ; 4 6 7 9 9 y z #.h.s. .J h J p.k.c.k.{ c Q Q q.W s ",
"N Y =.u.A.u.8.;.&.! A U %.z.a G s.d.d.s.m t v P #.s.@.l 5 9 6 > ; ; * = @ @ @ + o X . . . . . . o + $ - ; ; ; 4 8 7 7 8 t h X.p.#.P b y F 3.f.h.s.K a ..=.q.W e ",
"C ! ,.V.G.u.>.&.&.&.) ;.7.b.a m #.s.s.1.m 9 k K +.3.+.j 5 9 6 4 : ; = = % @ @ @ o .   . . .   . o O % - ; ; ; , 6 7 0 8 5 y ..3.#.P v 9 x @.s.s.4.G p ! Q w.W e ",
"V W ,.q.8.,.;.) 7.e.Z.S.n.b.a b 1.d.s.#.b 5 h P +.#...y 5 7 6 > ; ; * @ @ @ + O o             . . o # & ; ; ; > 6 7 8 8 4 y | 3.#.H j 8 x +.4.4.3.G i ( =.y.W p ",
"C W _ =._ ;.>.7.8.n.S.Q.S.r.b b #.s.4.#.m y j K +.#. .j 9 9 9 5 4 4 4 : ; ; ; ; = % % % @ % % % % & : > > > , 7 0 i 0 0 r h | #.+.P z t b #.a.5.3.G a T Q y.Q p ",
"g C _ ) ) _ >.8.7.>.0.r.A.>.t.9.g.g.g.x.j.b.9.9.5.f.x.M.N.b.b.N.b.B.B.B.B.B.M.B.M.B.B.B.M.B.B.N.B.B.n.B.M.B.M.M.N.b.B.M.B.M.j.j.g.g.b.b.g.5.f.g.j.b.j.Y &.q.( s ",
"p g ! ) _ _ ;._ ) ) ) ) >.8.n.t.7.6.6.7.n.n.b.9.:.*.6.e.b.j.9.b.b.m.B.C.U.Y.Y.Y.R.Y.Y.G.S.R.Y.R.Y.R.Y.R.Y.Y.Y.Y.Y.Y.G.G.Y.C.9.6.:.9.m.F.S.u.b.y.n.S.F.w.&.W A p ",
"1 d A ! ) ) ) ) ) ) ! ! S S ! ) ( Y ! ( %.%.%.( ( Y I Z A N M f s s s A O.-.6.q.q.q.q.q.r.0.0.8.q.0.q.r.q.q.q.q.0.0.,.,.,.&.=.:.%.( ) _ ,.>.>.>.7.r.:.Q A N k 0 ",
"e e f N ! D A Z Z N a p f p p f f f N Z A D I A A V N f f p p e e e e q i N C A D W W W S W S D D D D S S S S S D S C N s N C I A f p p s s s C A D N k k s e , "
};
