/* XPM */
static char *xpm_[] = {
/* columns rows colors chars-per-pixel */
"64 64 188 2 ",
"   c #1D2E36",
".  c #1D2F39",
"X  c #1E303A",
"o  c #222D37",
"O  c #212F3B",
"+  c #24333C",
"@  c #2A343E",
"#  c #24383F",
"$  c #253643",
"%  c #293641",
"&  c #233A43",
"*  c #2B3A45",
"=  c #253C48",
"-  c #2B3D4B",
";  c #303D46",
":  c #303E4B",
">  c #2C414C",
",  c #30424E",
"<  c #2F4251",
"1  c #334452",
"2  c #394753",
"3  c #354B54",
"4  c #3C4C56",
"5  c #354E5B",
"6  c #3C4D5C",
"7  c #395056",
"8  c #36515E",
"9  c #3B525D",
"0  c #3E585D",
"q  c #374C61",
"w  c #3B4F60",
"e  c #365363",
"r  c #3C5463",
"t  c #375867",
"y  c #3D5964",
"u  c #37566B",
"i  c #3D5669",
"p  c #3D596A",
"a  c #404C5A",
"s  c #41515E",
"d  c #425463",
"f  c #495561",
"g  c #435A63",
"h  c #495A65",
"j  c #425669",
"k  c #425A69",
"l  c #4B5D6B",
"z  c #4D606E",
"x  c #54656F",
"c  c #4C6572",
"v  c #4E6A75",
"b  c #526573",
"n  c #596774",
"m  c #546A74",
"M  c #5A6D75",
"N  c #536D7A",
"B  c #5B6D7B",
"V  c #587176",
"C  c #56727C",
"Z  c #5C747D",
"A  c #57787F",
"S  c #5D787E",
"D  c #61737D",
"F  c #60797E",
"G  c #567384",
"H  c #5D7582",
"J  c #5D7A82",
"K  c #5C778A",
"L  c #577B8C",
"P  c #5D7B8C",
"I  c #5D7E91",
"U  c #637682",
"Y  c #637B84",
"T  c #697B86",
"R  c #62778B",
"E  c #627C8C",
"W  c #6A7E8B",
"Q  c #627D92",
"!  c #697F92",
"~  c #5D818F",
"^  c #568491",
"/  c #5D8293",
"(  c #5E8298",
")  c #648086",
"_  c #64818D",
"`  c #6B818D",
"'  c #648293",
"]  c #6A8394",
"[  c #6E8995",
"{  c #648599",
"}  c #6A8599",
"|  c #658999",
" . c #6B8999",
".. c #728794",
"X. c #738996",
"o. c #798B97",
"O. c #738D9A",
"+. c #798C9A",
"@. c #75929E",
"#. c #78929D",
"$. c #748FA0",
"%. c #7594A2",
"&. c #7A95A2",
"*. c #7498A6",
"=. c #7B99A2",
"-. c #7B97A9",
";. c #7D9CAC",
":. c #7E9FB0",
">. c #7FA0AF",
",. c #7EA1B1",
"<. c #7EAAB7",
"1. c #7FACB9",
"2. c #8696A3",
"3. c #8399A3",
"4. c #819DAD",
"5. c #8D9FA9",
"6. c #839EB2",
"7. c #83A1AE",
"8. c #8DA1AC",
"9. c #84A4B5",
"0. c #8AA5B5",
"q. c #85AAB6",
"w. c #8CA9B6",
"e. c #84A6BA",
"r. c #8AA6BA",
"t. c #85ABBC",
"y. c #8BABBC",
"u. c #90A7B6",
"i. c #90AAB7",
"p. c #91A6B9",
"a. c #91ADB8",
"s. c #91ADBB",
"d. c #90ABBE",
"f. c #91ABBE",
"g. c #90ADBF",
"h. c #92AFBF",
"j. c #91ADBD",
"k. c #92ACBB",
"l. c #84B0BB",
"z. c #86B1BD",
"x. c #83B1BE",
"c. c #89B1BE",
"v. c #8BB1BE",
"b. c #90B0BF",
"n. c #97B1BE",
"m. c #92B0BF",
"M. c #99B1BB",
"N. c #85A7C0",
"B. c #87AAC0",
"V. c #87ABC3",
"C. c #86ABC2",
"Z. c #8AAAC0",
"A. c #8AADC0",
"S. c #89ADC3",
"D. c #8BAFC2",
"F. c #8EAFC0",
"G. c #8CAEC2",
"H. c #8BAEC5",
"J. c #8FAFC4",
"K. c #8BADC2",
"L. c #87AFC8",
"P. c #92AEC1",
"I. c #96AEC1",
"U. c #91AEC2",
"Y. c #86B2C3",
"T. c #8CB0C0",
"R. c #8DB0C5",
"E. c #8CB1C3",
"W. c #8CB1C8",
"Q. c #92B1C1",
"!. c #96B2C3",
"~. c #92B7C7",
"^. c #93B1C3",
"/. c #93B4C8",
"(. c #9FBFCE",
"). c #A1BECB",
"_. c #AEC7DD",
"`. c #AECBDB",
"'. c #B1C7DC",
"]. c #B4CADF",
"[. c #B0CBDD",
"{. c #AECEE3",
"}. c #B4CEE1",
"|. c #B5D1E6",
" X c #B4D1E4",
".X c #BDD2E7",
"XX c #BCD3E5",
"oX c #B1D4E8",
/* pixels */
"0.y._ ~ x.l.<.y.y.t.y.y.T.x.t.1.t.B.E.B.H.A.I I t.F.e.y.t.H.B.B.y.v._ ~ l.l.q.x.y.y.F.y.v.t.t.q.Y.Y.H.B.H.S.I I S.^.q.y.y.H.V.V.",
"_ J _ ~ y.e.~.q.y.e.I Q e.y.t.v.y.t.t.H.S.G.' ' y.y.y.v.y.A.H.R.' Y P ' l.t.~.t.y.e.' I e.T.v.y.T.B.t.T.H.U.Q Q e.y.y.v.q.A.H.W.",
"' ` E _ r.r.I.Z.y.y.E } 0.d.a.w.y.q.P.Q.r.6.Q R n.9.a.a.w.k.y.0._ ! E Q y.0.k.y.U.U.Q { y.k.d.0.y.y.Q.P.0.0._ R n.7.a.w.k.y.y.0.",
"E R p r i j R ! K ] Q R k q r r e y P T ] ] ] W 9 7 y 0 r r E ] E U k r r j E ] K ! R E k 5 r i 8 r P E ] ' ] ` r 9 g 0 e r E ] ",
"W } q q j j R R ] I ' E r j w d i i E K E K ' T 8 y 8 0 y 5 E P ! ..q q j j R R } Q ' E w j w d y y E K Q K E R 7 y 8 8 y 8 E P ",
"0.w.d.I.! R .X}.F.0.y.m.r.p.j 6 r.9.P.^.y.P.y.r.' ) r y J ~ !.Q.e.Z.I.I.! R .X|.k.q.F.Q.r.p.j q w.q.Q.P.y.k.U.w.' ) t y P T !.k.",
"x.t.T.0.! Q {.|.e.t.x.l.y.a.q j F.t.y.N.t.G.S.y.P ' e t ' ' e.q.y.A.U.6.R R }.}.t.v.x.x.y.k.w k F.t.B.S.S.G.F.S.P / e t Q ' e.q.",
"x.t.t.y.Q ! 6.Z.t.T.1.q.t.y.6 i F.t.H.t.L.N.H.A.A.R./ L A.t.H.B.t.t.Z.H.Q $.6.Z.x.Y.q.q.v.k.5 r F.B.H.B.H.B.H.B.E.T.I I A.t.W.G.",
"1.Y.B.r.Q Q 6.H.x.x.x.1.c.w.r r y.R.e.t.H.B.H.B.t.A./ I S.A.t.A.x.Y.Y.t.Q ! N.H.B.Y.1.1.Y.w.y r y.G.t.B.W.V.H.S.B.Y./ / y.H.t.G.",
"x.1.e.H.! } U.t.t.1.^ ^ l.v.Q ' E E A.A.t.W.N.G.A.t.I _ y.U.S.A.x.1.e.A.Q Q U.t.t.t.^ ^ y.m.E ' E I y.A.t.H.e.G.F.t./ ' y.R.S.G.",
"t.T.F.r.I I Z.r.E.<./ / r.0.] U _ _ w.m.0.r.U.w.y.9.' [ 9.w.r.r.v.E.F.y.Q Q Z.F.T.e.( / y.r.' U W _ k.n.r.r.!.d.w.0.' ] 0.w.r.r.",
"P / Q Q Q I ! Q { I { P Q Q Q ] d 7 9 9 r r Q R ` ] K J ] ' ' Q P I Q ' Q I ! Q ' / | ~ Q Q E ] 8 6 6 9 r r Q P ' ] J J ] ' ' ] ",
"] P ] Q I } I Q I K { I ' Q Q R 7 s g 9 k r P ] P _ _ _ I P E E ] P ] ' I } I Q I L ! I Q Q E R 4 g g 7 y r K ] P _ _ _ E P Q P ",
"P Q [.[.y.A.e.F.H.F.Q I y.r.Q.y.M.8.0 5 ` } y.e.y.y.y.y.F.F.F.S.E ' }. XF.y.y.F.F.F.Q I U.H.Q.k.M.8.y 8 ]  .y.y.y.y.y.y.y.y.F.A.",
"] ' [.`.y.y.S.F.6./.{ Q T.e.q.y.7.a.r p } ' A.A.B.B.t.t.V.Y.V.V.Q Q `.`.y.y.T.A.e./.Q Q G.e.t.y.0.a.r y } ' A.B.A.B.B.C.V.H.V.V.",
"E P y.v.e.t.t.t.W.e.I I t.E.t.y.w.m.P Q S.A.B.Y.B.B.E.B.V.L.V.V.Q E y.T.e.Y.Y.t.H.t.I I t.W.t.S.i.h.P / A.T.B.V.B.E.E.V.V.L.V.L.",
"P P y.t.y.t.B.y.t.A.( I t.A.e.T.y.w.' I t.B.t.Y.e.V.V.H.B.W.e.W.I P Q.y.A.t.A.t.B.A./ / B.H.q.A.k.y.' I Y.t.B.V.t.H.V.H.B.W.e.L.",
"p t y.w.y.v.y.A.A.t.( I y.y.y.y.r.!.K I T.A.t.T.F.S.e.t.e.S.R.y.t t y.w.y.y.y.A.A.q./ ' A.y.^.r.r.!.K ' T.T.T.T.R.B.e.y.t.F.G.S.",
"8 r w.a.i.0.y.y.w.w.] Y w.0.w.a.k.p.E _ 9.t.y.0.0.a.h.h.d.w.y.k.8 r w.a.k.w.k.y.y.w.' P w.w.w.n.a.i.E _ q.w.w.w.q.k.k.I.k.y.r.k.",
"h 5 d 9 r 8 y 5 8 r Y E k r d 9 r r T E _ ) ' _ p 8 r 5 6 i 5 r g 6 r 6 r r r 5 r y E T k 9 g 8 d r E E _ _ _ ' k t r e e r e r ",
"5 d 6 r 9 d 5 k d 6 R E 5 h 3 d 6 r ] ] ) J ~ J 5 r 6 r r 8 y r 5 g r r r d 5 g r 6 T E 6 h 3 d 6 r ] _ E P ) P 8 r 6 r d e y r ",
"i.k.p.r.k.w.r 8 k.r.a.p.0.p.r r }.`.y.q.y.Q.y.y.k.k.e p 0.w.y.0.a.k.p.w.d.w.r e k.k.a.k.p.i.r r }.`.y.y.y.m.y.y.m.a.e k 0.w.m.0.",
"y.y.U.r.r.t.u u F.e.G.^.w.r.p e {.oXB.A.t.B.q.E.e.U.e u y.y.t.F.F.y.d.y.r.t.u u Z.e.F.!.y.r.p e {.oXS.H.e.Y.q.G.r.E.q u F.F.q.A.",
"Z.Z.t.A.V.H.I ( N.W.t.r.F.F.P ( B.B.B.L.t.W.t.y.G.e.{ Q t.F.B.B.t.S.r.S.H.W.I I S.G.S.S.y.S.I ' A.H.B.H.t.W.t.A.U.e.{ I t.H.A.A.",
"F.t.e.A.t.E.( I V.V.t.B.t.y.( / H.V.N.C.B.t.W.e.y.P.I I y.A.t.T.N.r.q.T.B.E.( I A.H.t.T.A.B./ / W.V.C.V.B.B.^.t.S.P.I I y.F.t.H.",
"r.S.F.S.t.e./ / t.C.t.A.y.y.' / e.H.L.B.T.y.e.y.L { Q ' ' / e.B.y.S.E.y.B.t.^ ( t.B.B.E.F.y.' ( N.E.H.H.E.A.e.P.K } Q ' ' ( t.A.",
"a.7.w.y.y.q.| J y.y.y.y.9.9.' E y.Q.9.q.y.n.w.i.` P E W K ~ v.q.w.7.a.y.y.q.| L v.m.y.y.e.9._ _ F.R.9.q.y.Q.w.a.` R T ' P _ F.q.",
"r 9 y r 5 y E ' J ~ P ' ' [ P E P ' E ' y 8 9 8 6 d U W ` E ' P r r y r 5 y E ' J ~ P ' ' [ P _ P ' ) ' y 8 8 9 8 d Y W ] P ' P ",
"9 h 3 8 p 8 P K ' _ Q E P E K P E ' ] E 8 g 8 h r d W R _ P L ' 7 l 3 5 g e J P ' Q W E E Q P Q E E ' E 8 y 8 g 6 d W R E P P ' ",
"w.w.r k w.w.P.r.y.y.y.y.y.F.F.y.P.9.y.w.0.y.8 5 T E p.d.y.Q.t.t.w.0.r k w.w.^.w.F.y.y.A.y.y.F.y.P.0.k.w.w.a.r 9 W E k.d.y.Q.q.t.",
"a.a.r r 0.y.t.F.A.B.A.V.V.B.H.S.F.t.S.e.v.y.i t Q Q r.F.t.B.C.V.y.y.r e 9.y.y.S.S.N.B.H.H.B.H.B.R.B.R.t.E.y.r t Q ' r.F.1.C.L.Y.",
"w.k.Q I F.F.t.H.H.B.V.H.N.N.L.N.t.V.t.H.t.q.' ' r.F.r.S.S.V.C.x.y.a.I Q F.F.e.S.N.H.N.H.H.V.W.V.B.E.t.R.B.e.' Q r.F.S.B.L.Y.L.Y.",
"k.w./ P A.t.e.S.F.N.H.G.G.G.B.e.H.B.B.t.T.t.L I y.F.6.Z.t.B.C.e.e.k.' P A.A.e.B.F.N.U.H.U.W.S.t.B.B.B.t.A.t.I ~ y.E.e.U.B.V.C.x.",
"E P ' ' q.e.~.t.N.r.Q Q r.y.y.A.S.t.t.S.t.R./ ' r.r.U.F.t.A.Y.E.Q P ~ ' t.q.~.t.y.e.Q Q 6.F.F.G.A.S.t.A.t.F./ ' e.y.y.U.r.A.Y.W.",
"_ W P _ y.e.F.e.d.y.Q ' r.w.F.r.r.r.U.F.e.9.Q E P.0.U.d.w.F.y.e.' ' E / q.0.F.q.y.y.' ] r.y.P.w.Z.r.U.U.r.9.Q P !.0.k.I.y.P.S.9.",
"E L t r e p ' Q K ' I P p q r i q i E Q } ] ] ] r w j r w i E ] R J y y u p Q { L ' P E k q r u q i Q Q } ] ' ] r w j w w i Q ' ",
"P | 8 8 w q P E ] P ' ~ 8 g w r i i Q K Q P W E q d r w k 6 Q P _ | 8 5 i r K E ] ~ ' ~ e d w w j i E P W K W E w d r r d 5 E P ",
"q.w.y.m.! R XX`.y.0.y.v.w.i.d 6 d.r.d.I.w.a.w.w.! R r d Y _ n.y.q.w.y.I.] E .X[.m.9.w.v.w.p.j 6 d.r.h.^.y.y.a.w.! E r y E E ^.I.",
"c.t.w.9.R ! [.[.q.l.l.q.w.p.6 j a.t.r.y.q.v.l.w.P ' r t _ ' q.w.t.z.y.0.R R '. Xq.l.l.w.w.a.6 j d.y.r.x.y.v.z.y.P _ 8 y _ _ 9.9.",
"l.q.y.k.Q ] p.w.y.c.q.w.r.k.6 d y.e.v.e.z.q.z.q.y.v.P P y.q.t.x.l.q.r.d.! ] p.r.y.c.q.y.w.a.6 d y.e.y.e.y.q.z.q.y.m.P ~ v.q.v.v.",
"x.x.A.r.Q ! e.U.C.Y.x.q.y.0.d d y.v.9.t.z.e.x.e.t.y.I / y.v.q.B.q.Y.y.r.Q Q 6.I.V.E.t.q.y.w.r d y.v.q.y.y.x.x.e.y.v.I / q.v.e.x.",
"Y.q.e.y.Q ! U.r.q.t./ ^ y.y.E Q E / E.E.q.v.t.Y.H.e.I P q.A.t.t.x.1.e.y.! ! J.Z.N.B.^ / y.k.E ! P I T.E.e.Y.q.R.E.t.I { t.^.x.T.",
"Y.T.B.S.I I Z.Z.A.e.( ( y.y.! R ] E 0.d.e.q.~.e.H.N.} } e.r.y.e.B.E.A.F.Q I Z.A.E.t./ / y.r.] R Q R 9.y.q.e.^.e.y.e.} } t.S.y.t.",
"L / I ' I I ! Q ( L { L P ' E ] r 6 i i r e ' Q Q ! I R ] { { { I / I Q Q I { I ( L | L I Q Q ] r 9 d p e t ] Q Q } K K Q ! ' Q ",
"' L ' I I { I I I L ' L ' ' E R 6 d 6 5 p r K Q Q Q Q Q Q I P / ' P { P Q { P / / L { I Q Q E J d d r 6 p r P Q Q ! Q Q Q Q Q Q ",
"N H ).(.-.:.-.:.9.6.G G ;.;.w.4.8.2.9 5 J P 6.0.6.6.6.6.6.6.,.;.G G ).(.;.:.-.,.6.:.G G 6.4.0.4.5.2.6 3 H P 9.6.6.6.6.6.6.6.6.:.",
"R J ).).;.6.:.:.-.6.K P 6.-.;.3.3.5.3 3 E J 4.4.6.:.:.:.:.6.,.>.J J ).).>.7.;.,.-.9.K K 6.-.;.4.3.5.3 5 R J 6.;.6.:.;.;.:.:.:.,.",
"B b &.&.%.%.*.%.-.$.N N O.;.&.@.#.3.m C @.@.%.&.%.%.%.%.%.*.*.=.N m &.&.@.*.%.%.-.$.N G O.;.&.&.#.3.m N #.%.%.*.$.-.-.*.*.*.*.*.",
"m M @.#.&.&.&.&.&.&.G v %.-.@.*.-.+.C N &.%.&.%.%.&.%.%.@.@.*.@.N M +.#.#.&.&.&.*.%.N N %.&.@.&.#.O.N N @.@.&.@.@.@.&.%.@.%.*.%.",
"- > ....] X...$.] $.c c O. .] ..] O.c c @.' O.O.] @.O...X.[ [ X.> , X.....[ [ O.] $.c c @.O.] [ [ #.z c @.[ @.O.] @.@.[ [ [ [ O.",
": 1 X.+.+.X.X.O.O. .b b ` X.+.O.O.O.c b O.....] ..O.] ......o..., 2 o.o.+.X.+.] O...c b ] ..o.+.X.X.c c ......[ X...[ ....[ X...",
"- % : - - $ 1 - - : l l 1 - - - - - l c l b c b < - - 1 - - 1 * * * : - - % 1 - - < l l < - > * - > l z l b l x > > - 1 - - 1 - ",
": : % - - - $ - > $ z h - , % > > > z b h l l l - 1 X = , - : - , 2 % * > > * - - - l l * , % > > > z b g z h z > , X & - : 1 - ",
"U W W W W E = = ] T ` ` T T > $ 8.#.Y Y T ` W W T W 1 > U ` F ` F T W ` ` T * - ] U ` W T ) , * 3.&.Y Y Y ` T ` Y ` < > T W U W ",
"W U Y T T E = & U _ _ Y ` F * > #.#._ _ _ ) ) _ T _ & & T ..Y ` ` ) ` F ) _ & > F _ W Y ) ) > > @.=.) _ ) ) ) ) ) ` & & Y ` U ] ",
"U J Y J S S y y J ) V Y S A 0 0 ~ A A P A J J S H J 9 y Y U S J S S F Y A A y y S _ Z Y S A 0 0 ) A J ~ V ) J A S F 0 g Y U U J ",
"Y Z S U S ) 9 y J J Z U Z Y s 0 J G J J S A T Y F Y d g U H R U ) S F U S ) r 0 Y J S J F F s 0 S A Y Y S S ) F F F s g ) S ) S ",
"V S Z F C C 0 y S S C H Z Z 0 0 J Y C C S S V V 7 s 9 9 9 d B U M S F F S A 9 y Z J Z J D F 7 0 S ~ C N F F V V 0 0 s 7 0 s Z S ",
"F D B D U Z l 6 B B D D B D s h B U Z D F D D F h 9 f d d h H H U D D D U Z h 8 B Z D D D D f h V U F D F U D F s s h s s d Z U ",
"o + O $ O + 6 a r d a d s d 3 4 d 6 d 6 + + + @ + % a a s a a d + + + + + + s s s d a d 9 s 2 4 d 9 d 6 + + @ + @ @ a a d a a d ",
"o @ @ @ - % 4 d 6 w 6 6 6 d 6 s 6 6 w 6 % * @ % o @ f s s a w j o ; @ + * + 4 s r d 6 6 a d a d 9 6 d 6 % % @ @ o @ s a d d 6 d ",
"M M + o n M M H B B B B B B B B B H B B M x $ @ f 4 n B b B U b V M +   M D B D B M B B M D B B B U B B B x * + s a M D n n U N ",
"M V # # M V b N N N G N N N N n N B m N Z B +   6 4 n U N N G b M V # # Z V m M C C N A C B C N N J N B F M + o s a m H B H H v ",
"x x 3 7 b m N N N v v N N v G N v N N N m m 3 9 M N M c N v N C M M 3 4 m N N C N N N N N v N N N N N N m N 7 s n V N m N v N N "
};
