/* XPM */
static char *xpm_[] = {
/* columns rows colors chars-per-pixel */
"80 80 253 2 ",
"   c #03051B",
".  c #0B0C18",
"X  c #1A271F",
"o  c #23351D",
"O  c #000223",
"+  c #030C24",
"@  c #050828",
"#  c #000D2B",
"$  c #110D2A",
"%  c #0B1225",
"&  c #04112B",
"*  c #0C172A",
"=  c #0B142C",
"-  c #12132B",
";  c #171829",
":  c #071732",
">  c #161B31",
",  c #261A2B",
"<  c #341A2F",
"1  c #271B33",
"2  c #19262A",
"3  c #1F312C",
"4  c #1C2833",
"5  c #27392B",
"6  c #272635",
"7  c #3C2235",
"8  c #302E30",
"9  c #372839",
"0  c #253632",
"q  c #4D1A2E",
"w  c #6A1D31",
"e  c #472737",
"r  c #57283A",
"t  c #44343D",
"y  c #67283A",
"u  c #76273A",
"i  c #2C422B",
"p  c #32492C",
"a  c #39562E",
"s  c #2D4131",
"d  c #364B33",
"f  c #3A5634",
"g  c #465535",
"h  c #455839",
"j  c #625A3E",
"k  c #47662E",
"l  c #496835",
"z  c #4D7537",
"x  c #557433",
"c  c #567A36",
"v  c #343446",
"b  c #5A2C43",
"n  c #473A44",
"m  c #4F364C",
"M  c #563846",
"N  c #683647",
"B  c #733148",
"V  c #763548",
"C  c #3E4652",
"Z  c #4B4448",
"A  c #58454A",
"S  c #504E4E",
"D  c #5A4754",
"F  c #684E4A",
"G  c #654B55",
"H  c #7A4755",
"J  c #6A545B",
"K  c #76585A",
"L  c #577349",
"P  c #6D6F50",
"I  c #565A67",
"U  c #6B5D64",
"Y  c #765B63",
"T  c #59636D",
"R  c #78656B",
"E  c #6D6C70",
"W  c #7A6972",
"Q  c #872A3D",
"!  c #8E344B",
"~  c #87384B",
"^  c #973649",
"/  c #953A53",
"(  c #9B3C54",
")  c #A43E56",
"_  c #B43E58",
"`  c #874857",
"'  c #8E4F55",
"]  c #974758",
"[  c #A5435B",
"{  c #A7465A",
"}  c #B7495D",
"|  c #AA525C",
" . c #A8645E",
".. c #8F5767",
"X. c #975A64",
"o. c #AC4B62",
"O. c #B34C63",
"+. c #A85666",
"@. c #B75567",
"#. c #BE5A6D",
"$. c #BC5A73",
"%. c #88686A",
"&. c #936C6C",
"*. c #8B7678",
"=. c #967677",
"-. c #A86774",
";. c #B86774",
":. c #AF7073",
">. c #A57979",
",. c #C55867",
"<. c #D25E6C",
"1. c #C45C73",
"2. c #CA656D",
"3. c #CF666D",
"4. c #C96576",
"5. c #DA6871",
"6. c #D66A78",
"7. c #D46B7B",
"8. c #C6767B",
"9. c #D8757C",
"0. c #5C8335",
"q. c #5D8339",
"w. c #598739",
"e. c #5D993D",
"r. c #628A38",
"t. c #638C3A",
"y. c #66963A",
"u. c #6C9C3D",
"i. c #719F3C",
"p. c #6CA73E",
"a. c #73A43C",
"s. c #79A53E",
"d. c #74AB3D",
"f. c #7AAD3C",
"g. c #7CB33D",
"h. c #7AB63C",
"j. c #7BCC19",
"k. c #7EC728",
"l. c #668A4B",
"z. c #6D9346",
"x. c #6BA442",
"c. c #6EAB41",
"v. c #73AD41",
"b. c #7BAA42",
"n. c #7AB441",
"m. c #7AB641",
"M. c #82B73E",
"N. c #85BC3E",
"B. c #82CA2C",
"V. c #86C439",
"C. c #8CC63F",
"Z. c #8DC83E",
"A. c #84BC41",
"S. c #86B844",
"D. c #88B152",
"F. c #8E8F73",
"G. c #A2A275",
"H. c #CD877D",
"J. c #8DC641",
"K. c #88C244",
"L. c #8EC840",
"P. c #92C944",
"I. c #93C849",
"U. c #9BCC4C",
"Y. c #8EC350",
"T. c #94C757",
"R. c #A5CF53",
"E. c #9AC965",
"W. c #A1CE6B",
"Q. c #A4CB76",
"!. c #A9D27B",
"~. c #707781",
"^. c #937C83",
"/. c #B57A83",
"(. c #D26D80",
"). c #C87885",
"_. c #DA7886",
"`. c #DD7B85",
"'. c #E57C87",
"]. c #7D8691",
"[. c #968C90",
"{. c #A98689",
"}. c #B6888A",
"|. c #B29192",
" X c #B79898",
".X c #B4AB94",
"XX c #9E9FA3",
"oX c #B1AEB0",
"OX c #C88788",
"+X c #D88689",
"@X c #CB8E91",
"#X c #C89898",
"$X c #D99898",
"%X c #E4838B",
"&X c #E58689",
"*X c #EB8C8C",
"=X c #EA958F",
"-X c #E78B93",
";X c #EB9293",
":X c #E89698",
">X c #EC9B9B",
",X c #C4A29A",
"<X c #DAA39D",
"1X c #EBA39D",
"2X c #EAA99E",
"3X c #C99DA1",
"4X c #E99DA2",
"5X c #C8A8A7",
"6X c #D9AAA7",
"7X c #D7B3AD",
"8X c #CBB2B0",
"9X c #D7B7B5",
"0X c #E7A9A7",
"qX c #EDABA5",
"wX c #F1A7A6",
"eX c #E6B4AC",
"rX c #ECB2AC",
"tX c #F1B4AD",
"yX c #F1B9AD",
"uX c #E6AFB6",
"iX c #ECB5B3",
"pX c #E7BAB7",
"aX c #ECBBB5",
"sX c #F1B5B1",
"dX c #F2BBB4",
"fX c #F3BDBB",
"gX c #B1D28A",
"hX c #B5D689",
"jX c #C3D897",
"kX c #D5E499",
"lX c #D4CFB3",
"zX c #E6C4BA",
"xX c #ECC4BC",
"cX c #F0C6B3",
"vX c #F3C4B5",
"bX c #F3C4BC",
"nX c #F4CABD",
"mX c #D6E5A6",
"MX c #E3ECAB",
"NX c #E9BFC0",
"BX c #D3CECD",
"VX c #E9C9C5",
"CX c #F4C6C2",
"ZX c #F5CDC5",
"AX c #F5CEC8",
"SX c #E9D5CE",
"DX c #F5D1C6",
"FX c #F6D2CA",
"GX c #F7DACB",
"HX c #F7D9D4",
"JX c #F7E4DA",
"KX c #DCE2E8",
"LX c #EFF1F5",
/* pixels */
"Z.J.Z.J.J.L.L.L.L.Z.L.L.L.L.L.L.Z.J.J.N.C.Z.Z.Z.Z.Z.Z.Z.L.P.I.P.I.Z.P.Z.Z.Z.Z.J.J.Z.Z.C.K.J.L.J.L.L.L.Z.L.L.L.K.V.L.J.J.Z.Z.Z.Z.J.Z.N.N.C.P.Z.Z.J.I.J.Z.Z.U.U.Z.",
"Z.J.P.J.L.L.Z.L.Z.K.L.L.L.L.V.f.f.f.n.f.f.f.g.N.Z.Z.C.C.P.R.I.J.J.Z.J.Z.L.P.Z.Z.Z.Z.Z.N.K.J.J.Z.L.L.L.L.V.K.L.h.v.s.d.d.d.s.d.s.a.S.C.Z.Z.Z.P.J.J.L.Z.L.L.I.U.Z.",
"I.P.J.J.L.J.V.J.n.d.k.J.J.Z.A.c z z x c c z 0.f.Z.C.C.C.P.I.I.C.Z.J.Z.Z.R.U.Z.Z.J.Z.C.C.C.Z.J.J.Z.P.L.L.n.v.n.c.c.x a k l l k l l c S.J.Z.C.P.J.J.Z.L.Z.J.J.J.Z.",
"R.U.J.L.Z.n.x.A.p.d.Y.L.C.Z.S.l 3 * * ; ; 2 i y.C.C.A.L.J.J.C.C.C.J.L.Z.C.J.J.Z.Z.C.C.Z.Z.Z.Z.Z.Z.C.C.J.K.p.u.v.b.k + ; * > > 2 = l N.J.Z.J.Z.Z.J.J.C.A.V.C.Z.C.",
"P.P.Z.Z.Z.K.x.v.c.g.Z.Z.C.I.D.f 6 4 > > 4 0 S z.N.p.d.K.Z.C.Z.N.V.L.L.L.C.C.Z.C.Z.C.Z.Z.Z.Z.P.P.P.Z.P.Z.A.v.h.A.N.k 3 5 6 3 6 4 v l S.L.Z.C.Z.N.h.K.h.c.K.Z.Z.Z.",
"L.Z.Z.Z.C.C.n.A.A.C.N.a.u.b.z.E E W ^.[.[..X.Xz.w.c 0.g.Z.J.Z.P.J.L.L.L.C.P.C.Z.C.K.C.J.Z.P.U.U.C.Z.Z.C.N.u.x 0.r.F.[.[.[..XXX[.l.i.J.L.Z.P.Z.C.p.p.v.d.K.L.J.Z.",
"Z.Z.J.U.L.J.C.J.Z.J.A.c l l l.8X8X9X9XlXSXSXmXXXa p p s.P.J.Z.J.L.L.L.J.J.J.J.J.A.d.N.C.Z.P.P.P.P.Z.Z.J.M.x X 5 S .XSXBXlXSXlXlXG.S.S.s.s.S.C.N.d.p.n.n.V.L.L.J.",
"L.L.L.R.U.Z.J.Z.J.L.S.f @ O W BXSXJXJXJXJXJXSX.Xo X o S.U.L.L.L.L.I.I.J.C.S.c.n.p.p.K.Z.P.Z.Z.Z.Z.Z.L.J.a.k X * S BXJXJXJXJXJXlXgXS.f.z c S.Z.Z.K.K.L.L.L.L.L.L.",
"L.Z.L.L.L.L.L.J.J.I.D.L 9 4 W SXGXGXGXHXGXJXSX.XF P F D.S.A.N.M.A.E.Q.D.g.f.u.y.e.u.s.g.M.N.N.N.V.K.N.N.a.r.P F %.BXJXJXJXJXJXlX.XY.D.l.t.n.Z.Z.L.C.C.C.Z.L.L.J.",
"L.L.L.L.L.C.J.h.M.D.D.l.W P F.zXGXGXDXcXeX7XeX<X<X<X<XF.l.z l l l P P S d p p p p p p a z q.0.0.c c l l l.H.@X+XOXeXzXnXVXGXFXVX8XjX.XG.D.b.N.N.N.J.N.N.P.P.L.J.",
"L.L.Z.J.J.C.c.w.k x F.lXzX9XlXHXGXGXnX2X*X+X+X<XeX2X4X:.g 4 > 2 2 2 * = = = $ : = = = = 4 i 0 0 s 0 3 6 K H.=X=X&X;X;X1X0XFXSXFXZXVXVX9X[.j P P c x c D.R.I.Z.V.",
"L.L.L.d.z.x.w.p   X P zXJXJXHXHXGXGXDXyX;X'.9.<XyXqX-XX., O @ @ O O O O O @ @ @ O @ O O O O O @ O O   ; ' H.=X*X*XH.&X*X1XZXHXHXGXHXGXVX}.H K K e - d y.J.J.L.J.",
"Z.J.C.w.d h S J H F *.zXGXGXHXGXGXGXMXeX+X8.8.@XqX1X+X>.U W W W W W W W W W W R R R R R R U E U U U U Y =.H.&XH.H.3.8.8.@XzXSXHXHXGXGXVX#X:.H.>.A O d y.h.A.L.L.",
"L.Z.N.z.3 6 v H.OX;.G.zXDXDXDXGXGXGX7X>.' ` ] $.).).8.#X8X8X8X9X9X9X9X8X8X8X8X8X8X8X8X8X8X8X5X5X5XoX5XoX#XOX3.3.<.| ` H %.5XFXJXHXGXGXbXeX<X,X#XJ   p q.p.v.L.L.",
"L.L.A.t.6 > n }.0X:X-XyXcXnXnXcXeX2XH.~ y y B o.(.(./.uXAXAXCXAXAXCXAXVXCXCXVXCXVXVXCXCXNXCXAXAXVXAXCXZXpX).} } } V b e F }.VXGXDXGXDXnXaXeXeX<XK O 5 z p.A.C.J.",
"Z.Z.A.y.3 , t  XqX:X:XyXvXnXcX2X=XH.H.^ w w u ] $.1./.pXHXFXAXAXAXAXAXAXAXAXAXAXAXAXAXAXAXAXAXAXAXFXFXFXfX)._ } } u r r N :.$X>XqXcXGXnXnXcXcX7XY @ 0 z g.A.C.Z.",
"J.P.N.y., 1 n OX2X>X;XyXcXnXcX<XH.H.2.^ Q Q Q  .).).@XNXFXAXAXAXZXAXAXZXAXZXZXAXAXZXAXZXZXAXZXAXAXFXFXAXpX@X,.$.@./ B N B { 5.5.&XyXnXGXMXcXyX7XK + 5 q.V.J.J.Z.",
"P.U.A.r.2 0 g {.$X+X+X<X2XcX2XH.:. .| ^ Q Q Q H.6X0X6XNXFXAXAXAXDXAXZXAXAXAXAXAXAXDXZXAXAXAXAXAXDXAXFXAXCXrX$X6X#X-./ ! / [ } } 2.#XnXnXcXcXeX<XP + 0 q.Z.L.J.C.",
"P.U.S.t.g x L %.-.X.' -.H.+X:.' w q Q ^ ^ Q ^ ,XCXZXZXAXFXAXAXAXZXAXZXAXZXZXZXDXZXZXZXZXAXAXAXAXAXAXAXFXFXAXFXFXFX|.o.[ [ ~ ! w N :.6X6X,X X|.G.P p f r.V.K.L.m.",
"L.C.C.M.M.M.M.x e 7 7 B | @.| u w w u ^ ^ Q ] #XZXFXFXFXFXAXAXAXAXZXZXAXDXZXZXAXZXAXAXZXZXAXAXAXAXAXAXDXAXFXFXFXCX@Xo.O.} ~ w q r B +.[ H g F P s.b.y.x.h.v.m.v.",
"J.L.Z.K.S.K.N.x   + , y ( { ^ y w w ! ^ ^ ^ ] @XAXAXAXFXDXZXDXZXZXAXZXZXZXDXAXZXDXDXAXZXAXDXAXAXDXAXDXAXDXDXDXDXCXOXO.O.} / u q y ~ ^ ! w , $ g f.N.N.N.J.s.y.v.",
"K.n.V.v.a.A.M.0.i k k j V V y B ~ ^ +.:.3.8.H.<XDXDXAXFXDXDXZXDXZXDXZXAXDXAXZXDXDXZXDXDXAXDXDXZXAXAXZXZXAXAXDXAXVX<X@X@XOXX.B u y u B B q . ; p M.Z.C.C.A.g.v.K.",
"A.c.v.e.n.K.S.b.r.t.y.k e < e V ( ) 8.6XeXeX7XzXAXDXDXDXDXAXDXZXZXZXZXDXAXAXAXAXAXDXDXFXAXDXAXAXZXZXAXAXDXDXFXAXAXpXuXiX6X:.( ! B < q e g x x r.M.N.N.C.J.J.J.J.",
"n.v.d.h.A.T.jXhXT.f.a.a X   e ` } _ OXpXZXnXnXDXFXFXDXDXDXZXZXZXDXAXZXAXDXAXDXFXDXAXDXAXDXAXAXAXZXAXAXAXAXDXFXAXAXAXFXCXpXOX{ / B ; . o S.U.C.N.C.C.C.P.J.J.J.J.",
"Z.K.V.J.J.!.kXMXQ.v.d.z X . q ' } } +XiXCXZXCXnXDXDXVXDXDXDXDXAXAXZXAXAXDXFXAXAXFXFXAXAXDXFXZXZXAXAXAXAXAXFXAXAXAXCXAXCXpX;.@.+.` . ; 5 p.Z.Z.Z.Z.P.J.Z.L.L.J.Z.",
"Z.Z.Z.J.L.I.gXQ.Y.A.h.x X   t  .8.4.+XiXCXfX9X8X5X5X8X9XxXFXZXAXZXDXAXFXDXDXFXDXFXFXDXFXAXFXFXZXAXAXCXAXVX9X8X9X9XpXxXbX0XOX@X@XX.; . o i.L.P.Z.Z.Z.J.P.I.L.P.C.",
"L.Z.L.J.P.P.T.T.L.P.V.x X   A |.6X4X0XiXfXuXXX~.E U R F. XxXAXAXDXAXDXDXFXFXFXFXFXFXFXFXDXFXFXAXAXAXCXpX XF.E W =.{.3XeXiX0XrX6X=., . X u.C.C.Z.J.L.J.J.C.U.R.Z.",
"J.L.I.J.I.T.jXhXT.Z.V.x X   D  XpXfXaXuX3X X^.~.[.].I v R 5XfXFXAXDXAXDXFXFXFXFXGXFXFXFXFXFXFXZXCXpX6X|.Y I ~.~.T Z R |.7XbXbX6X>.;   * y.C.Z.Z.J.J.I.L.C.P.P.Z.",
"f.K.Q.W.Y.gXkXMX!.P.K.x X   A  XpXbXaX5X/.R XXKXKXKXXXT v ].9XVXAXAXAXAXGXFXFXFXFXFXHXFXFXFXFXFXzX X%.D v [.BXBXoXT 6 R #XdXfX6X>., ; , y.K.J.V.K.S.L.L.J.Z.P.L.",
"L.E.mXmXW.V.gXQ.Y.W.Q.l.g 8 R ,XfXCX7X^.m v oXKXLXLXBX~.@ I {.pXZXAXDXGXFXGXGXGXFXGXFXFXGXFXFXFX9X=.9 4 C oXLXLXLXXXv 9 *.uXfX0X>.M N G z.a.p.d.x.m.L.L.Z.Z.Z.Z.",
"L.E.mXjXE.Z.m.w.l P F..X,X,X5X9XbXCX7XF.v 4 oXKXLXLXBX~.@ m ^.pXZXZXGXFXFXGXGXFXHXHXHXHXFXFXFXFX9X*.6 = 4 oXLXLXLXXXv > Y uXaXrX<X#X#X@X&.g p a y.m.K.L.Z.P.L.L.",
"L.J.E.Y.L.L.x.l % + S 8XzXzXnXnXZXZX7X*.6 4 XXBXKXKXoXT @ v %.9XnXnXzX7X X X X X X X#X X5XxXDXGX9X=.6 : : XXKXKXKXXXv # Y 9XfXiXrXrXtX0X&.- % 3 p.K.L.L.L.L.L.L.",
"L.L.L.p.v.v.u.x % . S jXbXbXbXZXZXZX7X*.6 = I [.oXXXE v # 9 %.eXbXCXeX{.F v t n m D D I ^.uXAXFX9X=.1 = - E XXoXoXT > @ U uXNXdXyXtXtX6X&.- % 5 h.Z.Z.Z.J.Z.P.Z.",
"L.L.V.K.y.p.v.z % - g 8XCXbXCXnXnXDX7X*.6 : : > 4 4 : & # 6 R 6XaXaX6X>.G Z m Z m I D m ^.8XVXCX8X^.6 = : > > 4 4 : # @ Y 9XfXdXdXyXtX0X=.- % 5 f.C.C.C.C.L.Z.Z.",
"L.L.Z.K.v.K.N.0.* % S 5XCXnXZXnXnXZX6X*.9 : : : : : : > 8 S R {.|.#X@X|.[.^.[.[.^.^.^.XXoX9X9X8X XW 1 > $ - $ : : : @ @ U 9XfXdXdXdXyX6X=.- % i f.C.Z.C.h.n.P.Z.",
"Z.L.Z.K.J.V.C.q.% % Z 5XxXCXZXnXnXZX7X[.v : : : : : : C [.oXoX^.K D *.5XVXVXSXAXVXSXSXAXuX^.~.U I S v m v > : : : : : # U 7XfXdXdXvXyX0X&.$ % i g.n.d.S.c.h.Z.C.",
"J.C.Z.L.C.P.C.q.= + g 3XxXCXZXnXnXZXpX{.v : & : : : 4 T oXSXSX^.v @ ~.9XHXHXHXJXHXHXJXJXNX^.9 O v W XX X^.m # & : # v I ^.9XfXdXbXdXdX6X&.+ - 5 f.V.c.x.c.n.N.C.",
"Z.Z.L.U.P.P.C.c = O n 3XzXCXnXZXDXnXzX#X%.J m : : # : E oXBX9X{.Y m ^.9XHXHXHXHXHXHXHXJXVX{.Y U *. X9X9X[.D @ @ @ @ I [.5XfXfXbXdXvXdX0X&.+ % i s.A.n.b.A.K.J.J.",
"J.Z.J.U.I.J.J.q.= O v #XpXnXZXnXnXnXbXeX#X X*.I D D D T ^.[.{.|././.3XNXCXVXAXHXHXHXHXHXNX3X}. X3X5X X X~.D m Z D I [.8XCXbXbXbXbXdXdX6X&.@ $ s h.Z.U.U.I.L.Z.Z.",
"Z.Z.L.L.J.J.J.r.* + n  XfXnXnXZXDXDXnXbXfXfX6X5X|. XoXW Z 8 G 3XuXuXuXuX8XuXuXVXCXAXVXNX9X3XrXiX0X|.m n G =.|.|. X3X9XCXAXnXbXbXvXvXdX6X&.+ @ g b.P.I.I.Z.Z.J.Z.",
"Z.Z.Z.Z.Z.J.J.q.2 O t  XxXbXZXZXZXnXZXnXnXnXbXCXVXVXBX[.v   A $XNXfXuX^.Y J }.eXCXfX|.%.%.{.qXyXqX}.7 1 R ,XxXzXVXCXnXDXZXnXnXnXbXvXdX7X&.@ % h D.C.I.L.C.J.Z.J.",
"Z.J.Z.Z.C.C.K.0.0 + 9  XaXbXnXDXDXDXCXnXbXnXCXFXFXFXAX|.n   A 5XNXfX6XH ,   {.iXfXpX=.7 M =.0XtXqXOXt 6 %.6XZXDXAXAXDXDXDXDXZXnXbXbXdX6X&.O = d D.I.J.L.Z.Z.Z.Z.",
"Z.J.Z.J.h.N.n.z 5   t  XaXnXbXvXdXyXdXdXsXyXaXCXHXHXSX|.n . A 5XuXfXuXY 9 ; }.pXCXpX=.7 m =.0XtXeX@XM 8 %.6XZXDXZXvXyXyXdXyXtXtXbXbXbX0X=.  % i b.L.J.C.C.Z.Z.Z.",
"Z.Z.Z.K.n.p.e.w.o   t  XpXcXvXrX>X:X>X>X>X>X>XdXFXHXSX|.n @ A $XfXNXuX%.9 1 {.uXfXNX=.7 g =.qXyXyX#XF 9 %.7XDXnXnXqX;X;X;X;X*X;XqXnXxX7X=.+ % i f.L.Z.Z.J.C.Z.J.",
"J.Z.Z.C.n.d.m.w.5   t  XeXvXvXqX;X-X;X;X;X;X-XtXFXHXHXXXn . A 3XuXfXeX=.n , {.fXCXfX^.e n =.0XyXyX#XF t %.<XZXDXvX>XH.*X*X*X*X;XyXDXVX9X=.  . i f.Z.C.V.C.C.Z.Z.",
"L.J.J.L.K.N.Z.y.5   9 |.6X0X0X>X*X*X*X*X;X;X*XtXFXHXFX|.Z ; A ,XfXfXeX^.m 7 }.pXfXuX/.m Z &.6XyXqX<XY 9 %.6XZXnXnXwX*X*X*X*X*X;X2XzXzXlX*.  % i a.K.n.c.A.Z.J.Z.",
"J.J.Z.Z.Z.Z.C.y.5 + 9 &.).OX).%X*X*X=X>XwX1XwXiXFXHXFXXXD ; r OX4X0X6X<X#X}.$XiXfXrX@X/./.).<X1X<X}.F 9 %.6XnXZXnXtX>X>X>X;X;X;X$X|.@XG.R % % 5 y.c.c.c.C.J.Z.Z.",
"Z.L.J.Z.Z.Z.Z.r.5 O , ..+.@.$.'.*X*X>XrXyXyXvXbXFXFXAX XD ; t :._.:X0XsXrXrXuXsXsXsX0X4X4X$X-X+X:.' 9 9 &.6XZXDXnXvXdXsXtXwXwX>XOX . .F.L 2 % 5 e.p.A.n.Z.J.J.J.",
"L.Z.J.J.Z.Z.L.t.3 @ < ..;.#.8.+X*X*X1XcXvXnXnXnXGXGXDX XD = t ;.`.>XwXdXdXsXsXyXtXyXyXqXwX>X&X9.' , . < &.7XCXZXZXAXAXFXAXdXtXwX@X-.;.>.P X + i a.A.L.Z.Z.Z.Z.I.",
"N.C.L.Z.C.P.U.t.2 + < X.-.#.8.9.*X*X>XyXcXnXnXnXnXnXnX Xm 1 M ;.+X-X1XuXrXrXrXuXrXrXtXrXwX>X+X8.X.8 < t =.7XnXZXZXZXAXAXCXiXrX4X@X .-.:.K o . i f.V.L.L.C.K.J.J.",
"M.C.L.Z.C.Z.U.l.4 2 8 K ..` X.;.H.'.+X0XcXvXvXvXnXZXnX|.J G Y ..;.;./.OX}. X@X@X#X#X#X$X$XOX).;.X.Y R %.|.0XfXfXbXCXAXCXpX4X4X$XH.&. .F.P 5 * i g.L.L.L.K.A.J.J.",
"J.Z.L.L.C.Z.Z.b.z.u.t.L S b N X.8.7.+X;X2XqXyXyXvXvXbX6X5X7X5XX.] ] ` H J J J K K Y ..R %.` K V =.#X$X5X0XiXdXfXsXtXwX4X-X).).).&.F F P t.w.c r.M.L.L.Z.J.J.L.L.",
"Z.J.Z.Z.L.J.J.J.K.K.K.z f # n ..4.7.).$X1X1X1XtXdXvXvXbXZXFXVX-./ B b #     O O O @     O # : : >.0XdXfXsXdXdXsXuX4X4X'._.1.1.$.V 9 8 c u.n.n.M.C.Z.J.L.I.J.J.L.",
"P.Z.Z.P.J.J.J.J.P.V.K.w.a # e X.9.'.`.-X1X1XwXtXvXnXnXZXZXAXpX-./ H b 1 , ; - - - - $ $ - v v e ^.0XsXaXsXfXdXdXuX4X4X'._./.(.+./ e 8 z.S.J.J.Z.Z.J.J.I.J.Z.Z.L.",
"Z.Z.Z.J.J.K.A.C.Z.Z.N.u.h @ t X.8.7.8.&X>X1X1XtXdXvXbXxXnXbXuX-./ B H b r b N r b r b y N V ` ~ /.0XrXrXsXsXsXrXuX4X_._._./.+.o.V v h f.C.K.L.J.J.J.I.J.L.J.J.J.",
"Z.Z.J.J.P.J.C.J.L.Z.V.a.k @ 6 N ' ] ] ;.9.&X+X:XwXwXwXwX0XqX0X;./.(./.(.@.@.@.@.@.@.@.O.#.4.(._.'.%X-X-X-X-X-X-X-X'.(.(./.H N m b g z.A.Z.Z.Z.N.A.K.J.K.J.C.h.n.",
"Z.Z.L.K.J.Z.Z.L.L.Z.C.i.g % 0 h P G N X.4.7.7.`.-X4X:X4X>X4XwX'.'.uX'._.(.'.(.'.5.5.5.5.'.'.'.'.%X%X%X%X`.'._._.'._.(.....m 7 1 1 l z.h.Z.L.Z.Z.J.L.V.v.n.d.x.K.",
"L.L.L.J.C.L.C.L.L.L.C.i.l p g l.b.L S ` 1.6.3._.'.-X-X4X>XwX4XwX4X4XuX'.'.'.'.'.'.'.'.'.'.'.-X-X%X%X%X%X'._._.'.'._./.$.^.b 1 : = a e.K.J.L.P.L.L.J.J.v.x.c.p.V.",
"C.Z.L.L.Z.L.J.L.L.Z.J.g.u.y.y.i.a.w.S ` 1.1.1.4.'.'.'.-X>X;X'.;X'.4X4X'.'.'.'.'.'.'.'.'.'.'.'.'.%X'.'.`.9.7.7.'._.(././...D C C f z p.N.C.U.U.Z.L.L.I.m.n.m.V.J.",
"V.k.B.V.C.L.Z.L.L.Z.J.J.C.C.K.s.k 3 6 b ] ..] +.(.(.(.'.'.'.'.'.'._._._.'.(.'.'.'.6.'._.'.'._.(.9.(.9.7.4.2.1.1.(.^.B m G Z z.z.x.h.A.J.C.P.U.Z.L.T.gXgXJ.C.J.Z.",
"j.j.j.V.Z.L.Z.L.L.Z.R.U.J.K.A.b.i = % 1 b m m ] (.1.(.(.(.(.(.(.(.(.(.(.(.(.(.(.7.7.6.6.7.7.7.7.4.4.4.<.1.1.O.$.@.H < < 1 8 u.A.J.J.I.T.I.P.J.C.J.hXMXkXQ.Z.L.C.",
"j.j.j.B.L.L.Z.J.L.J.P.I.A.v.v.w.i % # , 7 b b ] O.$.1.(.(.(.(.(.<.(.(.(.(.(.7.7.7.7.7.4.7.7.1.1.4.1.1.1.1.1.@.@.| y .   @ 3 y.S.L.P.hXmXhXP.C.K.N.T.gXhXJ.Z.L.Z.",
"j.j.j.V.V.L.L.h.A.L.J.J.L.v.x.w.d % @ , b ~ / [ o.O._ O.1.O.(.O.$.$.$.$.$.$.<.1.1.#.#.$.#.#.#.#.#.#.#.#.@.O.@.@.{ B < ; $ 3 r.h.J.Y.hXMXjXI.Z.Z.Z.Z.Y.T.Z.C.J.C.",
"V.h.k.V.d.A.n.p.A.I.I.I.J.n.n.x.a = # 7 B o.O.O.[ / ) ) ) ) / ) _ _ [ [ _ _ _ _ ] o.[ [ o.[ o.o.o.o.O.o.o.o.o.{ { ! y < $ 5 y.N.J.J.E.Q.E.L.Z.C.J.Z.Z.C.C.L.L.J.",
"Z.n.S.N.n.p.p.v.S.J.T.mXhXL.J.n.h = & 7 ` } } | { ^ ^ ^ ) ) ) ) ) ) [ ( [ ^ ( ( ( ( / / / / / ( o.) { { o.o.) ) ) } / e $ 3 t.S.L.L.L.I.K.J.J.h.v.K.L.L.L.J.J.L.",
"Z.b.S.C.m.d.m.A.K.L.gXkXmX!.L.n.l = + 7 ' } 2.} { ^ [ ^ ^ ) ^ ) ] { ( [ ( ] / / / / / / / / / ( ( o.{ { ) ) [ [ ) } / e $ 3 r.S.J.I.C.Z.h.v.n.c.m.I.W.E.J.K.L.J.",
"B.k.h.V.V.S.K.J.L.L.T.hX!.W.!.Y.l > # e ` @.3.,.| { { { ) ) ) ( ~ ~ ~ V V V V B B B N B N B V V ~ ] { } ) ) ) ) ) } ] r $ X r.S.!.!.L.Z.K.x.y.n.h.Q.mXkXE.A.L.Z.",
"j.j.j.B.J.L.J.J.L.L.I.T.E.kXMXgXL 3 + e ' 2.6.5.3.,.} } } } ) ~ y e r e e e q 7 7 7 7 7 e 7 7 e B ] O.} @.#.$.@.@.@.] e - 3 c E.kXMXhXV.K.n.h.K.V.Q.mXjXE.V.J.Z.",
"j.j.j.B.L.L.L.L.L.I.hXhXE.hXjXQ.q.0 # e ' 2.9.H.9.5.<.<.} } _ u < + + + @ + + + @ @ % # % + # + y ] ,.,.3.6.7.4.2.2.] e - 3 0.n.jXjXT.Z.Z.K.C.Z.L.T.E.E.P.L.L.L.",
"j.j.j.B.C.P.P.P.L.Q.mXMX!.T.T.S.t.s # e ' 8.&X&X&X9.3.<.,.} { V < # 2 5 p p i i i i i i 5 % % + N | ,.,.3.9.9.9.6.6.{ e % X 0.h.T.T.J.L.L.C.V.L.P.P.L.L.L.Z.L.L.",
"j.k.V.h.V.U.U.P.J.I.gXgXT.Z.J.J.z.a & 9 ' H.&X*X*X*X9.9.<.,.{ V < & p q.a.a.u.u.x.u.x.z.c 2 .   N  .<.<.9.+X*X+X+X9.| e % X 0.p.v.K.C.Z.K.V.A.I.!.!.J.Z.Z.L.L.L.",
"j.h.A.J.L.P.L.P.C.C.I.I.P.Z.N.N.x.S & 6 H +X*X;X;X1X>X;X&X6.@.V < = a i.N.K.C.K.A.A.M.x.w.2 + + N | 6.6.%X4XqXwX>X%X .e $ 2 k y.n.K.L.L.L.L.L.Q.kXmXgXZ.L.L.L.L.",
"j.C.S.J.L.L.L.Z.Z.L.L.L.J.Z.C.C.D.P & < F +X>X>X1XwXwXwX>X&X4.H 7 + a u.K.Z.Z.L.Z.C.K.x.w.2 + + F @.5.9.-XuXsXwXwX:X-.n $ 2 k a.h.J.L.L.Z.P.J.T.jXmXE.V.P.Z.Z.L.",
"B.h.S.K.Z.C.K.K.J.v.d.K.Z.C.J.C.b.L : 1 F OX=X:X$X1X<X:X=X+X;.H 7 # p q.a.f.d.f.d.d.d.y.0.2 % + N  .5.9.%X4X0X0X4X$X-.e % 2 x h.L.L.L.L.J.Z.Z.L.T.T.J.J.Z.Z.Z.Z.",
"C.S.S.C.L.Z.m.c.n.p.h.K.C.N.N.N.b.L & > b &.:.>.>.F.:.>.&...` M 1 # : 3 s s s 5 5 0 i s 3 % + + t H  .X.-.F.{.}././.Y 7 % 2 x s.M.S.N.V.K.Z.L.L.L.L.L.J.A.m.L.L.",
"C.S.b.M.L.J.J.y.v.d.h.p.q.c c c l 0 & = 1 t t t t t n t n 9 9 1 = = % = = = = : = * : * * & = & , < 7 e e t n n n n 7 > % % 5 a h l z y.N.L.L.Z.J.m.h.A.v.n.J.J.",
"C.f.h.V.V.C.N.f.A.K.A.y.g 0 0 0 3 > & : & # # # & & # # # # # = & & & & & & & = & & & & & & = & # & # # # @ O O @ @ & & + % % = 2 2 5 r.S.J.L.Z.P.K.c.x.x.n.K.J.",
"V.k.j.j.B.V.C.L.J.L.J.t.d * ; : = > : > > 4 4 4 4 4 4 4 4 0 0 0 5 5 0 3 2 2 2 2 3 3 3 3 2 2 2 * * : > 2 2 4 0 5 5 i s i s s s s s 0 d t.a.C.L.L.L.h.v.v.n.V.J.J.",
"B.B.j.j.B.B.C.L.I.J.J.a.w.c c c c c z c c q.q.q.q.q.0.c 0.q.q.q.q.r.q.0.q.c c q.0.0.0.q.0.c c c 0.c c c q.0.r.r.w.t.t.w.t.t.t.y.y.t.y.f.N.Z.L.Z.L.K.N.V.L.J.J.J.",
"V.B.j.j.B.B.P.Z.L.L.L.J.J.J.N.N.N.C.N.C.J.K.K.J.J.V.C.N.K.J.J.L.C.C.J.J.K.K.C.Z.V.C.C.C.C.C.Z.C.J.J.J.J.J.J.I.I.J.L.L.Z.J.J.L.K.J.J.C.C.Z.L.L.Z.L.Z.Z.J.P.J.J.L."
};
