/* XPM */
static char *xpm_[] = {
/* columns rows colors chars-per-pixel */
"80 80 251 2 ",
"   c #060E1D",
".  c #050826",
"X  c #030C25",
"o  c #020C2A",
"O  c #100E23",
"+  c #0B1325",
"@  c #051328",
"#  c #04122B",
"$  c #0B152C",
"%  c #0B182C",
"&  c #12142B",
"*  c #1C172A",
"=  c #121A2D",
"-  c #070D33",
";  c #071737",
":  c #0B1432",
">  c #0D1932",
",  c #161635",
"<  c #131C34",
"1  c #1B1B33",
"2  c #121E3A",
"3  c #241A2B",
"4  c #34162C",
"5  c #281C35",
"6  c #371C34",
"7  c #1A262B",
"8  c #09203C",
"9  c #182436",
"0  c #282738",
"q  c #362538",
"w  c #2E3331",
"e  c #293936",
"r  c #5D1B35",
"t  c #492639",
"y  c #54293A",
"u  c #4E343E",
"i  c #6D273D",
"p  c #2E4433",
"a  c #374938",
"s  c #3B5337",
"d  c #3C623C",
"f  c #425B3A",
"g  c #49673B",
"h  c #51733D",
"j  c #55783B",
"k  c #061A46",
"l  c #1E2542",
"z  c #2A2B43",
"x  c #3A2A43",
"c  c #3B3744",
"v  c #492744",
"b  c #562A45",
"n  c #473747",
"m  c #583947",
"M  c #503850",
"N  c #672C44",
"B  c #71354A",
"V  c #394844",
"C  c #3C4156",
"Z  c #56454D",
"A  c #445746",
"S  c #484953",
"D  c #5B4853",
"F  c #4F5250",
"G  c #664854",
"H  c #6A4B54",
"J  c #784856",
"K  c #78545B",
"L  c #4A6644",
"P  c #577946",
"I  c #556A50",
"U  c #667554",
"Y  c #5B5661",
"T  c #725964",
"R  c #786469",
"E  c #727070",
"W  c #8B324A",
"Q  c #A63A51",
"!  c #884759",
"~  c #894F58",
"^  c #984557",
"/  c #A8485A",
"(  c #B24F5C",
")  c #844E63",
"_  c #9B4D67",
"`  c #885864",
"'  c #985966",
"]  c #A85767",
"[  c #AC5068",
"{  c #B85467",
"}  c #BC566A",
"|  c #BC596C",
" . c #8E6B6C",
".. c #98676B",
"X. c #876A73",
"o. c #8A7277",
"O. c #967679",
"+. c #A86873",
"@. c #AB6D73",
"#. c #BA6A78",
"$. c #B6777B",
"%. c #C25A6D",
"&. c #C8586A",
"*. c #C45D71",
"=. c #CA5B71",
"-. c #D05E70",
";. c #C7636D",
":. c #CD6373",
">. c #C86675",
",. c #D56B77",
"<. c #C9767C",
"1. c #D4727C",
"2. c #DA727E",
"3. c #E0777E",
"4. c #5C823C",
"5. c #5A973C",
"6. c #658C3B",
"7. c #67933B",
"8. c #68A53E",
"9. c #75AC3E",
"0. c #77B33E",
"q. c #7BB43E",
"w. c #7BCC17",
"e. c #7CCC1B",
"r. c #7DC627",
"t. c #5E8344",
"y. c #5A9741",
"u. c #638746",
"i. c #699545",
"p. c #729C48",
"a. c #718F57",
"s. c #69A342",
"d. c #6CA941",
"f. c #77A945",
"g. c #7AB541",
"h. c #7CB442",
"j. c #7CA855",
"k. c #778F66",
"l. c #81B63F",
"z. c #83BC3E",
"x. c #81C92B",
"c. c #85C33A",
"v. c #8CC63F",
"b. c #8DC83E",
"n. c #81B543",
"m. c #84BC42",
"M. c #88BE43",
"N. c #85B74B",
"B. c #8BB558",
"V. c #918E78",
"C. c #8FB26C",
"Z. c #86C141",
"A. c #8CC641",
"S. c #8EC840",
"D. c #8EC649",
"F. c #92C944",
"G. c #91C749",
"H. c #93C94A",
"J. c #9ACB4B",
"K. c #8EC153",
"L. c #95C856",
"P. c #A7D054",
"I. c #9AC866",
"U. c #A1CE6B",
"Y. c #A8CE77",
"T. c #957F81",
"R. c #AF7484",
"E. c #BA7B83",
"W. c #C77784",
"Q. c #D97883",
"!. c #E47C85",
"~. c #7B858F",
"^. c #938F8D",
"/. c #B68588",
"(. c #B88C92",
"). c #AA9290",
"_. c #B69997",
"`. c #96A294",
"'. c #ADAC90",
"]. c #B99BA2",
"[. c #B6ACA9",
"{. c #C98688",
"}. c #D7898B",
"|. c #CF9090",
" X c #C79998",
".X c #D79999",
"XX c #E7888A",
"oX c #E4908E",
"OX c #ED938D",
"+X c #E88D94",
"@X c #E49393",
"#X c #EB9494",
"$X c #E89798",
"%X c #E59B9A",
"&X c #ED9C9B",
"*X c #CEA49B",
"=X c #E5A59D",
"-X c #ECA39E",
";X c #F0A09D",
":X c #CD9EA1",
">X c #EA9CA2",
",X c #C5A8A4",
"<X c #D9AAA8",
"1X c #C7B3AB",
"2X c #DBB3AB",
"3X c #D3BBB7",
"4X c #EEA3A2",
"5X c #E7AAA7",
"6X c #EDABA4",
"7X c #F0A8A4",
"8X c #F0AEA9",
"9X c #EDB3AB",
"0X c #E8B5AA",
"qX c #F1B6AA",
"wX c #F1B4AC",
"eX c #E6AFB2",
"rX c #E9BAB5",
"tX c #F1B5B2",
"yX c #F3BDB4",
"uX c #F2BDB9",
"iX c #B6D689",
"pX c #B3D18E",
"aX c #C6D79D",
"sX c #D0D4AC",
"dX c #E9C4BB",
"fX c #F4C2B6",
"gX c #F4C8B5",
"hX c #F4C4BA",
"jX c #F4CABC",
"kX c #F6D1BC",
"lX c #CCE2A4",
"zX c #D4E4A8",
"xX c #E3EAA3",
"cX c #F1BDC0",
"vX c #DAD0CE",
"bX c #ECC9C3",
"nX c #F4CBC5",
"mX c #F5CCC4",
"MX c #F6D4C5",
"NX c #F6D2CB",
"BX c #F7D9CC",
"VX c #E8D5D2",
"CX c #F6DBD3",
"ZX c #F9E0CF",
"AX c #F8E4D9",
"SX c #E4E0E3",
"DX c #EDECED",
"FX c #F8EAE5",
"GX c #FBF4E9",
"HX c #FDFCF4",
"JX c #FBFAF8",
/* pixels */
"v.S.A.F.S.A.S.S.S.b.S.S.S.S.S.v.v.S.A.q.b.S.v.v.v.b.S.S.F.F.F.G.A.v.b.b.A.b.v.v.v.b.S.v.A.D.A.b.S.S.S.v.A.v.v.Z.Z.A.A.A.v.v.b.A.S.v.z.v.S.S.v.S.D.S.A.S.S.P.F.v.",
"v.A.D.S.b.S.b.S.A.Z.S.S.S.S.S.b.v.S.S.A.b.b.v.v.v.b.S.S.F.P.G.S.b.F.b.v.J.b.v.b.b.b.v.z.Z.A.S.v.S.b.S.b.m.A.c.g.m.A.A.b.S.b.v.b.b.b.v.v.b.S.v.D.A.b.b.v.S.J.b.v.",
"J.D.S.v.v.Z.c.Z.g.0.v.S.S.b.S.J.S.S.v.v.S.S.b.v.b.S.A.S.G.H.S.v.b.b.b.F.P.F.b.A.A.v.S.c.A.v.S.v.S.b.S.A.d.g.g.f.m.D.v.v.v.v.S.b.v.S.S.b.S.S.A.A.S.b.S.v.v.A.b.v.",
"P.S.A.b.A.g.s.m.5.g.c.S.S.S.F.P.S.v.b.b.b.b.A.v.A.q.m.S.F.A.v.z.v.F.S.v.S.b.v.b.S.S.S.b.b.b.S.b.S.S.v.A.Z.5.d.f.m.A.b.b.b.F.J.S.b.S.S.v.S.S.b.v.A.A.z.m.v.b.A.b.",
"b.b.b.S.v.Z.s.g.8.z.v.b.S.S.b.b.v.v.b.v.b.S.g.Z.c.s.g.A.S.A.b.z.v.S.S.v.S.b.b.S.v.v.v.v.v.b.F.b.S.S.b.v.m.d.M.M.A.v.b.v.b.F.P.S.v.S.S.v.S.b.b.z.q.Z.8.g.c.A.A.b.",
"b.F.b.S.v.z.h.Z.v.A.A.D.D.S.S.S.S.S.S.S.S.S.g.5.0.s.Z.S.S.b.S.S.S.S.S.b.S.S.S.S.A.c.v.S.b.J.P.F.S.S.F.b.Z.v.A.b.v.S.S.S.F.v.b.b.b.A.S.S.S.A.v.h.5.g.d.Z.A.S.S.b.",
"v.b.S.J.S.A.v.A.v.S.S.F.A.S.b.A.v.v.v.v.S.A.m.7.Z.g.A.J.S.S.b.S.S.b.b.m.f.f.f.j.i.i.f.N.A.F.F.F.b.v.v.S.b.S.S.b.A.v.S.A.A.A.A.M.D.D.M.D.A.F.v.z.8.g.g.Z.A.S.v.b.",
"S.S.F.P.F.b.S.b.S.S.S.D.S.b.v.q.A.S.S.S.S.v.Z.Z.Z.A.S.P.F.S.S.S.S.G.B.P a e e e e p a s f.b.b.b.S.S.S.S.S.S.b.S.v.q.v.n.L f A s s g V A p.v.v.v.m.A.S.S.b.S.b.S.",
"S.S.S.S.S.S.b.b.F.H.A.A.b.v.b.b.v.b.b.b.S.L.L.F.S.S.S.b.F.v.b.b.N.U s 7 - - - - - - k 0 n.S.S.v.S.A.v.S.F.b.v.b.b.b.b.n.a - $ & : - : 2 j.v.b.F.S.S.b.b.b.S.S.b.",
"S.b.S.S.S.S.S.D.H.P.F.b.F.b.b.F.F.b.b.F.L.iXiXL.S.S.b.S.b.v.v.c.j.+ $ 0 n S n S S S Y I n.n.h.M.A.A.z.S.b.H.I.S.n.n.n.p.A c c q a n Z F m.Z.z.v.b.S.S.H.F.S.S.v.",
"S.S.S.S.S.A.Z.D.G.J.v.S.b.b.b.b.A.A.b.G.U.zXxXY.G.b.S.b.b.z.7.j g 1 q R ].[.[.[.1X3X3X^.c 0 0 6.D.A.A.S.H.iXlXU.L 0 e f T.).)._.[.1X1X`.a.6.j f.S.S.S.P.J.D.A.z.",
"S.b.b.g.A.g.s.Z.v.b.b.S.S.v.F.Z.m.S.S.b.H.pXpXD.b.v.v.b.M.s.p o o 0 u X.dXBXBXCXAXCXCX^.0 & $ 4.D.A.S.S.H.zXxXiXf O   w ,XjXgXCXAXGXAX_.c 1 a f.b.A.S.D.A.S.S.A.",
"b.S.Z.d.d.f.f.Z.S.S.S.S.Z.q.Z.g.f.J.H.A.A.A.v.A.v.z.m.c.8.i.p o . & 0 T dXBXBXBXCXZXZX).0 @ & 6.A.v.v.S.b.I.pXK.L +   t ,XuXuXNXAXAXAX).w * s f.S.Z.D.Z.q.Z.S.b.",
"S.b.c.Z.y.g.g.Z.A.S.S.S.m.8.0.5.N.P.G.v.v.b.v.A.v.l.s.g.y.i.p = T )._.).dXMXBXBXBXCXBX).T K J P i.6.7.7.7.7.7.i.E D v G :X9X<XhXZXZXZX[.o.R R N.f.i.u.i.d.m.A.b.",
"S.S.A.m.g.v.v.A.S.b.S.S.z.d.9.g.m.M.A.S.S.F.B.N.l.8.4.5.j e = 0 ).ZXCXBXMXMXMXjXtX9X<X=X9XeX.X` 7 7 7 7 7 7 7 7 T ' ( ( <.W.#.5XyXqXgXjXMXnXdX).p 7 7 I g.z.A.S.",
"v.b.S.A.v.S.v.S.S.S.S.S.A.m.Z.Z.F.A.A.A.F.B.U = = 7 @ @ $ = = q _.AXZXZXMXBXBXkX6X&X<.5XyXwX4X` . X X X X X X + u ( ( ( <.Q.>.5XfXfXdXMXBXBXMX Xw # 8 I m.v.v.S.",
"S.F.F.v.v.b.b.S.S.J.H.S.b.b.S.D.S.b.v.v.A.C.F X o o . . o : , 0 _.ZXBXBXkXMXkXgX.XXX>..XwXwX%X..S D F F F Y Y Y R W.<.| #.,.|  X0X0XrXMXBXMXMX2XT , < I A.A.v.A.",
"J.J.b.v.v.b.v.S.S.J.J.b.S.b.S.A.v.m.9.8.f.i.a 5 t ` ' ..) 0 $ q _.jXjXfXqXqXwX{.! ~ i #.{.W.W. X,X1XsX1X3X3X3X3X3XrXuX XJ ! J K ..] *XMXZXMXMXjX).n @ a Z.A.b.c.",
"F.J.v.v.v.b.b.S.S.A.S.S.S.S.b.S.z.7.a p p S K _ ' W.@X@XE.n @ 0 ).qXyX9X@XOXXX( r r r W / / [ eXNXNXNXNXCXNXNXCXCXNXNX:XJ N y 6 3 4 /.dXgXjXmXjX XZ : p g.A.Z.s.",
"v.v.v.b.v.F.v.S.S.A.S.S.S.S.S.Z.8.t.7   + D R.#.>.<.XXXX<.n : 0 /.fXqXqXOXXX!.( W i i _ _ _ +.2XNXNXNXNXCXNXNXNXNXNXnX<XJ i i t 6 4 ~ }.4XrXhXhX:XD $ p s.g.q.d.",
"A.c.v.Z.q.A.b.S.S.S.S.S.Z.A.A.m.N.P w 7 0 R (.(.W.}.@X.X$.c ; 0 (.gXqXqX}.1.:.( Q W W 2.E.+.#.eXnXnXNXNXNXNXNXNXNXnXmX<X..~ ` m t r N ] }.4X9XqX XG # p N.5.f.g.",
"g.g.Z.s.0.Z.v.b.A.Z.A.Z.h.Z.f.p.k.k.V.O.O.[.DXSXSXVXyXtX|.n : 6 ' <.<.1.^ i i W Q Q / wXnXhXcXnXnXNXnXNXNXNXNXNXnXNXNXnXrXrXrX/.i N i r u J ` ` H 0 : s g.9.m.A.",
"Z.d.0.5.m.A.I.H.Z.f.m.8.q.m.s 2 8 '.0X=X5XbXHXHXHXGXBXbX_.S : 6 { -.;.:./ i r W Q Q ( hXMXMXMXMXNXNXNXNXNXNXNXNXNXmXmXmXnXNXnX,XN W i 4 + + + X O % , A A.A.A.A.",
"Z.d.0.g.M.U.zXiXK.f.8.5.0.7.s @ o ).=X=X=XVXJXHXHXGXCXnX Xq @ q { -.-.;.^ i i W Q Q ] dXBXNXNXBXNXNXNXNXNXNXNXNXNXNXNXmXMXnXnX<XB W B 4 + & & $ O $ > L A.D.A.S.",
"A.m.v.v.D.pXxXlXK.d.g.Z.4.e 7 0 V [.dXrXrXVXJXHXHXFXBXmX Xx - t { | &.( ( ^ ~ ] $.#.$.rX1X,X].,X,X1X1X,X1X[.,XrXmXmXmXMXNXmXNXuX(. X(.D 5 * w j j j P i.A.F.S.S.",
"v.b.b.S.S.D.pXL.D.Z.8.4.s 0 w v T vXGXFXDXGXJXHXHXAXbXjX_.z - v { | &.{ >.<.<.=XuXuXrXeXR n c n Z S S S F F Y 3XnXNXmXmXmXmXnXnXbXbXrXE 1 1 f N.M.M.M.A.A.F.S.S.",
"b.b.S.A.S.H.I.H.A.c.4.% % q M M T vXJXJXHXHXHXHXJXAXcXuX_.5 , v [ { &.{ 1.}.}.=XmXhXnXrXH % @ o - ; ; k ; k C vXmXmXmXmXmXmXnXnXNXNXbXE , , s h.S.S.F.A.F.P.F.S.",
"c.S.G.D.D.U.zXiXG.c.4.X - M T G T vXGXJXHXHXHXHXJXFXcXuX(.H T J ( { { %.,.1.1.=XnXnXhXrXO.H M x 2 ; ; 2 9 C E dXmXNXmXmXmXmXmXmXnXbXbXo.1 2 f N.G.G.A.F.b.F.S.S.",
"h.L.iXU.H.pXxXzXL.K.j X 1 k.].]._.VXGXJXHXHXHXHXHXAXcXuXtXeXrX5X&.( { { ;.,.<.=XnXhXnXfXeX<X].^.E c ; @ S `.vXMXnXmXmXMXmXmXjXrX].].].T 2 < a f.p.f.h.N.A.A.A.S.",
"G.Y.xXlXL.D.pXI.L.Y.I X 7 _.SXAXCXFXHXJXHXJXHXHXJXAXuXuXhXhXhXrX;.&.{ &.;.,.1.%XhXhXfXrXeX1XcXSXSX[.F 2 C ^.1XdXmXmXmXjXjXmXjX_.: - o ; : : 2 9 9 0 I N.A.S.S.S.",
"H.Y.lXpXH.A.Z.A.U.aXU   * `.FXAXCXFXJXJXHXHXHXHXJXAXcXuXuXfXyXqXOX.X@X%X%X%X=XqXhXuXcX].E E [.DXJXDX`.l l ; E dXmXmXmXmXmXjXjX<Xx - o o o o o o o - U D.S.S.S.S.",
"S.S.L.N.A.Z.d.g.K.'.A X * ).CXCXCXFXGXHXHXHXHXHXJXCXnXuXfXfXyXyXqXfXfXqXfXyXyXfXuXdXrXT.l k ~.DXJXJX[.l 9 k I rXmXkXjXmXjXmXgXrXR . o o o o o o o - u.Z.b.S.S.S.",
"S.S.A.s.g.d.d.A.A.n.a O * ).NXNXNXnXBXCXZXGXHXHXHXBXhXhXfXyXfXyXgXgXqXfXfXfXfXfXhXuXhXo.l k ~.DXJXJX[.l 8 2 Y rXmXjXjXgXdXdXrX0XO.. o o o . o o o o u.M.A.b.S.S.",
"S.b.Z.Z.5.h.h.Z.A.f.a . * ^.nXmXnXmXmXmXjXMXAXGXGXmXfXfXfXfXfXfXgXqXfXyXfXfXfXfXfXfXuXo.l k ~.SXDXDX`.l 9 2 I rXmXjXyX/.H H H Z q o o o o o o o . o u.D.Z.A.S.b.",
"S.v.c.h.p.h.f.N.n.p.p @ , T.nXnXmXhXjXjXjXjXNXBXBXhXyXfXhXfXfXyXfXfXfXfXfXfXfXfXfXjXhXX.l k c E ~.`.V k 9 8 Z 0XgXhX0X... o o o . o .   . o o o o o u.m.9.Z.b.S.",
"v.b.A.p.V V V V V c 1 - 1 T.bXjXhXmXjXjXjXjXhXmXjXhXfXfXhXfXfXyXqXfXqXgXfXfXfXhXuXuXbXX.l l 2 ; 8 ; 9 8 > % S <XfXfX5X..t t u n u t q w 6 q q 3 o & I i.9.M.b.b.",
"b.v.m.j = # o o o o - : 1 o.hXjXjXjXhXhXfXjXhXhXhXhXfXfXhXfXfXfXfXfXyXfXfXfXhXhXhXjXhXo.9 8 9 ; 8 9 2 2 7 F Y  X5X9X6X.X X X*X X*X X'. X X X_.$.' J Z I q.z.v.v.",
"A.b.n.e + & D T R R c @ 1 o.hXjXjXjXjXhXjXhXfXjXfXfXfXfXfXfXfXfXfXyXfXfXyXfXhXhXhXhXhX_.^.Y k 2 9 > > 9 E sX1X$.@.@.=XfXfXhXkXkXkXkXgXgXgXgXgX6XoX] t A n.A.A.b.",
"v.b.n.0 + 5 :XeXeX:XD # 1 X.dXhXhXjXfXhXfXhXhXhXfXfXfXfXyXfXfXfXyXfXfXyXfXfXhXhXhXjXhXuXeX^.; 9 8 9 > e `.AXbX+.^ ( %XgXgXgXkXkXkXkXgXkXkXgXfXwX+X' 6 a N.A.v.b.",
"b.b.9.7 O 0 <XuXtX:XD o , O.uXhXhXjXhXhXjXfXhXhXfXfXfXfXfXfXfXfXfXyXyXfXfXfXhXhXuXnXhXcXuX_.c c c c n A '.VX<X' ! ] .XyX0XfX*X*X2XgXgXgX0XdXeX>X+X' 0 V N.A.v.b.",
"F.v.l.3   w eXuXtX:XG @ 3 O.yXjXhXnXhXhXhXhXhXhXfXfXfXfXfXfXfXuXyXfXyXfXfXhXhXhXhXhXhXhXfX2X X_. X_.,X*X2X5X{.J N ' %XyXtX Xm 4 ..tXqX<XJ n X.>X>X' 6 w M.b.v.v.",
"v.v.9.7   w <XyXtX XD X 1 R.yXfXfXuXhXuXhXhXhXhXhXfXhXfXfXfXfXyXfXyXfXfXfXfXhXhXhXhXhXhXyXgXfXfXgXgXfXyXqX9X/.B m ' 5XyXyX.Xf 3 ..tXyX<XD 3 ` >X>X' 6 f M.A.b.b.",
"v.v.l.7   n eXtXtX.XD % 5 /.rXfXhXhXhXhXhXhXhXfXhXhXhXfXhXfXfXfXfXfXfXfXfXfXqX7X8X8X8X8XqXqXqXgXgXhXfXfXfX9X/.D n ' 6XyXqX*Xy 4 ..yXtX<XG 5 ' >X+X] 5 A A.A.A.b.",
"v.b.9.*   Z <XeX8X|.m 1 0 /.rXfXuXhXhXhXhXhXhXhXfXhXhXhXjXfXfXfXfXfXfXfXfXfX;XXXOXOXOX#XOX-XOXqXhXhXhXfXfXqX$.M n ` 5XqXfX|.u 3 O.tXtX5XG 5 X.>X>X' 5 f Z.A.b.v.",
"b.b.n.V 7 q K ` ~ J q 1 5 /.tX8XqXqXyXyXyXhXjXhXhXjXhXfXjXhXhXfXfXhXfXfXfXyXOXXXXXOXOXOXOXOXOX-XhXhXhXuXfX0XO.5 3 K =X8XqX|.~ K $.tXtX5XR.' R.>X+XR.5 c m.v.b.v.",
"S.F.b.f.A 1 1 * * 3 7 3 5 +.Q.!.}.+X#X+X8XjXjXhXhXfXhXjXhXfXjXfXhXfXhXgXfXqXOXXXXXXXOXOXOXOXOX;XjXjXhXhXhX0X .O * K }.-X7X6X5X9X9XtXtXwXeX8X7X>X+X[ 5 V N.A.S.S.",
"S.S.S.n.L e w 7 7 7 0 1 6 ] Q.Q.!.#X&X&XwXhXjXjXjXjXjXjXjXjXjXgXjXhXhXhXgXqXOXOXOXOXOXOXOXOXOX;XuXnXnXuXhXrX .+ * K }.;X-X8XqXqXwXwXwXtX8XwX8X>X+X+.q c N.A.b.v.",
"S.S.S.A.h.p.7.7.6.4.a & 5 ] Q.Q.XX#X;X;X8XjXjXhXjXgXjXjXjXjXjXfXgXgXgXfXfXyX;X;X;X;X;X7XqX7XqXgXhXhXhXfXgX0Xo.@ 3 ` }.;X-X7X8X8X9X9X9X9XwX9X5X}.W.) 0 V N.S.S.b.",
"v.A.b.S.S.b.F.S.b.N.h O 3 _ 2.2.3.!.XXXX+X8X8X8X8X8X8XwX8XwXwXyXfXfXfXfXfXfXfXfXfXfXfXfXfXkXmXMXjXhXhXfXhXrX .X 7 G +.$.E.W./.E.R.R.R./.{.{.{.H q 3 7 u.A.A.S.D.",
"z.v.S.b.b.F.J.J.S.N.g O * / 1.2.,.3.3.3.!.+X&X&X;X&X&X&X&X7XwXtXfXfXfXfXfXfXfXfXfXgXfXfXhXkXMXMXjXhXhXfXfX0XX.. % 1 5 q q n v x x x x J ! ! ) z X $ 7 n.z.A.D.S.",
"z.v.S.S.S.S.J.H.F.n.g   * ' 2.2.3.,.,.,.3.OX;X&X;X;X;X4X4X8XtXtXfXfXfXgXgXfXfXfXfXfXfXgXhXmXCXCXmXuXuXuXuXeXR @ $ $ : : > > > 2 k k l M B J G q & . 7 f.z.A.S.A.",
"A.b.S.S.S.S.S.S.G.n.s O * ' 1.1.,.,.3.3.3.+X;X&X;X4X4X7X7X8XwXtXqXfXfXyXfXfXfXfXfXfXhXhXjXZXGXGXNXnXuXuXuX2XR , : & % : > > % < 5 z x M M M D I P A f n.D.A.S.b.",
"b.S.S.b.F.v.A.A.v.l.f   O ~ 1.,.,.>.:.-.,.!.+X+X+X+X+X+X#X&X;X;X-X8X8X8XwXyXwXyXfXyXfXfXjXFXJXJXAXjXuXuXuXrX,XD = : $ $ $ : % x X.X._ ] ' ) u 6.b.F.A.F.A.A.S.S.",
"S.S.b.b.v.D.D.G.v.q.s X O J 1.1.,.;.:.,.,.,.-.,.,.!.!.!.!.XX+XXX&X;X-X-X8XwXqXqXyXyXyXfXjXFXJXJXFXbXuXuXuXfXuXX., : % : % $ $ Z (.E.R.R.#.+.m i.b.F.A.G.A.A.b.A.",
"b.S.S.A.A.A.m.M.z.9.e . . B <.2.1.;.-.,.:.-.:.-.,.!.!.!.!.XX+X+X#X&X;X;X8XwXwXwXtXyXyXfXjXGXJXHXFXnXuXuXuXuXuXo., o . o . . . Z  XE.$.E.E.+.Z p.A.G.S.A.A.A.v.A.",
"b.v.S.D.n.p.u.u.u. ./.(.). X.X4X4X<.;.:.-.-.*.*.:.,.,.,.,.2.!.!.Q.XXXXoX&X7X7X7XwXwXwXtXuXCXFXFXCXuXtXtXyXyXyX(.O.O.o.o.o.o.o.o.(.R.' ~ K J p.f.M.S.A.M.v.q.f.c.",
"v.b.A.h.g e 0 v W $.bXnXbXbXyXuXcXQ.W.*.%.} | } } *.*.*.=.>.>.>.>.,.,.,.}.+X+X#X>X&X&X7X8XyXyXuXyXtXwXwXwXwX8X6X5X5X5X5X2X5X5X XW.W.J , , q n.S.A.A.g.d.g.5.g.A.",
"b.A.b.p.0 . = b ^ <.nXMXnXnXuXyXcX|.=.%.%.} | } | | } *.*.*.*.*.*.*.*.>.Q.+XXXXX#X#X#X4X8X8XwXwXtXwXwXwXwXwX8X8XwXwX8XqXqXqXqX.XR.W.) , - w a.F.b.v.A.s.g.8.z.v.",
"v.v.S.9.0   = J ;.}.mXnXnXnXyX8XeX!.| =.%.} } } | | } *.*.*.*.*.*.*.*.*.Q.XXXXXX#X#X&X4X8X8XtXtXwXwXqXwX8X8X8X8XwX9X8XqX8XqXqX|.#.E.` e e a a.A.S.D.L.f.m.Z.c.S.",
"r.r.x.9.p X 3 O.XXOXyXhXyXuX8X%X+XW.} } %._ ! ! _ [ } } *.| | &.| } } | Q.XX!.}.4X7X8X%X$X>X%X%X%X$X@X@X@XoX+XXXXXoXoXoXoX}.|.+.! ) k.j.n.B.M.F.H.Y.lXI.A.v.b.b.",
"e.e.e.9.a   3 R.OXOXqXqXwX8XOXXX!.Q.&.=.=.! & , 4 _ { &.} } } } { { [ ( >.Q.2.$XyXfXfX|.%.| | %.&.&.&.&.&.&.&.&.&.&.=.=.{ [ | b . . u.I.G.A.A.c.H.zXxXiXL.v.v.v.",
"e.w.e.9.s . * +.XXOXqXqX8X8X&XXX!.Q.=.*.#.) - & 5 [ { } &.{ &.{ { { ( ( | ,.1.$XfXhXfX{.| { &.%.&.&.&.&.&.&.&.-.=.=.=.=.} } | b + - k.sXU.F.A.z.c.I.pXL.A.b.v.v.",
"e.e.e.q.s   3 ..OX;XtXqXwX8X&XW.] ) B B N v & & 6 _ { { { { { [ / / ^ ^ | 1.2.$XhXfXgX{.%.%.%.{ | | } } } } } [ { { [ [ _ _ ) v + - k.aXU.F.S.S.S.S.D.D.b.v.b.b.",
"c.q.z.q.s + O u ] #.V.@.+...K N x x 2 2 , , & , 3 m N N b b y v t v q q ] ,.2.%XhXgXfX@X1.}.@.t t y y y y t t t r v r v v b b x & o j C.D.S.S.c.A.S.S.S.A.S.A.v.",
"v.f.z.n.g 7 % & 3 5 5 5 5 5 5 1 z c V a V S e , : , & & & = = = > = > % ..1.2.%XuXfXyX=X$X@X@.X + @ + @ - - + & % % : 5 v v v v - - h z.z.A.z.8.g.S.H.D.A.S.A.b.",
"v.9.z.z.9.t.e $ & - - , - - , V a.pXpXC.B.C.U z e 9 $ % & % % > % > % # ' ,.Q.%XuXuXyX-X%X@X@.X @ X @ X - @ @ - @ % : 6 b b b v , - j l.9.d.9.f.Z.U.iXL.Z.A.S.S.",
"x.q.x.b.z.n.f a a f g I I U k.a.I.lXlXU.D.m.f.i.p.P = + $ : : % % > > # ' 1.Q.$XfXhXyX4X$X@X..  $ p f f f p & & 6 t 6 y N B W N - . h l.Z.5.0.g.A.aXzXiXN.A.S.S.",
"w.w.w.x.b.m.9.f.f.h.B.B.C.zXzXU.S.I.C.D.h.g.A.b.H.j.7 % % % % % % > > # ' 1.Q.#XhXyXyX-X$X.X` X 1 i.n.n.n.P = * i ! i W Q [ Q W O - A n.Z.f.c.v.D.iXzXY.D.S.S.S.",
"w.w.x.c.F.b.S.b.S.I.lXiXI.pXiXL.A.n.f.Z.y.m.v.D.Y.'.7 $ % % % % + % > # ' 1.2.&XuXyXyX=X@X}.K X 1 n.S.S.D.i.1 * B ^ ^ ( &.&.{ ! - X f n.D.A.b.S.G.H.L.D.S.S.S.S.",
"w.w.w.z.b.J.J.F.D.iXxXzXL.A.D.v.A.M.i.h.y.Z.v.L.zX'.7 % % % % % % % % # ' 1.2.#XuXuXtX-X@X}.K @ 1 n.A.b.D.u.9 3 W / ( ( &.&.&.B O X s z.b.z.A.A.L.S.A.A.S.S.b.S.",
"w.x.c.z.S.J.J.b.S.K.pXI.F.b.v.v.D.B.h.m.Z.c.A.A.U.C.7 @ % % @ % % % # @ ~ ,.2.@XyXyXwX-XoX}.K @ < f.A.A.Z.u.9 * ~ Q / ( &.-.-.B . o s q.S.z.D.L.aXU.F.v.S.S.S.S.",
"e.l.n.A.S.S.S.b.S.A.A.A.A.c.z.v.L.iXpXL.A.Z.g.m.m.i.7 % + % + % @ % # @ ~ ;.;.<..X.X.X}.|.E.H @ < u.q.q.f.P 2 3 W Q ^ / { ;.| y o o s n.A.D.L.iXxXzXL.b.S.b.b.S.",
"r.N.N.b.v.F.A.A.A.Z.A.F.S.v.M.f.B.'.C.a.6.6.4.j h a = @ % % % % % @ % @ q y y u u m m m Z m q @ % = 7 1 9 % % % q t q t b m m 3 $ X e i.f.p.f.L.lXY.D.v.v.v.S.S.",
"x.h.Z.b.v.v.m.c.Z.d.0.v.S.b.m.S z 0 5 % % @ @ @ % @ % % % % % % % % @ $ @ X o o X X @ . X o @ $ @ % # # % # % % # # # # - o o o o - @ , , , a n.B.D.b.v.v.v.v.v.",
"z.n.N.A.v.v.h.7.g.8.Z.A.b.S.m.S l < > % % @ + + % + + @ % % % + @ @ @ @ @ o o # @ @ @ @ @ @ $ @ $ @ @ % % % % % > # # ; - # - o o o . X . o s n.A.A.v.v.g.m.S.b.",
"z.n.n.z.v.v.Z.5.g.g.Z.A.A.v.Z.f.p.u.P t.g P u.4.4.u.4.4.t.4.4.t.t.u.u.u.P t.P P t.u.P u.u.4.j h g L L L P 4.j g h d j P 4.u.t.u.u.t.u.u.t.u.i.m.A.d.c.d.d.v.A.A.",
"z.l.z.x.x.b.z.l.A.A.D.b.v.b.S.A.A.g.s.g.5.l.M.Z.M.A.M.v.v.A.v.M.A.A.Z.Z.g.i.d.f.n.v.Z.v.Z.v.Z.v.A.A.Z.A.D.M.l.7.g.0.z.Z.Z.P.G.v.A.A.Z.v.Z.A.A.A.A.g.s.8.g.z.D.A.",
"x.x.w.w.x.b.v.F.A.D.S.S.S.b.v.v.A.m.9.g.z.z.A.A.S.b.b.A.v.b.b.b.S.S.v.m.h.d.z.z.D.v.v.v.v.z.b.v.S.b.S.A.A.v.A.m.c.v.b.A.S.S.v.A.A.A.v.z.z.A.b.b.v.g.d.m.m.Z.A.A.",
"x.x.w.w.x.x.b.v.D.A.b.S.S.S.A.A.v.A.c.Z.A.A.S.S.b.b.S.z.A.S.S.S.S.b.A.D.Z.Z.v.v.b.v.v.v.v.z.v.b.A.S.G.v.v.S.J.J.D.b.b.b.S.A.S.A.D.v.S.v.b.b.b.b.A.c.M.A.A.S.A.b.",
"b.x.w.w.x.b.v.F.v.v.S.S.S.v.z.c.v.v.b.A.A.G.A.b.b.A.b.z.v.b.S.S.b.v.S.S.A.S.v.b.A.v.v.v.b.A.v.A.H.D.v.v.S.S.J.J.b.b.v.v.v.S.G.A.v.A.S.v.F.b.b.F.b.b.A.A.F.A.b.v."
};
