/* XPM */
static char *xpm_[] = {
/* columns rows colors chars-per-pixel */
"64 64 9 1 ",
"  c black",
". c #252121",
"X c #4E4040",
"o c #65594F",
"O c #695D53",
"+ c #6D6157",
"@ c #847777",
"# c #B0A8A8",
"$ c None",
/* pixels */
"$$$$$$$$$$$$$$$$$$$$$$$$$$$$$$$$$$$$$$$$$$$$$$$$$$$$$$$$$$$$$$$$",
"$$$$$$$$$$$$$$$$$$$$$$$$$$$$$$$$$$$$$$$$$$$$$$$$$$$$$$$$$$$$$$$$",
"$$$$$$$$$$$$$$$$$$$$$$$$$$$$$$$$$$$$$$$$$$$$$$$$$$$$$$$$$$$$$$$$",
"$$$$$$$$$$$$$$$$$$$$$$$$$$$$$$$$$$$$$$$$$$$$$$$$$$$$$$$$$$$$$$$$",
"$$$$$$$$$$$$$$$$$$$$$$$$$$$$$$$$$$$$$$$$$$$$$$$$$$$$$$$$$$$$$$$$",
"$$$$$$$$$$$$$$$$$$$$$$$$$$$$$$$$$$$$$$$$$$$$$$$$$$$$$$$$$$$$$$$$",
"$$$$$$$$$$$$$$$$$$$$$$$$$$$$$$$$$$$$$$$$$$$$$$$$$$$$$$$$$$$$$$$$",
"$$$$$$$$$$$$$$$$$$$$$$$$$$$$$$$$$$$$$$$$$$$$$$$$$$$$$$$$$$$$$$$$",
"$$$$$$$$$$$$$$$$$$$$$$$$$$$$$$$$$$$$$$$$$$$$$$$$$$$$$$$$$$$$$$$$",
"$$$$$$$$$$$$$$$$$$$$$$$$$$$$$$$$$$$$$$$$$$$$$$$$$$$$$$$$$$$$$$$$",
"                                                                ",
"#######@#######@#######@#######@########@#######@######@#######@",
"#######@#######@#######@#######@########@#######@######@#######@",
"#######@#######@#######@#######@########@#######@######@#######@",
"@@@@@@@@@@@@@@@@@@@@@@@@@@@@@@@@@@@@@@@@@@@@@@@@@@@@@@@@@@@@@@@@",
"###@#######@#######@#######@#######@########@######@#######@####",
"###@#######@#######@#######@#######@########@######@#######@####",
"###@#######@#######@#######@#######@########@######@#######@####",
"XXXXXXXXXXXXXXXXXXXXXXXXXXXXXXXXXXXXXXXXXXXXXXXXXXXXXXXXXXXXXXXX",
"oooXoooooooXOOOOOOOXOOOOOOOXoo++oooXOOOOOOOOXOOOOOOXOOOOOOOXoooo",
"oooXoooooooXOO+OOOOXOOOOOOOXoooo+ooXOOOOOOOOXOOOOOOXOOOOOOOXoooo",
"oooXoo++++oXOOO+OOOXOOOOOOOXoooo+ooXOO++OOOOXOOOOOOXOOOOOOOXoooo",
"oooXoooooooXOOOOOOOXOOOOOOOXoooooooXOOOOOOOOXOOOOOOXOOOOOOOXoooo",
"XXXXXXXXXXXXXXXXXXXXXXXXXXXXXXXXXXXXXXXXXXXXXXXXXXXXXXXXXXXXXXXX",
"oooooooXOOOOOOOXOOOOOOOXOOOOOOOXOOOOOOOOXoooooooXooooooXoooooooo",
"ooo+oooXOOO+OOOXOOO++OOXOO+++OOXOO++OOOOXoooooooXooooooXoooooooo",
"ooo+oooXOOO+OOOXOOOOOOOXOOOOOOOXOOOO++OOXooo+oooXooooooXoooooooo",
"ooo+oooXOOOOOOOXOOOOOOOXOOOOOOOXOOOOOOOOXoooooooXooooooXoooooooo",
"XXXXXXXXXXXXXXXXXXXXXXXXXXXXXXXXXXXXXXXXXXXXXXXXXXXXXXXXXXXXXXXX",
"oooXOOOO+OOXOOOOOOOXoooooooXOOOOOOOXOOOOOOOOXOOOOOOXOOOOOOOXoooo",
"oooXOOOO+OOXOOO+OOOXoooooooXOOOOOOOXOOOOOOOOXOOOOOOXOOOOOOOXoooo",
"oooXOOOOOOOXOOOOOOOXoooooooXOOOOOOOXOOOOOOOOXOOOOOOXOOOOOOOXoooo",
"oooXOOOOOOOXOOOOOOOXoooooooXOOOOOOOXOOOOOOOOXOOOOOOXOOOOOOOXoooo",
"XXXXXXXXXXXXXXXXXXXXXXXXXXXXXXXXXXXXXXXXXXXXXXXXXXXXXXXXXXXXXXXX",
"OOOOOOOXoooooooXOOOOOOOXOOOOOOOXooooooooXOOOOOOOXooooooXOOOOOOOO",
"OOO+OOOXoooooooXOOOO+OOXOOOOOOOXooooooooXOO+++OOXooooooXOOOOOOOO",
"OO++OOOXoooooooXOOO++OOXOOOOOOOXoo++ooooXOOOOOOOXooooooXOOOOOOOO",
"OOOOOOOXoooooooXOOOOOOOXOOOOOOOXooooooooXOOOOOOOXooooooXOOOOOOOO",
"XXXXXXXXXXXXXXXXXXXXXXXXXXXXXXXXXXXXXXXXXXXXXXXXXXXXXXXXXXXXXXXX",
"oooXOOOOOOOXoooooooXoooo+ooXOOOOOOOXOOOOOOOOXOOOO+OXOOOOOOOXoooo",
"oooXOOOOOOOXoooooooXooo+oooXOOOOOOOXOOOOO+OOXOOOOOOXOOOOOOOXoooo",
"oooXOOO+OOOXoooooooXooo+oooXOOOOOOOXOOOOOOOOXOOOOOOXOOOOOOOXoooo",
"oooXOOOOOOOXoooooooXooooooOXOOOOOOOXOOOOOOOOXOOOOOOXOOOOOOOXoooo",
"XXXXXXXXXXXXXXXXXXXXXXXXXXXXXXXXXXXXXXXXXXXXXXXXXXXXXXXXXXXXXXXX",
"OOOOOOOXOOOOOOOXOOOOOOOXOOOOOOOXOOOOOOOOXOOOOOOOXOOOOOOXOOOOOOOO",
"OOOOOOOXOOOOOOOXOOOOOOOXOOOOOOOXOOO+OOOOXOOOOOOOXOOOOOOXOOOOOOOO",
"OOOOOOOXOOOOOOOXOOOOOOOXOOOOOOOXOOO+++OOXOOOOOOOXOOOOOOXOOOOOOOO",
"OOOOOOOXOOOOOOOXOOOOOOOXOOOOOOOXOOOOOOOOXOOOOOOOXOOOOOOXOOOOOOOO",
"XXXXXXXXXXXXXXXXXXXXXXXXXXXXXXXXXXXXXXXXXXXXXXXXXXXXXXXXXXXXXXXX",
"oooXOOOOOOOXOOOOOOOXOOOOOOOXOOOOOOOXOOOOOOOOXooooooXOOOOOOOXOOOO",
"oooXOOO+OOOXOOOOOOOXOOOOOOOXOOO++OOXOO++++OOXooooooXOOOOOOOXOOOO",
"oooXOOOOOOOXOOOOOOOXOOOOOOOXOO++OOOXOOOOOOOOXooooooXOOOOOOOXOOOO",
"oooXOOOOOOOXOOOOOOOXOOOOOOOXOOOOOOOXOOOOOOOOXooooooXOOOOOOOXOOOO",
"XXXXXXXXXXXXXXXXXXXXXXXXXXXXXXXXXXXXXXXXXXXXXXXXXXXXXXXXXXXXXXXX",
"oooooooXOOOOOOOXOOOOOOOXoooooooXooooooooXOOO+OOOXOOOOOOXoooooooo",
"ooo++ooXOO++OOOXOO+OOOOXooo++ooXoooo++ooXOOO++OOXOOOOOOXoooooooo",
"oooooooXOO+O+OOXOO+OOOOXoo++oooXooooooooXOOOO+OOXOOOOOOXoooooooo",
"oooooooXOOOOOOOXOOO++OOXoo++oooXooooooooXOOOOOOOXOOOOOOXoooooooo",
"XXXXXXXXXXXXXXXXXXXXXXXXXXXXXXXXXXXXXXXXXXXXXXXXXXXXXXXXXXXXXXXX",
"oooooooooooXOOOOOOOXooooooooXOOOOOOXOOOOOOOOXOOOOOOXoooooooXOOOO",
"ooooo+oooooXOOOOOOOXooo+++ooXOOO+OOXOOO++OOOXO++OOOXoooooooXOOOO",
"oooooo+ooooXOOOOOOOXoo++ooooXOO+OOOXOOOOOOOOXOOOOOOXoooooooXOOOO",
"oooooooooooXOOOOOOOXooooooooXOO+OOOXOOOOOOOOXOOOOOOXoooooooXOOOO",
"................................................................"
};
