/* XPM */
static char *xpm_[] = {
/* columns rows colors chars-per-pixel */
"64 64 185 2 ",
"   c #7D4F2B",
".  c #7E512C",
"X  c #7C5636",
"o  c #7E5C3F",
"O  c #7E5C40",
"+  c #735A44",
"@  c #7F6146",
"#  c #6E6458",
"$  c #756759",
"%  c #666A69",
"&  c #696A65",
"*  c #796F63",
"=  c #6D7374",
"-  c #63737A",
";  c #6C7476",
":  c #727679",
">  c #747A7A",
",  c #7A7E7F",
"<  c #767A76",
"1  c #82542C",
"2  c #825632",
"3  c #825935",
"4  c #895C36",
"5  c #845C3B",
"6  c #885C39",
"7  c #99662D",
"8  c #8E6337",
"9  c #85623E",
"0  c #8B623E",
"q  c #9A6E3D",
"w  c #936735",
"e  c #9C713E",
"r  c #A27534",
"t  c #AA7332",
"y  c #B37A33",
"u  c #815E41",
"i  c #856143",
"p  c #8B6546",
"a  c #8E6845",
"s  c #836449",
"d  c #8D6749",
"f  c #8F6849",
"g  c #926B46",
"h  c #936A4A",
"j  c #946B47",
"k  c #9D7340",
"l  c #997249",
"z  c #977248",
"x  c #8D6D53",
"c  c #936F52",
"v  c #A57643",
"b  c #AA7B46",
"n  c #A67C4A",
"m  c #AB7B49",
"M  c #7E837E",
"N  c #A5823D",
"B  c #A9833E",
"V  c #BA853D",
"C  c #BF893F",
"Z  c #B98538",
"A  c #C28A3F",
"S  c #C28932",
"D  c #D5A93E",
"F  c #EEAC3D",
"G  c #F2AE3A",
"H  c #F3AE37",
"J  c #EFB83A",
"K  c #F5B539",
"L  c #F5B537",
"P  c #ECC33B",
"I  c #E6C03B",
"U  c #F5CB3A",
"Y  c #F8CC38",
"T  c #FBD23C",
"R  c #AE8742",
"E  c #B38B45",
"W  c #B88A47",
"Q  c #848578",
"!  c #949273",
"~  c #989574",
"^  c #C28A40",
"/  c #C7A35A",
"(  c #DAB75B",
")  c #EECB4B",
"_  c #FCD850",
"`  c #DEC173",
"'  c #FBDC67",
"]  c #51758D",
"[  c #5B7B8E",
"{  c #55798F",
"}  c #557991",
"|  c #5B7E96",
" . c #597B95",
".. c #697E8B",
"X. c #677983",
"o. c #787D81",
"O. c #5E829B",
"+. c #5C8096",
"@. c #6C828D",
"#. c #7C8286",
"$. c #7F8488",
"%. c #758086",
"&. c #62859D",
"*. c #65899E",
"=. c #6C8A9D",
"-. c #698392",
";. c #728592",
":. c #7A8A96",
">. c #778A95",
",. c #6286A0",
"<. c #678BA4",
"1. c #6B8DA4",
"2. c #6C8FA9",
"3. c #678FA9",
"4. c #6E91A7",
"5. c #6D92AC",
"6. c #7B91A3",
"7. c #7395AD",
"8. c #7997AE",
"9. c #7999AF",
"0. c #7495AB",
"q. c #6E96B1",
"w. c #7396B1",
"e. c #739AB4",
"r. c #7B9BB2",
"t. c #759DB9",
"y. c #7A9DB9",
"u. c #7CA1BD",
"i. c #7EA5C3",
"p. c #7EA8C4",
"a. c #82868B",
"s. c #83898C",
"d. c #8A8E80",
"f. c #8F9589",
"g. c #A5AA84",
"h. c #AAAC84",
"j. c #829FB4",
"k. c #81A2BD",
"l. c #89A6BD",
"z. c #8AA8BE",
"x. c #85A3B4",
"c. c #90A9BF",
"v. c #EBD182",
"b. c #FAE596",
"n. c #82A6C2",
"m. c #83A9C6",
"M. c #8BAAC4",
"N. c #85ABC9",
"B. c #8AAECB",
"V. c #88A7C3",
"C. c #90ADC3",
"Z. c #90AFCC",
"A. c #8CB1CE",
"S. c #87B0CC",
"D. c #91B2CE",
"F. c #94B0C6",
"G. c #8EB2D1",
"H. c #91B4D2",
"J. c #92B5D1",
"K. c #95B5D2",
"L. c #93B6D4",
"P. c #94B7D5",
"I. c #94B5D4",
"U. c #93B5D3",
"Y. c #98B6D5",
"T. c #97B8D7",
"R. c #95B9D6",
"E. c #96B8D7",
"W. c #9AB9D7",
"Q. c #9AB9D7",
"!. c #98B9D8",
"~. c #99BAD9",
"^. c #9ABBDA",
"/. c #9ABAD9",
"(. c #9CBBDA",
"). c #9BBCDB",
"_. c #9ABDD9",
"`. c #9DBDDA",
"'. c #9EBDDC",
"]. c #9FBCDC",
"[. c #9DBDDD",
"{. c #9BBBDA",
"}. c #97B8D9",
"|. c None",
" X c black",
/* pixels */
"|.|.|.|.|.|.|.|.|.|.|.|.|.|.|.|.|.|.|.|.|.x.D.).]._.).[.[.(.K.y.y.).(.J.].`.].W.}.Z.k. X X X|.|.|.|.|.|.|.|.|.|.|.|.|.|.|.|.|.|.",
"|.|.|.|.|.|.|.|.|.|.|.|.|.|.|.|.|.|.|.|.C.Z.`.).`.B.).`.[.[.P.r.y.(.(.!.J.`.).).}.].B.z. X X|.|.|.|.|.|.|.|.|.|.|.|.|.|.|.|.|.|.",
"|.|.|.|.|.|.|.|.|.|.|.|.|.|.|.|.|.|.|.c.Z.!.L.!.`.R.).A.!.P.T.y.y.B.(.).R.`.`.).].D.[.B.c.|.|.|.|.|.|.|.|.|.|.|.|.|.|.|.|.|.|.|.",
"|.|.|.|.|.|.|.|.|.|.|.|.|.|.|.|.|.9.5.y.V.V.n.n.P.`._.A.H.i.B.y.y.P.[.).).).A.J.n.n.n.V.y.2.0.|.|.|.|.|.|.|.|.|.|.|.|.|.|.|.|.|.",
"|.|.|.|.|.|.|.|.|.|.|.|.|.|.|.r.M.2.} } } } } { u.[.(.!.!.T.P.y.t.B.!.}.P.(.A.u.{ } { } } } | z.9.|.|.|.|.|.|.|.|.|.|.|.|.|.|.|.",
"|.|.|.|.|.|.|.|.|.|.|.|.|.|.z.J.).n.B.Z.Z.Z.B.7.| (.!.P.N.H.A.t.5.B.G.).R.m.T.+.w.Z.Z.Z.Z.B.i.!.D.l.|.|.|.|.|.|.|.|.|.|.|.|.|.|.",
"|.|.|.|.|.|.|.|.|.|.|.|.|.C.D.N.G.L.J.G.!.].G.B.,.y.).B.m.B.B.w.5.N.G.G.B.i.r.,.B.A.).!.A.J.L.G.N.A.M.|.|.|.|.|.|.|.|.|.|.|.|.|.",
"|.|.|.|.|.|.|.|.|.|.|.|.0.J.W.J.}.B.p.J.P.`.!.].w.&.I.B.H.n.i.e.e.N.n.H.N.H.O.w.].W.).L.H.m.B.W.J.}.J.8.|.|.|.|.|.|.|.|.|.|.|.|.",
"|.|.|.|.|.|.|.|.|.|.|.8.H.J.A.J.H.B.!.(.!.B.(.].K. .,.B.B.D.B.2.5.B.V.N.P.<. .K.[.[.N.T.(.}.A.H.J.B.J.H.w.|.|.|.|.|.|.|.|.|.|.|.",
"|.|.|.|.|.|.|.|.|.|.<.] ] ] ] ] w.H.L.).N.G.B.(.K.[ X...:.;.;...X.;.:.@.>.- [ D.(.A.G.B.!.D.A.w.] ] ] ] ] ,.|.|.|.|.|.|.|.|.|.|.",
"|.|.|.|.|.|.|.|.|.e.G.n.n.V.n.V. .k.I.B.N.G.}.T.=.x x c c O p c h x f @ h 3 + =.!.!.H.n.N.P.k. .l.n.V.n.n.H.w.|.|.|.|.|.|.|.|.|.",
"|.|.|.|.|.|.|.|.|.V.!.G.!.).B.!.<.5.Y.H.A.).!.1.& d h h h u p h h h p O d j 2 # =.!.).A.H.K.5.<.).B.`.!.B.!.V.|.|.|.|.|.|.|.|.|.",
"|.|.|.|.|.|.|.|.F.G.p.G.A.).H.).N. .N./.n.l.6.* O d h h h u d h h h a O h h j 5 # 6.l.n.!.B. .B.).G.).A.G.p.H.M.|.|.|.|.|.|.|.|.",
"|.|.|.|.|.|.|.k.L.G.G.).L.G.`.).[.j. .V...x c h O d h h h u u h h h p o h h h g O 5 X ..V. .k.(.).).G.R.}.G.A.I.y.|.|.|.|.|.|.|.",
"|.|.|.|.|.|.7.G.B.G.L.).G.G.A.!.[.B.| X.x h h d u h h h h u p h h h a O h h h h O i p X -  .B.].).B.A.L.).L.A.B.D.5.|.|.|.|.|.|.",
"|.|.|.|.|.|.r.G.N.N.B.G.B.N.G.P.[.V.X.O h h h p u d h h c u u h h h f o h h h g O p h 0 2 = V.(.P.G.N.B.H.B.B.N.A.r.|.|.|.|.|.|.",
"|.|.|.|.|.|.r.N.B.N.n.A.N.B.p.D.B.> @ i c h h d 5 d h h h u p h h h u u j h h d u u h h u X & B.G.i.N.N.B.N.N.B.m.9.|.|.|.|.|.|.",
"|.|.|.|.|.|.9.B.B.H.N.N.A.B.m.N.:.c i i h h h d u d h h h u u h h h h u h h h h u d h h h 5 X o.B.N.B.G.N.N.H.B.B.7.|.|.|.|.|.|.",
"|.|.|.|.|.|.4.5.y.e.e.e.t.q.u.5.> f u u h h h d u d h h h u u h h h h u h h h j u u h h h 6   = 5.y.q.t.e.e.w.y.q.1.|.|.|.|.|.|.",
"|.|.|.|.|.|.4.*.&.,.&.,.*.&.&.&.: c i i h h h d 5 d h h h u p j j h u u j h h d u d h h h 6   % &.&.<.&.&.&.&.<.,.*.|.|.|.|.|.|.",
"|.|.|.|.|.|.r.).!.A.[.[.).!.!.H.a.c u i h h h h o d h h h u u h h h d u h h j h u u h h h 6 1 o.A.).).(.).`.B.!.).r.|.|.|.|.|.|.",
"|.|.|.|.|.|.x.).!.B.[.B.J.n.}.B.#.c u u h h h d u j h h h u p h h h p u h h h h u d h h h 6   : A.R.p.J.A.).B.).(.j.|.|.|.|.|.|.",
"|.|.|.|.|.|.j.(.!.G.).R.!.G.!.P.a.h u p h h j d u d h h h u p h h h d u h h h h u d h h h 6 1 o.J.!.G.R.P.).H.!.(.r.|.|.|.|.|.|.",
"|.|.|.|.|.|.j.(.H.A.!.!.P.L.A.H.#.c u u h h h h u h h h h u p h h h u u h h h h u d h h h 6   > J.A.L.P.).R.A.G.).r.|.|.|.|.|.|.",
"|.|.|.|.|.|.r.).P.N.A.G.N.B.N.L.a.c u u h h h f o h h h h u p h h h d u h d j h O p d h h 6 1 o.L.N.B.B.L.G.p.P.[.r.|.|.|.|.|.|.",
"|.|.|.|.|.|.r.D.m.S.m.B.N.N.B.N.a.h u i h h h h O f h h j u u h h h h u h h h h O p h h h 6   > m.B.N.N.A.m.S.m.G.r.|.|.|.|.|.|.",
"|.|.|.|.|.|.r.m.N.A.G.N.N.J.B.B.#.h u i h h h f O g h h d u p h h h d u h h h h 5 s h h h 6 1 : N.G.L.N.p.G.G.N.N.7.|.|.|.|.|.|.",
"|.|.|.|.|.|.0.q.u.q.u.e.e.y.u.e.Q W V V A ^ A A Z A A A ^ V V ^ ^ ^ ^ y ^ ^ ^ ^ V C ^ ^ ^ Z y Q w.u.y.t.q.k.q.y.e.2.|.|.|.|.|.|.",
"|.|.|.|.|.|.1.<.<.<.<.<.<.<.<.<.~ K K K K K L L K K L L L L L L K L K L H K K K L L L L L L F ~ <.<.<.<.<.<.<.<.<.&.|.|.|.|.|.|.",
"|.|.|.|.|.|.8.A.T.P.!.!.!.G.}.(.g.) I P P P P P P P P P ) P P P P P P P J P P P P P P P P P I g.!.}.D.!.}.!.}.P.A.0.|.|.|.|.|.|.",
"|.|.|.|.|.|.8.J.P.N.L.A.).A.).].s.l p p l l l l i z z l z i g l z l j 0 l l l l i j l l l 8 1 M (.}.B.[.B.L.N.J.J.7.|.|.|.|.|.|.",
"|.|.|.|.|.|.r.A.P.A.}.D.[.R.).).a.h i i h h h f o f h h j 5 i h h h a u h j h h u p h h h 6 1 o.(.[.H.[.L.P.A.P.G.r.|.|.|.|.|.|.",
"|.|.|.|.|.|.9.J.G.R.L.).G.G.A.W.s.c p u h h h d u d j h h u p h h g a O d h h h O p h h h 5   o.].H.B.P.).P.L.G.J.8.|.|.|.|.|.|.",
"|.|.|.|.|.|.9.L.N.N.B.P.G.n.R.`.s.c u u h h h d 5 h h h h u u h h h a O h h h h O p h h h 5 1 , (.T.i.A.P.B.B.N.L.w.|.|.|.|.|.|.",
"|.|.|.|.|.|.e.m.A.N.N.B.N.S.N.J.s.x u p h h h h O d h h h u i h h h a O h h h h o i h h h 6 1 o.H.N.B.N.B.N.N.A.N.8.|.|.|.|.|.|.",
"|.|.|.|.|.|.8.B.S.G.N.N.A.A.i.B.a.h u u h h h d u d j h h u p h h h a O h h h h @ p h j h 6   , B.n.B.A.N.N.H.N.N.7.|.|.|.|.|.|.",
"|.|.|.|.|.|.4.e.k.u.u.u.n.e.n.e.o.h u u h h h h u d h h h u p h h h p O h h d h 9 a j j h 5   = e.i.e.n.y.u.y.n.e.1.|.|.|.|.|.|.",
"|.|.|.|.|.|.=.&.&.O.O.O.&.&.O.&.: x u u h h h h u d h h h u i h h h p O g h h j e D ( / j 6 1 % &.O.O.&.,.O.&.&.,.&.|.|.|.|.|.|.",
"|.|.|.|.|.|.9.`.!.G.`.).!.!.}.H.a.c u p h h h p o j h j h u p h h h d u j h h v L T _ b./ 8 . , A.!./.).!.).B.!.W.7.|.|.|.|.|.|.",
"|.|.|.|.|.|.9.).!.N.).A.H.N.P.B.o.c u u h h h d u h h h h u i h h h p u h h d y Y T Y _ v.8 . : B.!.m.L.G.`.N.!.[.r.|.|.|.|.|.|.",
"|.|.|.|.|.|.r.).}.G.).J.R.A.R.J.s.c i u h h h d O f h h h 5 i h h h d 5 h h g t Y T T ' ` 8 1 , H.P.B.P.H.[.H.).!.r. X X X X X X",
"|.|.|.|.|.|.r.(.G.A.}.[.R.J.G.L.$.c u u c h h h O h h h h u i h h h p u h h g 4 S J ) v.n 6 . > H.G.L.}.).}.G.G.[.r. X X X X X X",
"|.|.|.|.|.|.r.!.L.N.H.L.N.B.N.L.a.c u p h h h j O f h h h i i h h h p u h h h j 2 7 k l h 6   , H.m.B.B.H.G.m.H.!.e. X X X X X X",
"|.|.|.|.|.|.r.J.N.A.i.B.S.N.N.m.o.c u u h h h d 5 d h h h u p h h h p O h h h d u p h h h 6   > m.N.N.B.N.m.A.N.H.e. X X X X X X",
"|.|.|.|.|.|.9.B.N.G.A.N.N.H.B.B.o.x u u h h h d u h h h h O i h h h p u h h h h u p h h h 6   : B.B.L.N.m.B.H.N.B.w. X X X X X X",
"|.|.|.|.|.|.4.e.u.t.n.t.y.y.i.e.Q n v k m m b b q b b b b e v b m m v q m m b m e v b b b r 7 < e.n.i.t.t.n.t.y.e.1. X X X X X X",
"|.|.|.|.|.|.*.&.,.,.,.&.,.,.,.&.! F G G G H H H H G H H H F G K H H G G H G G H F G H H H F F ! &.,.,.,.,.,.&.<.&.&. X X X X X X",
"|.|.|.|.|.|.0.D.}.!.!.!.!.H.!.(.h.P U U U U U U U U U U U U U U U U U U U U U U U U U U U U U g.T.}.H.!.!.!.!.P.Z.4. X X X X X X",
"|.|.|.|.|.|.7.G.P.N.R.G.).G.!.).f.E R R R E E E R R E E W N R W E E E r E E E E y B W W E y r d.].Q.A.`.G.P.N.R.H.7.|.|.|.|.|.|.",
"|.|.|.|.|.|.r.A.L.B.!.J.).!.).].s.h @ i h h h h o f h h h u i h h c f 5 h h h h @ p h h h 4 1 o.].(.W.`.G.}.B.J.G.7.|.|.|.|.|.|.",
"|.|.|.|.|.|.8.L.L.P.}.).P.A.L.`.s.x i i h h h f o h h h h u p h h h p O h h h g O s h h c 5 1 o.).G.A.L.).R.R.J.I.7.|.|.|.|.|.|.",
"|.|.|.|.|.|.7.H.N.B.B.P.A.N.J.`.s.f i u h h h f o h h h h u u h h h a u h h h h O p h d h 5 1 o.).J.N.A.P.A.N.N.H.7.|.|.|.|.|.|.",
"|.|.|.|.|.|.0.p.N.A.B.N.m.A.N.!.a.c u u h h h d o a h h h 5 i h h h a O h h h h O p h h h 6 1 o.}.N.G.p.N.B.G.N.i.7.|.|.|.|.|.|.",
"|.|.|.|.|.|.0.A.A.G.m.N.A.B.i.A.a.h i i h h h d o h h h h u p h h h d O h h h h u s h h h 6 1 o.A.p.G.A.N.N.G.B.B.5.|.|.|.|.|.|.",
"|.|.|.|.|.|.4.u.n.i.i.i.i.u.n.t.o.c u i h h h d o a h h h u p h h h a O h h h h O p h h c 6   : t.n.u.n.u.i.i.n.u.3.|.|.|.|.|.|.",
"|.|.|.|.|.|.*.+.+.| +.| +.+.+.| : c u i h h h a O f h h h u i h h h p O h h h d u p h h h 6   % | +.| +.| +.| | | +.|.|.|.|.|.|.",
"|.|.|.|.|.|.8.J.H.B.T.K.K.P.K.B.a.h i i f h h h o j h h d u i h h h d O h h h d u i h h h 6   > B.H.I.K.I.T.B.H.I.2.|.|.|.|.|.|.",
"|.|.|.|.|.|.r.`.W.N.).H.J.B.(.B.#.x i i h h h f O j h h h u p h h h p O h h h h O i h h h 6 1 > B.!.B.I.H.).N.!.[.r.|.|.|.|.|.|.",
"|.|.|.|.|.|.r.`.!.!.).G.H.N.P.A.$.c u i h h h f O j h h h u p h h h a O h h h j u p h h c 6 1 o.B.J.N.H.Z.).}.).(.r.|.|.|.|.|.|.",
"|.|.|.|.|.|.r.!.P.G.!.].P.P.H.I.$.h i u h h h d O d h h h u i h h h a O h h h h u p h h h 6   > K.P.P.!.].).G.H.(.r.|.|.|.|.|.|.",
"|.|.|.|.|.|.r.`.L.B.G.R.A.B.N.H.$.x i i h h h d O d h h h u i h h h d O h h h d O s h h h 6 . > H.N.B.B.P.J.B.J.).r.|.|.|.|.|.|.",
"|.|.|.|.|.|.r.W.N.J.i.N.B.A.N.n.#.f u i h h h h o d h h h u p h h h d O h j h h O p h h h 6 . : n.m.A.G.N.i.H.N.P.r.|.|.|.|.|.|.",
"|.|.|.|.|.|.r.N.m.A.A.N.N.G.B.B.$.c i i h h h d u h h h h u i h h h d O h h h j O p h h h 6 . > N.A.G.N.N.G.A.i.N.9.|.|.|.|.|.|.",
"|.|.|.|.|.|.5.u.n.u.V.u.i.n.V.u.#.c s s c c c c u h c c c s d c c c f i c c c c s p c c c p 5 > u.V.V.u.u.V.n.i.i.2.|.|.|.|.|.|."
};
