/* XPM */
static char *xpm_[] = {
/* columns rows colors chars-per-pixel */
"80 80 251 2 ",
"   c #060E1D",
".  c #050826",
"X  c #030C25",
"o  c #020C2A",
"O  c #100E23",
"+  c #0B1325",
"@  c #051328",
"#  c #04122B",
"$  c #0B152C",
"%  c #0B182B",
"&  c #12142B",
"*  c #18182B",
"=  c #070D33",
"-  c #071737",
";  c #0B1432",
":  c #0D1932",
">  c #161635",
",  c #131C34",
"<  c #1B1B33",
"1  c #121E3A",
"2  c #241A2B",
"3  c #34162C",
"4  c #281C35",
"5  c #371C34",
"6  c #1A262A",
"7  c #09203C",
"8  c #182336",
"9  c #272738",
"0  c #362538",
"q  c #2F3231",
"w  c #293936",
"e  c #5D1B35",
"r  c #492639",
"t  c #54293A",
"y  c #4E343E",
"u  c #6D273D",
"i  c #2E4431",
"p  c #354938",
"a  c #3A5336",
"s  c #3F663F",
"d  c #425C3A",
"f  c #486639",
"g  c #56793C",
"h  c #061A46",
"j  c #1E2642",
"k  c #2B2D43",
"l  c #3A2A43",
"z  c #3C3744",
"x  c #492744",
"c  c #562A45",
"v  c #473847",
"b  c #583847",
"n  c #503850",
"m  c #672C44",
"M  c #71354A",
"N  c #394844",
"B  c #3C4256",
"V  c #48484A",
"C  c #57444C",
"Z  c #455746",
"A  c #484953",
"S  c #5B4853",
"D  c #4D5955",
"F  c #5A5858",
"G  c #664854",
"H  c #6A4B54",
"J  c #784856",
"K  c #78545B",
"L  c #4A6845",
"P  c #577846",
"I  c #546D50",
"U  c #657355",
"Y  c #5B5661",
"T  c #725964",
"R  c #786469",
"E  c #73716E",
"W  c #8B324A",
"Q  c #A63A51",
"!  c #90414E",
"~  c #884759",
"^  c #984557",
"/  c #86565D",
"(  c #A8485A",
")  c #B24F5C",
"_  c #844E63",
"`  c #9B4D67",
"'  c #885964",
"]  c #985966",
"[  c #A85767",
"{  c #AC5068",
"}  c #B85467",
"|  c #BC566A",
" . c #BC596C",
".. c #8E6B6C",
"X. c #98676B",
"o. c #876A73",
"O. c #8A7277",
"+. c #967679",
"@. c #A86873",
"#. c #AB6D73",
"$. c #BA6A78",
"%. c #B6777B",
"&. c #C25A6D",
"*. c #C8586A",
"=. c #C45D71",
"-. c #CA5B71",
";. c #D05E70",
":. c #C7636D",
">. c #CD6373",
",. c #C86675",
"<. c #D56B77",
"1. c #C9767C",
"2. c #D4727C",
"3. c #DA727E",
"4. c #E0777E",
"5. c #5B843A",
"6. c #5A973D",
"7. c #638B3B",
"8. c #68973D",
"9. c #69A63E",
"0. c #77AC3E",
"q. c #78B33D",
"w. c #7CB33D",
"e. c #7BCC17",
"r. c #7CCC1B",
"t. c #7DC627",
"y. c #5D8344",
"u. c #5A9042",
"i. c #638847",
"p. c #6A9645",
"a. c #719C48",
"s. c #759356",
"d. c #6AA641",
"f. c #77A747",
"g. c #73AC42",
"h. c #7BAC44",
"j. c #7AB641",
"k. c #7CB442",
"l. c #72A050",
"z. c #79A662",
"x. c #81B63F",
"c. c #84BC3E",
"v. c #81C92B",
"b. c #86C439",
"n. c #8CC63F",
"m. c #8DC83E",
"M. c #84BC42",
"N. c #84B846",
"B. c #84AF55",
"V. c #888F71",
"C. c #92B170",
"Z. c #A4BF7E",
"A. c #86C141",
"S. c #8DC641",
"D. c #8EC840",
"F. c #8EC549",
"G. c #92C944",
"H. c #91C74A",
"J. c #93C94B",
"K. c #9ACB4A",
"L. c #96C858",
"P. c #A6D054",
"I. c #9AC965",
"U. c #A7CF74",
"Y. c #957F81",
"T. c #AF7584",
"R. c #BA7B83",
"E. c #C77784",
"W. c #D97883",
"Q. c #E47C85",
"!. c #7B858F",
"~. c #928E8D",
"^. c #B68588",
"/. c #B88C92",
"(. c #AA9290",
"). c #B79997",
"_. c #98A58C",
"`. c #B1A797",
"'. c #B99BA2",
"]. c #B6ACA9",
"[. c #C98688",
"{. c #D7898B",
"}. c #CF9090",
"|. c #C79998",
" X c #D79999",
".X c #E7888A",
"XX c #E4908E",
"oX c #ED938D",
"OX c #E88D94",
"+X c #E49393",
"@X c #EB9494",
"#X c #E89798",
"$X c #E59B9A",
"%X c #ED9C9B",
"&X c #CAA39A",
"*X c #D8A69D",
"=X c #E5A59D",
"-X c #ECA39E",
";X c #F0A09D",
":X c #CD9EA1",
">X c #EA9CA2",
",X c #C5A8A4",
"<X c #D9AAA8",
"1X c #C6B3AB",
"2X c #DBB3AB",
"3X c #D2BBB6",
"4X c #EEA3A2",
"5X c #E7AAA7",
"6X c #EDABA4",
"7X c #F0A8A4",
"8X c #F0AEA9",
"9X c #EDB3AB",
"0X c #E8B5AA",
"qX c #F1B6AA",
"wX c #F1B4AC",
"eX c #E6AFB2",
"rX c #E9B9B5",
"tX c #F1B5B2",
"yX c #F3BDB4",
"uX c #F2BDB9",
"iX c #B5D689",
"pX c #B3D08E",
"aX c #DDE59F",
"sX c #CDD3AC",
"dX c #E9C4BB",
"fX c #F4C2B6",
"gX c #F4C8B5",
"hX c #F4C4BA",
"jX c #F4CABC",
"kX c #F6D1BC",
"lX c #CEE2A6",
"zX c #D7E6AA",
"xX c #F1BDC0",
"cX c #DAD0CE",
"vX c #ECC9C3",
"bX c #F4CBC5",
"nX c #F5CCC4",
"mX c #F6D4C5",
"MX c #F6D2CB",
"NX c #F6D9CC",
"BX c #F8D9CB",
"VX c #E8D5D2",
"CX c #F6DBD3",
"ZX c #F9E0CF",
"AX c #F8E4D9",
"SX c #E4E0E3",
"DX c #EDECED",
"FX c #F8EAE5",
"GX c #FBF4E9",
"HX c #FDFCF4",
"JX c #FBFAF8",
/* pixels */
"n.D.S.G.S.D.m.D.D.D.D.D.D.m.D.m.D.G.S.x.n.n.n.n.m.n.G.m.G.J.n.G.D.S.D.n.n.n.n.n.n.m.S.b.F.G.D.n.D.D.D.n.S.S.m.b.S.S.S.S.S.S.m.m.S.n.c.n.D.D.n.G.F.S.D.m.S.P.G.n.",
"n.S.F.D.n.S.m.D.A.b.D.m.D.D.D.S.m.n.n.n.m.n.n.n.S.m.D.m.J.P.G.D.D.D.D.D.K.n.n.n.m.n.n.c.S.S.D.n.D.D.G.n.A.S.A.g.M.S.S.D.m.m.m.S.m.m.m.n.D.D.m.F.S.m.m.n.D.K.m.n.",
"K.D.D.n.n.A.b.S.j.0.A.S.D.D.D.K.m.m.n.m.n.S.m.n.m.n.S.S.H.J.D.S.D.D.D.D.P.G.n.n.S.m.S.b.S.n.D.n.D.D.m.n.d.k.g.g.A.S.S.n.m.n.D.n.n.D.D.m.D.D.S.S.D.m.S.n.n.D.n.m.",
"P.F.S.m.S.j.d.j.6.M.S.m.D.m.G.P.G.S.m.n.n.m.n.n.S.c.M.D.G.D.S.b.D.D.n.n.G.n.D.m.m.S.D.n.n.n.D.n.D.n.n.S.A.6.g.k.M.S.S.m.n.G.K.D.n.D.D.n.m.D.n.n.S.D.c.M.S.m.n.n.",
"D.m.m.n.n.b.d.j.9.c.n.m.D.D.D.D.m.n.D.n.m.n.k.b.c.9.j.D.D.S.m.x.S.D.D.m.n.n.n.n.S.m.m.m.m.m.J.m.m.G.D.S.M.0.A.M.S.n.m.n.m.J.P.n.n.D.D.n.D.D.D.w.j.b.9.j.n.n.S.m.",
"m.G.G.D.n.M.k.A.S.S.m.D.D.D.D.D.D.D.D.D.D.S.k.6.q.d.M.S.D.m.D.m.m.D.D.D.m.G.m.n.S.b.S.D.G.K.K.G.m.n.D.m.S.A.S.n.S.m.m.G.G.m.n.n.D.D.D.D.D.D.m.M.6.j.d.M.n.S.D.m.",
"m.n.D.K.n.S.n.n.S.D.D.F.S.S.D.S.S.S.S.D.D.S.n.6.j.j.S.K.G.m.n.D.D.m.S.S.n.S.M.G.j.9.S.S.m.G.J.m.D.n.n.m.n.D.D.n.n.b.S.n.n.n.m.n.n.S.D.D.D.D.S.M.9.j.j.A.S.S.m.n.",
"D.D.G.P.G.n.G.n.D.D.F.F.S.F.M.k.A.F.A.A.S.S.c.n.D.D.D.P.G.D.D.D.D.J.J.S.S.l.p.f.y.l.f.f.N.M.D.m.D.D.G.m.n.D.m.D.S.x.n.S.n.n.S.c.S.D.F.D.D.D.D.b.M.S.D.D.m.D.m.D.",
"D.D.D.D.S.D.S.S.G.J.D.S.a.Z Z a d d d d g B.L.m.S.m.D.m.D.D.D.D.J.U.iXP.a.a w w w w p p p P M.b.D.D.n.D.D.D.m.m.n.n.G.n.q.j.j.d.M.F.m.D.D.D.D.S.D.D.m.m.D.D.m.D.",
"D.D.D.D.D.D.S.S.J.P.G.D.f.j ; ; ; : ; = d Z.iXP.S.D.n.D.D.D.D.D.I.zXzXU.j.w - = - = = = # 8 i g M.A.c.S.D.L.P.G.D.D.S.S.j.9.g.g.M.n.n.m.m.D.D.D.D.D.D.J.G.D.D.n.",
"D.m.m.D.m.S.F.F.G.H.c.S.M.D A n p 0 z z F `.zXC.N.S.D.D.D.S.D.D.F.pXpXB.h.D Y D A n z z z k $ $ 8.M.c.m.J.iXlXI.G.D.S.b.A.8.j.M.S.S.D.D.D.D.D.m.D.m.D.P.K.F.S.c.",
"D.D.D.j.S.j.d.A.S.h.g i.s.~.1X1X].).(.).V.V w 9 L S.S.S.b.M.S.D.M.i.9 w z ~.3X3X1X].1X].).R 0 < f g 8.A.J.zXzXiXJ.D.G.n.A.M.F.D.D.D.D.D.D.D.D.D.D.D.D.F.S.D.D.S.",
"m.S.n.d.g.g.g.A.n.0.i 8 z (.AXGXAXNXhXhX<Xq     d c.w.S.d.g.S.S.F.g $ & 9 (.AXZXCXCXCXBXvXo.v 9 X o i 0.F.I.pXJ.n.m.S.S.F.D.D.S.m.D.D.m.G.G.D.D.D.M.F.A.q.S.S.m.",
"D.m.A.A.u.k.j.A.n.x.a 6 z (.AXAXAXMXyXhX,X0     Z M.9.j.6.b.S.S.G.8.& O 9 (.ZXZXCXCXNXNXdXK 0 & . o a h.D.S.A.S.D.S.D.G.S.S.D.D.D.D.D.D.G.P.G.D.F.j.M.0.9.M.S.m.",
"S.S.S.A.j.h.8.0.0.B.E R O.&XZXZXNXdX5X9X,XG v S E p.g 5.7.7.8.p.p.U H T T (.BXBXBXNXNXmXdX(.(.(.R < w 8.n.b.c.n.m.D.F.D.S.D.D.D.m.D.m.m.m.K.G.G.S.j.d.9.j.c.S.D.",
"m.m.m.m.S.P w 6 q ^.dXvXvXjXdXfX9X<X$.E.1.{ ( ^ E 6 6 6 6 6 6 6 6 /  X8XeX5X*X9XtXnXmXmXmXNXZXZX(.9 * i 5.5.5.0.w.0.j.b.m.m.S.D.m.m.G.G.L.U.L.F.A.j.9.q.M.n.m.n.",
"D.G.n.n.n.I , # q |.nXmXNXmXhXyXfX5X,.{.>.) ) ) n o o o . . . . . ' $XqXyX=X2.%X6XjXBXmXmXZXZXZX`.9 > $ # # % 6 % % a w.m.m.m.m.m.m.n.D.iXzXiXJ.G.b.M.S.S.m.m.m.",
"K.K.G.m.S.I , < R 2XmXNXNXmXrX8X0X X$.2. .$.1.2.R Y Y Y F D F F V X.$X9XqX*X,..X XgXmXmXmXNXZXBX`.9 > $ o . . . o o p w.m.m.m.m.S.n.c.F.iXzXpXJ.S.D.m.G.m.S.m.A.",
"G.J.m.n.A.p : l /.nXnXmXNXmX&X .X./ M ~ J |.gXdXdX3X3X3X1X3X1X1X1X|.E.[.[.#.u W ! [.qX9XqXhXjXjX/.9 & 9 _ X.X.K r 4 w p.f.0.0.x.D.S.b.S.F.U.F.S.G.m.m.n.b.S.A.g.",
"n.m.m.n.M.p $ C |.jXnXvXgXdXV.3 2 5 u t J <XnXmXMXMXCXCXCXCXBXBXbXeX{ ( ( ! e e e ) .XoXXX8XqXqX/.0 $ v R.OXOXE.] ' K C i i a 8.D.D.D.S.m.n.n.S.n.D.D.n.9.g.w.d.",
"S.b.n.M.g.i $ S *XfXhXyX4X}.^ 5 3 r c m J <XbXnXMXMXMXMXMXMXMXMXMX2X@.` ` ` u u W ) 4..X+XqXfXgX^.9 - v %.oXXXW.=.R.T.S O   6 7.S.D.D.m.G.m.n.G.m.D.n.n.M.6.g.k.",
"M.j.c.d.f.p $ S &XqX9X5X{.} m e r b / / ] <XnXnXbXMXMXMXMXbXMXbXnXeXT. .R.[.W Q W ( <.<.{.qXqXqX/.9 - y V.XXOX[.R.^./.E 9 2 q i.F.D.S.S.m.m.n.m.G.b.S.n.c.0.A.A.",
"M.d.j.6.M.p ; 9 H / / J m r m m u ^.uXuXrXbXbXMXMXMXMXMXMXMXMXbXnXbXxXxXbXrX( Q Q W u W ^ 2.2.1.[ 4 % z {.tXyXMXSXSXFX].+.+.V.V.z.l.f.S.K.G.m.m.S.x.S.m.S.S.S.S.",
"w.g.q.j.M.Z ; & + # + + + 3 m W m :XnXnXMXnXnXMXMXMXMXMXMXMXbXMXMXMXMXbXmXyX) Q Q W u u ^ >.>.;.} 0 % z :XbXBXGXJXJXHXVX*X=X5X`.- ; d S.P.G.n.G.G.b.n.S.S.S.S.S.",
"m.A.S.m.F.U - % % % + + % 3 m W M <XbXbXnXnXMXMXMXMXMXMXBXMXMXMXMXBXmXmXBXdX[ Q Q W e u ^ :.*.;. .5 # l '.bXCXGXJXJXJXvX5X=X5X).= # a 8.w.m.n.m.D.D.m.S.n.m.m.m.",
"D.m.m.S.S.l.U U g f q 2 2 S /.|.^.dXbXbXMXnXnXnXnXvX1X,X,X,X,X1X,X'.'.&X2XdX%.$.1.X.! ^ ) | } *.| r ; k |.bXMXFXHXGXJXVX2XrXdX].z 9 6 w 5.m.m.n.D.D.D.G.n.J.G.m.",
"m.m.D.S.F.F.I.H.M.N.f 4 < R vXvXvXnXbXbXnXmXnXnXMX3XF D A A A V V v z v R eX0XrXfX*X1.1.,.} *.*.{ x = k ).bXnXAXHXHXHXGXGXFXFXcXT v l 9 a 5.0.b.S.F.G.S.G.P.J.m.",
"b.m.J.F.J.I.lXiXJ.N.a , > E vXMXMXnXnXMXnXnXnXmXbX3XB - 1 h 1 h - o o : G rXjXbXnX5XW.{.1.| } } } x > 4 /.xXxXAXHXHXHXHXHXHXHXcXT c S l % + 5.b.F.D.S.m.m.K.D.D.",
"j.L.U.U.L.iXaXzXL.B.d > j o.vXvXbXnXnXnXnXnXnXnXMXxXE A j - - - h j n T +.rXjXbXnX4X2.2.<.*.} *.) K K H /.uXxXFXHXHXHXHXHXHXDXcXK n T V # X 5.M.j.S.S.D.D.D.S.D.",
"J.U.zXlXL.N._.B.B.C.Z > h T '.'.'.2XjXnXnXnXnXnXbXbXcX_.D - - N o.T.|.<XtXdXjXhXhX=X2.<.:.*.) )  .5XrXrXtXuXxXFXHXHXHXHXHXHXHXcX,X'.'.E 6 X f d.d.S.S.D.m.D.m.D.",
"J.U.lXpXH.B.I j 8 w 8 ; ; - = = $ ).jXbXjXnXnXmXnXvX].~.A 7 D ].SXSX3X1X2XrXhXhXgX$X2.:.:.:.} } :.tXdXhXhXyXbXCXHXHXHXHXHXHXHXAXCXFXFX`.< X a 6.j.A.m.D.D.D.m.D.",
"D.F.L.N.S.N.I o o o o o o o o # v <XjXnXjXnXjXnXnXrXE - j j _.DXJXDX].E E ).uXuXgXqX=X$X=XoX$X+X XtXfXuXuXuXyXFXJXHXHXHXHXHXHXFXVXAXAX(.6 X p g.w.S.D.D.D.D.D.D.",
"D.D.A.d.g.g.P o o o . o o o . . R rXjXjXnXkXnXjXhXdXF h - j ].JXDXDX~.h j ~.rXuXhXuXuXyXyXyXqXfXqXyXyXfXyXhXhXCXJXJXHXHXHXHXHXAXCXCXCX(.> . a N.S.n.n.D.S.D.D.D.",
"D.D.A.A.u.h.P o o o o o o o . . ..eXrXdXdXdXjXnXnXvXF 8 7 j ].JXJXDX!.h j ~.dXfXhXfXfXyXfXfXfXyXfXfXyXfXhXfXuXBXHXHXHXAXZXZXCXMXMXMXMX~.2 X a k.S.n.D.n.A.S.D.D.",
"D.m.b.M.q.A.i.X o o o o o o X o l S H H H ^.yXjXnXrXU 7 8 w ~.DXDXSX!.h j o.uXfXfXfXfXfXfXfXyXfXfXfXfXfXhXfXyXmXGXGXAXBXjXjXjXnXbXbXbX(.< X p h.D.A.S.S.0.b.n.n.",
"m.D.m.S.S.S.i.X o o o o o o X   . . X X . X.6XgXjX2XF 7 7 7 B ~.~.E B h j o.hXhXhXuXhXfXfXyXfXyXyXyXfXfXhXfXfXhXBXZXBXjXjXbXjXjXuXbXbX~.< X p a.k.u.g.p.a.M.n.n.",
"m.S.m.G.m.N.U & . 4 0 0 5 q 5 r x v v r 0 @.=XfXgX*XV : 1 1 1 - - ; , h j o.vXhXhXhXfXfXfXfXfXyXfXfXfXfXfXfXfXhXjXjXjXjXjXbXjXhXjXjXbX+.> # 8 k N N N N N i.S.n.",
"D.m.m.P.D.U C M ` R.}.).).|.|.&X&X&X&X|.|. X8X0X5X|.F N 8 1 , 1 1 1 1 1 1 o.hXhXgXhXhXfXfXfXyXfXyXfXfXfXfXfXhXfXhXhXhXhXhXhXhXjXhXnXhXO.< $ # = o = o = $ P M.m.",
"m.S.D.K.N.Z 0 [ .X5XgXgXgXjXjXkXkXkXkXgXgXfX$X#.@.T.1XsXs.j 1 1 8 1 h Y ~.).hXhXhXhXhXfXyXfXyXfXfXfXfXgXfXfXfXfXhXhXhXhXhXhXjXhXjXjXdX.., # v R R T S ; + w w.m.",
"S.D.m.D.M.p 0 ] $X6XgXkXkXkXkXkXkXkXkXgXfXyX$X[ ^ @.xXAX_.w : , 1 : h +.uXuXjXhXhXhXfXfXfXfXfXyXfXfXfXqXfXfXfXfXfXgXhXhXhXhXjXhXhXjXhXO.< o G |.eXeX:X4 + 9 0.m.",
"m.m.n.m.M.a 5 ] Q.eXeXrXrXdXgXgX2X&X*X8XwXyX#X[ ~ ] <XNX_.V v z z z z '.dXhXhXhXhXhXhXhXfXyXyXfXfXyXyXfXfXyXfXfXhXhXhXhXfXhXhXjXhXhXuX+.< X S :XtXuX<X0 O 6 0.n.",
"n.m.D.n.N.N 4 ] >X>X] n H <XyXtXX.3 d  XwXtX=X] M J [.0X2X<X&X).).&X'.2XfXhXhXnXhXhXuXhXfXfXfXyXyXhXfXhXhXfXfXuXhXfXhXhXhXhXhXhXhXhXuX+.4 # S |.tXuX2Xq   2 x.n.",
"n.m.n.A.d.N 5 ] OX>X` 4 G <XqXtX..2 d  XyXqX=X] c G ^.9XqXfXfXfXgXfXyXyXyXyXyXgXhXhXhXhXhXfXfXyXfXyXfXfXhXfXfXhXuXhXhXhXhXhXhXhXhXhXyX+.2 # C  XtXuX<Xq   6 0.n.",
"m.S.m.S.f.p 0 ] >X>Xo.j G $XtXtX+.2 t +XyXyX6X/ n G R.9XfXfXfXgXfXfXyXqX8X8X8X7X8X8XtXhXfXfXfXfXfXfXfXhXyXhXhXgXfXhXhXgXhXhXhXhXuXfXyX(.4 $ C  XtXtX2Xv O 6 0.n.",
"S.m.n.A.g.N 0 ] >X>X] 4 H 4XtXtXX.3 b |.tXtX6X' v n %.qXuXhXhXhXdX6X-X-X%XoXoXoXoXoX;XfXfXfXfXhXfXfXfXgXhXhXhXhXhXhXhXjXhXuXhXhXfXfXyX^.9 < b }.8XeX<XC   6 0.n.",
"D.S.D.S.M.N 9 [ OX>XT.X.#.8XtXwXV.K / }.qXqX4XK 2 4 O.qXuXuXhXhXgX=XoXoXoXoXoXoX.X.XoXqXfXgXfXfXfXhXfXhXhXgXhXhXhXhXjXhXyXyXyXyXtXtXtX^.9 2 0 J ' ' K 9 6 d N.n.",
"S.S.D.D.N.N 0 @.OX>X5X8X8X9XtXtX9X8X6X6X6X4X{.K * O ..9XfXhXhXbXfX4XoXoXoXoXoXoX.X.X.XqXfXfXfXfXgXgXhXhXhXjXhXhXjXhXhXhX8XOX@X@X.XW.W.#.4 2 2 * * 2 < < Z B.S.S.",
"m.D.D.D.B.N 4 [ OX>XwXqXtXtXtXtXtXwXqX8X4X>X{.K 2 + O.tXhXhXhXhXhX4XoXoXoXoXoXoXoX.X.XqXfXgXgXgXhXjXjXjXjXjXjXjXjXjXnXhX8X%X%X@XQ.W.W.[ 4 < 2 6 6 6 9 w L k.G.D.",
"n.D.D.m.N.V 4 _ E.{.5X9X9X8X9X9X5X6X6X;X-X;X{.' * + ..rXhXhXhXhXgXyXqX8X7X7X7X7X7X;X7XyXfXhXfXgXhXgXgXjXbXfXfXhXnXfXjXhX8X;X%X@XQ.W.3.[ 2 & p g 7.7.8.a.h.A.G.S.",
"c.n.D.D.S.i.6 2 0 J [.[.[.^.^.%.^.R.^.[.%.%.@.G * @ ..0XyXhXhXhXjXkXkXjXgXfXfXfXgXfXfXfXgXfXgXfXfXyXyXqX8X8XqX8X8X8X8X7X#X.X.X.XW.3.3.` 2 O d M.n.G.n.n.c.S.G.F.",
"c.n.D.D.n.f.6 = o 9 _ _ _ M l k k l x x r 9 9 4 % @ o.2XhXhXhXhXjXMXNXjXgXfXhXfXgXyXgXfXfXfXgXfXyXwX8X7X;X;X;X;X;X%X%X@X4.4.W.3.3.3.<.] 2 O d N.G.m.m.n.c.S.D.S.",
"S.m.D.D.n.N.6 & & 0 J J M n 8 h 1 1 : ; : : ; $ $ + R 2XuXuXuXhXbXNXBXnXgXgXfXgXfXfXfXfXfXfXfXgXyXtXwX8X4X;X;X;X;X;X;X@X4.3.3.<.2.3.3.] O O d x.n.n.n.G.F.S.S.m.",
"m.D.D.D.D.N.a d P P C n n n l k k , ; : , ; ; $ ; < R 2XuXuXuXuXMXGXGXCXhXgXhXhXfXfXfXyXuXyXfXfXyXwXtX7X7X7X;X;X-X-X%XoX4.4.4.<.2.2.2.] 2   f x.m.G.S.H.G.S.D.D.",
"D.D.m.m.S.A.S.D.n.i.v _ ] ] ` o.R 0 $ : $ % $ : > Y '.rXhXuXyXhXAXJXHXFXjXhXuXyXyXyXyXqXtX8X8X8X4X;X;X%X@XOXOXoX.X.X.X.X;.;.<.;.<.2.2.J O   d x.n.G.S.G.S.S.D.S.",
"D.D.D.m.F.M.M.n.n.p.n @.R.T.T.R./.n $ $ $ $ $ $ < o.uXfXuXuXuXbXGXJXJXGXjXyXyXyXyXqXqXqX8X4X4X>X@X@XOXoXQ.Q.Q.Q.3.<.<.;.<.;.;.;.<.2.2.J O O a w.S.G.G.G.S.S.S.S.",
"m.m.S.F.D.S.n.m.m.a.C [ E.E.T.E./.C . . . o X . : O.uXuXuXuXuXnXGXJXJXGXjXyXyXyXyXqX8X8X7X;X;X%X@XOXOXQ.Q.Q.Q.Q.<.;.;.<.;.<.-.;.<.2.1.M   . i 8.N.M.M.S.n.q.g.b.",
"n.m.m.G.S.m.n.m.m.c.s.H / K ] R.[.Y.o.o.O.O.O.+.+./.tXyXtXtXtXuXCXFXFXCXyXtXwXwX8X8X6X4X>XXX.X{.Q.W.W.W.W.<.W.<.>.:.&.:.>.>.-.E.>X4X X|./.(.(...U P y.y.h.6.N.n.",
"n.m.S.S.m.m.n.m.G.m.N.p * < _ R.R.}.eXeX5X<X5X5X6X6X8X8XwXwXwXtXuXuXyXtXwX6X%X%X$X@XOX@X{.<.<.,.-.E.,.-.=.-.| =.| *. . .&.=.-.{.uXuXtXvXvXbXbX%.W v 9 w d 7.x.n.",
"n.n.m.m.S.m.n.G.m.m.s.w = > _ E.R. XqXtX9XwXwX8XwXwXwXwXwXwXqXqXqXwXwX8X8X7X@X@XOX.XQ..XQ.>.=.=.-.-.=.=.| =.=.|  . . . .&.=.:.}.uXtXyXnXbXMXbXE.! t O X 9 a.c.m.",
"t.t.v.b.m.G.n.m.m.m.s.a w z _ E.,.}.qXtXwX8X8XqXwX8X8X8XwXwXwXqXwXtXtX8X8X4X%X@X@X{..X.XW.=.=.=.=.=.=.=.=.| &. .}  .{  .&.-.=.{.tXtXyXnXbXMXbXW.:./ * X 9 9.m.n.",
"r.r.r.b.n.n.n.G.n.G.L.B.f.a.s.K _ @.{.{.{.XXXXXX.XXXXXOXoX+X+X+X$X$X$X$X#X>X6X8X7X.X.X.XW.*.| |  .=. .| &.| | { ` W ~ { &.| | E.OX#X6XyXfXfXfX+XOXY.2 O i 0.m.m.",
"r.r.e.b.n.S.n.S.n.n.S.G.N.d.I = . c | { } *.*.*.&.*.*.*.*.*.*.&.&.&.&.&.=.[.fXuXfX+X3.2.&.{ ) } | | | &.| | | ( 5 < & _ -.=.*.W.Q.Q.@X8X8XqXqXoX.XT.< X p 0.m.m.",
"r.r.v.b.S.n.b.g.M.G.S.D.M.d.L o = c { | | -.-.-.;.*.*.*.*.*.*.&.*.&.*.} =.[.hXhXfX$XW.<. .( { { } *.| &.| &.} ` 3 ; = _ | E.=.W..XQ.%XqXqXqXqX;X.X@.2 . a 0.m.n.",
"v.w.b.b.9.M.d.0.S.G.G.I.J.h.L o = x ~ ` ` { | } } } } | |  .|  . .} | &.&.[.hXfXuX#X3.2. .^ ( ( ( { { { } } } [ 5 & > x c m M ~ [ 1.;X6XqXqXqX-X.X] * . d N.S.m.",
"S.f.M.S.k.9.9.k.A.F.U.zXU.J.f $ & l c c c x x t t r r t r t t t t r @.W.{.}.yXhXhX$X3.<.[ 0 r r r x t c b m m b 2 : > > > 1 > l l b J ] @.%.%.@.[ b O X f x.n.n.",
"b.h.c.c.k.0.M.M.S.J.pXaXlXL.g $ O l x x x 4 = ; & = $ $ . $ X + O   #.@X+X=XyXhXhX#X3.3.X.% % % % < , & * * * & - : 9 w p N N N k 4 j 4 4 j 4 4 4 & * w f N.n.m.",
"v.t.v.b.c.S.G.F.D.D.J.iXI.U.U # = x c c c 5 $ # = # = # # o + . X . #.+X#X=XyXfXuX$X3.2.] # : : : : % % % % % 8 w 9 L l.N.N.f.B.V.N < > ; ; ; = . $ V C.f.n.m.G.",
"e.e.r.b.S.D.S.S.D.S.I.L.U.lXE # = m M W m t 5 r 5 * & w p a a p +   +. X#X4XyXhXfX#XW.<.] # : % % : : % @ + * P L u.p.b.N.F.J.pXzX_.i.L f a d a p V I C.J.m.n.n.",
"r.r.e.b.m.m.m.m.D.I.zXiXL.pXF o O W ) ) Q W M W m * 8 P u.g.f.p., X ' +X#X-XyXfXfX$X3.3.] # : % % % % % % % 6 p.q.S.S.F.F.D.D.L.lXU.H.M.N.N.N.0.h.h.B.N.D.D.G.m.",
"r.r.r.b.G.K.J.G.F.pXaXzXL.N.a + = W ) *.*.{ ! Q W < 8 i.N.S.S.j.6 X K {.+X4XtXyXuX#X3.2.] # : % % % % % $ $ 6 a.m.D.D.D.m.D.F.j.N.D.n.D.S.c.G.M.L.G.F.D.D.m.m.D.",
"r.t.c.c.m.K.K.m.D.H.pXI.S.w.a o = M *.;.*.) ( ( ~ * 8 i.S.D.S.h.8 X K {.+X=XtXfXuX#X3.<.' @ $ % % % + % $ $ 6 a.D.D.m.S.q.A.w.d.M.S.n.D.S.M.S.I.lXI.G.D.D.D.D.D.",
"r.N.M.n.G.m.G.m.D.S.S.D.S.0.a o o M -.;.;.) ( ( W 2 8 y.F.D.S.f.8 @ K {.+X%XqXqXuXOX3.<.] X $ @ + % % % $ # 6 a.m.S.S.A.j.9.g.0.c.S.n.D.n.D.J.iXaXlXL.m.m.D.D.D.",
"t.M.N.n.n.G.n.n.n.M.S.F.G.j.a o . t |  .} ^ ! Q ! 2 , P h.q.g.i.8 # H [.[.{. X*X*X1.:.:.K # % @ % + % % + % 6 p.M.M.M.x.M.u.j.M.c.n.n.n.m.D.S.I.lXU.F.F.S.S.D.m.",
"b.w.N.D.n.n.M.M.S.d.p.a.a.p.w . = 2 b b t r r 0 0 % % % 8 8 6 * + % 9 b C C y b b t y t 0 # @ $ % % % % % + % a g g 5.7.7.5.p.p.f.f.n.n.G.m.D.S.A.G.S.n.b.S.S.S.",
"n.N.N.n.n.n.0.9.j.6.a : , , $ o = + o = # # # - % ; % % % @ @ @ + @ $ X   o X X X X X X X # $ % % % % + + % % % $ @ @ # $ % $ 9 k N M.n.D.D.D.D.D.S.n.n.j.S.D.n.",
"c.a.N.c.n.n.M.6.M.p.a X o . o o o = # # - - # : $ % % $ $ $ $ $ @ $ $ # + o # # @ @ @ X X @ @ $ % % % % % % % % + @ + + $ % & < k V N.n.D.D.n.m.S.9.c.g.d.b.S.S.",
"m.x.t.v.v.c.c.x.S.N.i.i.y.i.y.y.y.P L g s P g g 5.P 5.g g L L L L g g g P L I P P i.i.i.i.y.i.y.5.y.y.5.y.g g f g g g y.i.p.i.p.f.f.S.n.S.n.n.D.S.j.d.8.j.j.F.S.",
"v.v.e.v.v.m.n.G.S.S.S.S.S.S.S.n.S.N.9.j.x.c.S.S.S.b.S.S.D.S.S.c.S.n.c.M.j.d.w.M.S.S.S.F.n.c.A.S.A.S.S.S.S.S.M.x.A.A.A.n.M.S.S.M.S.S.m.x.b.S.n.m.b.j.g.M.M.D.D.S.",
"v.v.e.e.v.m.m.m.F.S.D.m.S.D.S.n.n.S.b.S.S.F.D.D.n.n.m.c.n.G.n.S.D.S.D.D.A.A.n.n.S.m.m.n.n.x.n.n.D.F.F.D.S.m.K.K.S.m.m.m.n.n.D.G.S.S.D.n.S.D.S.m.S.b.M.S.D.D.D.n.",
"v.v.e.e.v.m.m.m.n.m.D.D.S.S.w.n.n.n.n.S.S.G.D.n.n.n.m.x.n.n.D.n.D.m.S.F.m.m.m.n.m.n.m.n.n.S.n.S.F.D.m.m.S.G.K.K.D.S.S.m.n.G.G.S.S.D.D.m.D.D.m.G.G.m.D.D.F.m.m.D."
};
