/* XPM */
static char *xpm_[] = {
/* columns rows colors chars-per-pixel */
"64 64 119 2 ",
"   c #EB9D2A",
".  c #F3932E",
"X  c #F1992E",
"o  c #FA8F34",
"O  c #EF9537",
"+  c #F69333",
"@  c #F89332",
"#  c #F69B32",
"$  c #FA9E34",
"%  c #F5963C",
"&  c #F6983E",
"*  c #E7A126",
"=  c #E8A126",
"-  c #E9A229",
";  c #EFAB2C",
":  c #F1AC2D",
">  c #F7A233",
",  c #FAA335",
"<  c #F7AC32",
"1  c #FBAE36",
"2  c #F5B131",
"3  c #FBB534",
"4  c #FDBA35",
"5  c #FCBC3B",
"6  c #F59741",
"7  c #F59A42",
"8  c #F69E4C",
"9  c #F6A14C",
"0  c #F9B74B",
"q  c #FABF4A",
"w  c #F3A354",
"e  c #F5A955",
"r  c #F9AB53",
"t  c #F3A75C",
"y  c #F3A95E",
"u  c #F7BD56",
"i  c #F3B05D",
"p  c #EFAD6A",
"a  c #F4AA61",
"s  c #F3AD69",
"d  c #EEB16E",
"f  c #EDB67B",
"g  c #F5BB70",
"h  c #F3B679",
"j  c #FAC14A",
"k  c #F7C252",
"l  c #F8C252",
"z  c #F9C65B",
"x  c #FCCA62",
"c  c #F2C37C",
"v  c #F6CF79",
"b  c #FBD373",
"n  c #FAD27B",
"m  c #EFBF8B",
"M  c #F2BC85",
"N  c #F9BD83",
"B  c #F1BD89",
"V  c #F9CC84",
"C  c #F7CD88",
"Z  c #F9CF8A",
"A  c #FCD58C",
"S  c #FDD88E",
"D  c #EEC192",
"F  c #EDC498",
"G  c #F4C392",
"H  c #F5CA97",
"J  c #F6CA9E",
"K  c #FAD392",
"L  c #FDD890",
"P  c #FADA99",
"I  c #F9DC9C",
"U  c #F9DC9D",
"Y  c #FADE9D",
"T  c #FBDE9E",
"R  c #F3CEA7",
"E  c #F5CFA9",
"W  c #FBDFA2",
"Q  c #FADFA7",
"!  c #F4D6B6",
"~  c #F8D9B7",
"^  c #F7DBB8",
"/  c #F0DABE",
"(  c #F9DAB9",
")  c #F4DCC2",
"_  c #F9DEC5",
"`  c #F7E0CA",
"'  c #F7E4C8",
"]  c #FAE1C8",
"[  c #F9E2CA",
"{  c #FBE6D2",
"}  c #FBE6D3",
"|  c #FBE7D3",
" . c #FCE6D1",
".. c #FCE7D1",
"X. c #FBE7D4",
"o. c #F7EAD4",
"O. c #FAE8D6",
"+. c #FBEBD7",
"@. c #F5EBDD",
"#. c #F6ECDF",
"$. c #FCEBDB",
"%. c #FBECDA",
"&. c #FBECDB",
"*. c #FCEDDA",
"=. c #FEF3DB",
"-. c #F5EDE3",
";. c #F9EFE0",
":. c #FBF1E3",
">. c #FAF0E5",
",. c #FBF1E6",
"<. c #FBF2E9",
"1. c #FAF5E9",
"2. c #F9F7F1",
"3. c #FEFAF6",
"4. c #FEFAF7",
"5. c #FBFDFB",
"6. c #FFFCFA",
"7. c #FFFDFC",
"8. c white",
/* pixels */
"8.8.8.8.8.8.8.8.8.8.8.8.8.8.8.8.8.8.8.8.8.8.8.8.8.8.8.8.8.8.8.8.8.8.8.8.8.8.8.8.8.8.8.8.8.8.8.8.8.8.8.8.8.8.8.8.8.8.8.8.8.8.8.8.",
"8.8.8.8.8.8.8.8.8.8.8.8.8.8.8.8.8.8.8.8.8.8.8.8.8.8.8.8.8.8.8.8.8.8.8.8.8.8.8.8.8.8.8.8.8.8.8.8.8.8.8.8.8.8.8.8.8.8.8.8.8.8.8.8.",
"8.8.8.8.8.8.8.8.8.8.8.8.8.8.8.8.8.8.8.8.8.8.8.8.8.8.8.8.8.8.8.8.8.8.8.8.8.8.8.8.8.8.8.8.8.8.8.8.8.8.8.8.8.8.8.8.8.8.8.8.8.8.8.8.",
"8.8.8.8.8.8.8.8.8.8.8.8.8.8.8.8.8.8.8.8.8.8.8.8.8.8.8.8.8.8.8.8.8.8.8.8.8.8.8.8.8.8.8.8.8.8.8.8.8.8.8.8.8.8.8.8.8.8.8.8.8.8.8.8.",
"8.8.8.8.8.8.8.8.8.8.8.8.8.8.8.8.8.8.8.8.8.8.8.8.8.8.8.8.8.8.8.8.8.8.8.8.8.8.8.8.8.8.8.8.8.8.8.8.8.8.8.8.8.8.8.8.8.8.8.8.8.8.8.8.",
"8.8.8.8.8.8.8.8.8.8.8.8.8.8.8.8.8.8.8.8.8.8.8.8.8.8.8.8.8.8.8.8.8.8.8.8.8.8.8.8.8.8.8.8.8.8.8.8.8.8.8.8.8.8.8.8.8.8.8.8.8.8.8.8.",
"8.8.8.8.8.8.8.8.8.8.8.8.8.8.8.8.8.8.8.8.8.8.8.8.8.8.8.8.8.8.8.8.8.8.8.8.8.8.8.8.8.8.8.8.8.8.8.8.8.8.8.8.8.8.8.8.8.8.8.8.8.8.8.8.",
"8.8.8.8.8.8.8.8.8.8.8.8.8.8.8.8.8.8.8.8.8.8.8.8.8.8.8.8.8.8.8.8.8.8.8.8.8.8.8.8.8.8.8.8.8.8.8.8.8.8.8.8.8.8.8.8.8.8.8.8.8.8.8.8.",
"8.8.8.8.8.8.8.8.8.8.8.8.8.8.8.8.8.8.8.8.8.8.8.8.8.8.8.8.8.8.8.8.8.8.8.8.8.8.8.8.8.8.8.8.8.8.8.8.8.8.8.8.8.8.8.8.8.8.8.8.8.8.8.8.",
"8.8.8.8.8.8.8.8.8.8.8.8.8.8.8.8.8.8.8.8.8.8.8.8.8.8.8.8.8.8.8.8.8.8.8.8.8.8.8.8.8.8.8.8.8.8.8.8.8.8.8.8.8.8.8.8.8.8.8.8.8.8.8.8.",
"8.8.8.8.8.8.8.8.8.8.8.8.8.8.8.8.8.8.8.8.8.8.8.8.8.8.8.8.8.8.8.8.8.8.8.8.8.8.8.8.8.8.8.8.8.8.8.8.8.8.8.8.8.8.8.8.8.8.8.8.8.8.8.8.",
"8.8.8.8.8.8.8.8.8.8.8.8.8.8.8.8.8.8.8.8.8.8.8.8.8.8.8.8.8.8.8.8.8.8.8.8.8.8.8.8.8.8.8.8.8.8.8.8.8.8.8.8.8.8.8.8.8.8.8.8.8.8.8.8.",
"8.8.8.8.8.8.8.8.8.8.8.8.8.8.8.8.8.8.8.8.8.8.8.8.8.8.8.8.8.8.8.8.8.8.8.8.8.8.8.8.8.8.8.8.8.8.8.8.8.8.8.8.8.8.8.8.8.8.8.8.8.8.8.8.",
"8.8.8.8.8.8.8.8.8.8.8.8.8.8.8.8.8.8.8.8.8.8.8.8.8.8.8.8.8.8.8.8.8.8.8.8.8.8.8.8.8.8.8.8.8.8.8.8.8.8.8.8.8.8.8.8.8.8.8.8.8.8.8.8.",
"8.8.8.8.8.8.8.8.8.6.5.8.6.6.6.6.6.8.8.8.8.8.8.8.8.8.8.8.8.8.8.8.8.8.8.8.8.8.8.8.8.8.8.8.8.8.8.8.8.8.8.8.8.8.8.8.8.8.8.8.8.8.8.8.",
"8.8.8.8.8.8.5.6.>.p 8 8 9 9 8 w ~ 6.8.8.8.8.8.8.8.8.8.8.8.8.8.8.8.8.8.8.8.8.8.8.8.8.8.8.8.8.8.8.8.8.8.8.8.8.8.8.8.8.8.8.8.8.8.8.",
"8.8.8.8.8.8.@.J G 7 @ @ @ + @ + h R ) 8.8.8.8.8.8.8.8.8.8.8.8.8.8.8.8.8.8.8.8.8.8.8.8.8.8.8.8.8.8.8.8.8.8.8.8.8.8.8.8.8.8.8.8.8.",
"8.8.8.8.O.] D + % 9 e e e w e w & . s ) _ 6.8.8.8.8.8.8.8.8.8.8.8.8.8.8.8.8.8.8.8.8.8.8.8.8.8.8.8.8.8.8.8.8.8.8.8.8.8.8.8.8.8.8.",
"8.8.8.8.d 6 6 + 7 Z P P P P P P y + % 6 6 4.8.8.8.8.8.8.8.8.8.8.8.8.8.8.8.8.8.8.8.8.8.8.8.8.8.8.8.8.8.8.8.8.8.8.8.8.8.8.8.8.8.8.",
"8.8.8.8.s + e K A l j j j j j j b K g + @ 4.8.8.8.8.8.8.8.8.8.8.8.8.8.8.8.8.8.8.8.8.8.8.8.8.8.8.8.8.8.8.8.8.8.8.8.8.8.8.8.8.8.8.",
"8.:.D D 7 + i Q P j 4 4 4 4 4 5 n Q c % + B m ! 8.8.8.8.8.8.8.8.8.8.8.8.8.8.8.8.8.8.8.8.8.8.8.8.8.8.8.8.8.8.8.8.8.8.8.8.8.8.8.8.",
"8...% + O O i W P q 4 4 4 4 4 5 b I c O % o + N 8.8.8.8.8.8.8.8.8.8.8.8.8.8.8.8.8.8.8.8.8.8.8.8.8.8.8.8.8.8.8.8.8.8.8.8.8.8.8.8.",
"8.{ 6 + V I v 5 4 3 3 4 4 3 3 4 4 5 z P I % o N 8.8.8.8.8.8.8.8.8.8.8.8.8.8.8.8.8.8.8.8.8.8.8.8.8.8.8.8.8.8.8.8.8.8.8.8.8.8.8.8.",
"8.{ 6 + 0 k j 4 4 > + # # # # # 1 4 5 k k o + N 8.8.8.8.8.8.8.8.8.8.8.8.8.8.8.8.8.8.8.8.8.8.8.8.8.8.8.8.8.8.8.8.8.8.8.8.8.8.8.8.",
"8.X.6 + 1 4 4 4 3 + @ @ @ + + @ 1 3 4 4 4 @ + N 8.8.8.8.8.8.8.8.8.8.8.8.8.8.8.8.8.8.8.8.8.8.8.8.8.8.8.8.8.8.8.8.8.8.8.8.8.8.8.8.",
"8.{ 6 + 1 4 4 3 1 + @ 7 e t + @ , 3 3 4 4 @ + V 7.8.8.8.8.8.8.8.8.8.8.8.8.8.8.8.8.8.8.8.8.8.8.8.8.8.8.8.8.8.8.8.8.8.8.8.8.8.8.8.",
"8.{ 7 + 3 4 < + + + + H >.:.+ + + # > 5 4 @ @ N 8.8.8.8.8.8.8.8.8.8.8.8.8.8.8.8.8.8.8.8.8.8.8.8.8.8.8.8.8.8.8.8.8.8.8.8.8.8.8.8.",
"8.{ 7 + 3 4 < + 8 ^ o.1.5.5.o.' d + > 3 4 @ @ 7 t a t t t t t t t t t t t t y t t t t t t t t t t t t t t t t t t t t t t s $.8.",
"8.{ 6 + 3 4 < % 8 %.8.8.8.8.8.2.f + > 4 5 @ @ @ @ @ @ o @ + o + + o + o @ + o + o @ + + o + @ @ + o + + @ @ + @ + + + + + % ..8.",
"8.O.6 @ 3 4 < o 9 *.8.8.8.8.8.2.f + > 3 4 @ @ & 8 8 8 9 8 8 8 8 8 8 8 8 8 8 8 8 8 8 8 8 8 8 8 8 8 8 8 8 8 9 8 8 6 7 6 % + % ..8.",
"8.{ 7 @ 1 4 < + 8 *.8.8.8.8.8.2.f + $ 3 4 @ @ h 6.6.6.6.6.6.6.8.6.6.6.8.6.6.6.6.6.6.6.8.6.6.6.6.6.6.6.6.6.6.6.6.=.I W Z + 6 ..8.",
"8.{ 7 @ 3 4 < + 8 O.8.8.8.8.8.1.f + > 5 4 # @ r A L L L L L L L L A L L L L L L L L S S S L S S L A A A A A A A A x x u + % ..8.",
"8.{ 6 @ 1 4 < & 9 %.8.8.8.8.8.2.f @ > 4 4 @ + $ 3 3 3 3 3 3 3 3 3 3 3 3 3 3 3 4 3 3 3 3 3 3 3 4 4 4 3 3 3 3 3 3 4 4 4 3 . % ..8.",
"8.{ 7 @ 3 4 < + 8 %.8.8.8.8.8.2.f @ $ 4 4 @ + # 3 1 3 3 1 1 3 1 1 1 1 1 1 1 1 3 1 1 3 1 1 3 1 3 4 4 1 3 1 1 1 1 1 3 5 2 . 6 { 8.",
"8.{ 6 @ 1 4 < + 8 O.8.8.8.8.8.2.f + > 4 4 @ + @ + + O + # + + + + + + # + + + # # O + + + + # > 4 4 + + + # + + # 1 4 < . & { 8.",
"8.{ 6 @ 3 4 1 + 9 %.8.8.8.8.8.2.f + > 4 4 @ @ @ + + + + + + + @ @ + + + + + + % + + + + + + + $ 4 3 X @ + + + @ + < 4 3 . & { 8.",
"8.{ 7 @ 1 4 < + 8 ^ +.1.8.8.O.] p + # 5 4 # @ 7 a a y a y y y a a a y a y y a a t a t + + + + $ 4 4 . @ 8 y t % + 1 4 3 . % { 8.",
"8.{ 6 @ 1 4 < + . . + H #.=.+ + + # > 3 4 @ @ N 5.8.8.5.8.8.8.8.8.8.8.8.5.8.8.8.8.8.6.8 8 7 @ , 4 3 + + G 8.>.w @ < 4 < + % { 6.",
"8.{ 6 + 1 4 4 3 < # @ 8 w w + @ , 3 3 5 4 + @ N 8.8.8.8.8.8.8.8.8.8.8.8.8.8.8.8.8.8.8.@.&.h + $ 4 3 . + G 8.<.9 + < 4 3 . 6 { 8.",
"8.{ 7 . ; : < 4 4 + @ @ o + @ @ 1 4 4 4 4 @ + N 8.8.8.8.8.8.8.8.8.8.8.8.8.8.8.8.8.8.8.8.7.M + $ 4 4 . + G 8.<.w . 1 4 < + % { 8.",
"8.{ 6 +   * ; 4 3 > X # # # # > 3 4 3 3 2 . @ N 8.8.8.8.8.8.8.8.8.8.8.8.8.8.8.8.8.8.8.8.4.M + # 1 1 + + G 8.;.w + , < 1 @ 6 ..8.",
"8.{ 6 @ -   ; 4 4 4 4 3 3 4 3 4 4 4 2 - = @ o V 8.8.8.8.8.8.8.8.8.8.8.8.8.8.8.8.8.8.8.8.4.m + + + + + % G 8.<.w % + + + + 7  .8.",
"8.{ & @ . . X * - 4 4 4 4 4 4 4 ;     . . + o N 8.8.8.8.8.8.8.8.8.8.8.8.8.8.8.8.8.8.8.8.8.8.6.) 7 6 8.6.8.8.8.6.6.m + a 6.8.8.8.",
"8.>.D B 8 + X * - : 2 3 4 4 2 < - -   @ o M M ! 8.8.8.8.8.8.8.8.8.8.8.8.8.8.8.8.8.8.8.8.8.8.8.@.D B 8.8.8.8.8.8.8./ m R 8.8.8.8.",
"8.8.8.8.s + X -   * * ; 3 3 * *       + O 4.8.8.8.8.8.8.8.8.8.8.8.8.8.8.8.8.8.8.8.8.8.8.8.8.8.8.8.8.8.8.8.8.8.8.8.8.8.8.8.8.8.8.",
"8.8.8.8.s 6 O + X     * - * *     @ & 7 6 4.8.8.8.8.8.8.8.8.8.8.8.8.8.8.8.8.8.8.8.8.8.8.8.8.8.8.8.8.8.8.8.8.8.8.8.8.8.8.8.8.8.8.",
"8.8.8.8.$.` F + + + + X O X + X + + s ) _ 5.8.8.8.8.8.8.8.8.8.8.8.8.8.8.8.8.8.8.8.8.8.8.8.8.8.8.8.8.8.8.8.8.8.8.8.8.8.8.8.8.8.8.",
"8.8.8.8.8.8.-.E J 7 + + + @ + % h R _ 8.8.8.8.8.8.8.8.8.8.8.8.8.8.8.8.8.8.8.8.8.8.8.8.8.8.8.8.8.8.8.8.8.8.8.8.8.8.8.8.8.8.8.8.8.",
"8.8.8.8.8.8.5.8.>.p 8 8 8 8 8 t ( 6.8.8.8.8.8.8.8.8.8.8.8.8.8.8.8.8.8.8.8.8.8.8.8.8.8.8.8.8.8.8.8.8.8.8.8.8.8.8.8.8.8.8.8.8.8.8.",
"8.8.8.8.8.8.8.8.8.8.6.6.5.6.4.5.8.8.8.8.8.8.8.8.8.8.8.8.8.8.8.8.8.8.8.8.8.8.8.8.8.8.8.8.8.8.8.8.8.8.8.8.8.8.8.8.8.8.8.8.8.8.8.8.",
"8.8.8.8.8.8.8.8.8.8.8.8.8.8.8.8.8.8.8.8.8.8.8.8.8.8.8.8.8.8.8.8.8.8.8.8.8.8.8.8.8.8.8.8.8.8.8.8.8.8.8.8.8.8.8.8.8.8.8.8.8.8.8.8.",
"8.8.8.8.8.8.8.8.8.8.8.8.8.8.8.8.8.8.8.8.8.8.8.8.8.8.8.8.8.8.8.8.8.8.8.8.8.8.8.8.8.8.8.8.8.8.8.8.8.8.8.8.8.8.8.8.8.8.8.8.8.8.8.8.",
"8.8.8.8.8.8.8.8.8.8.8.8.8.8.8.8.8.8.8.8.8.8.8.8.8.8.8.8.8.8.8.8.8.8.8.8.8.8.8.8.8.8.8.8.8.8.8.8.8.8.8.8.8.8.8.8.8.8.8.8.8.8.8.8.",
"8.8.8.8.8.8.8.8.8.8.8.8.8.8.8.8.8.8.8.8.8.8.8.8.8.8.8.8.8.8.8.8.8.8.8.8.8.8.8.8.8.8.8.8.8.8.8.8.8.8.8.8.8.8.8.8.8.8.8.8.8.8.8.8.",
"8.8.8.8.8.8.8.8.8.8.8.8.8.8.8.8.8.8.8.8.8.8.8.8.8.8.8.8.8.8.8.8.8.8.8.8.8.8.8.8.8.8.8.8.8.8.8.8.8.8.8.8.8.8.8.8.8.8.8.8.8.8.8.8.",
"8.8.8.8.8.8.8.8.8.8.8.8.8.8.8.8.8.8.8.8.8.8.8.8.8.8.8.8.8.8.8.8.8.8.8.8.8.8.8.8.8.8.8.8.8.8.8.8.8.8.8.8.8.8.8.8.8.8.8.8.8.8.8.8.",
"8.8.8.8.8.8.8.8.8.8.8.8.8.8.8.8.8.8.8.8.8.8.8.8.8.8.8.8.8.8.8.8.8.8.8.8.8.8.8.8.8.8.8.8.8.8.8.8.8.8.8.8.8.8.8.8.8.8.8.8.8.8.8.8.",
"8.8.8.8.8.8.8.8.8.8.8.8.8.8.8.8.8.8.8.8.8.8.8.8.8.8.8.8.8.8.8.8.8.8.8.8.8.8.8.8.8.8.8.8.8.8.8.8.8.8.8.8.8.8.8.8.8.8.8.8.8.8.8.8.",
"8.8.8.8.8.8.8.8.8.8.8.8.8.8.8.8.8.8.8.8.8.8.8.8.8.8.8.8.8.8.8.8.8.8.8.8.8.8.8.8.8.8.8.8.8.8.8.8.8.8.8.8.8.8.8.8.8.8.8.8.8.8.8.8.",
"8.8.8.8.8.8.8.8.8.8.8.8.8.8.8.8.8.8.8.8.8.8.8.8.8.8.8.8.8.8.8.8.8.8.8.8.8.8.8.8.8.8.8.8.8.8.8.8.8.8.8.8.8.8.8.8.8.8.8.8.8.8.8.8.",
"8.8.8.8.8.8.8.8.8.8.8.8.8.8.8.8.8.8.8.8.8.8.8.8.8.8.8.8.8.8.8.8.8.8.8.8.8.8.8.8.8.8.8.8.8.8.8.8.8.8.8.8.8.8.8.8.8.8.8.8.8.8.8.8.",
"8.8.8.8.8.8.8.8.8.8.8.8.8.8.8.8.8.8.8.8.8.8.8.8.8.8.8.8.8.8.8.8.8.8.8.8.8.8.8.8.8.8.8.8.8.8.8.8.8.8.8.8.8.8.8.8.8.8.8.8.8.8.8.8.",
"8.8.8.8.8.8.8.8.8.8.8.8.8.8.8.8.8.8.8.8.8.8.8.8.8.8.8.8.8.8.8.8.8.8.8.8.8.8.8.8.8.8.8.8.8.8.8.8.8.8.8.8.8.8.8.8.8.8.8.8.8.8.8.8.",
"8.8.8.8.8.8.8.8.8.8.8.8.8.8.8.8.8.8.8.8.8.8.8.8.8.8.8.8.8.8.8.8.8.8.8.8.8.8.8.8.8.8.8.8.8.8.8.8.8.8.8.8.8.8.8.8.8.8.8.8.8.8.8.8."
};
