/* XPM */
static char *xpm_[] = {
/* columns rows colors chars-per-pixel */
"64 64 16 1 ",
"  c black",
". c #1D1D1D",
"X c #282828",
"o c gray20",
"O c gray23",
"+ c #4C3325",
"@ c #4C4C4C",
"# c gray31",
"$ c gray39",
"% c gray40",
"& c gray50",
"* c #E59A72",
"= c #B2B2B2",
"- c #FFBD99",
"; c white",
": c None",
/* pixels */
"::::::::::::::::::::::::::::::::::::::::::::::::::::::::::::::::",
"::::::::::::::::::::::::::::::::::::::::::::::::::::::::::::::::",
"::::::::::::::::::::::::::::::::::::::::::::::::::::::::::::::::",
"::::::::::::::::::::::::::::::::::::::::::::::::::::::::::::::::",
"::::::::::::::::::::::::::::::::::::::::::::::::::::::::::::::::",
"::::::::::::::::::::::::::::::::::::::::::::::::::::::::::::::::",
":::::::::::::::::::::::::::@@@@@@:::::::::::::::::::::::::::::::",
":::::::::::::::::::::::::::@@@@@@:::::::::::::::::::::::::::::::",
":::::::::::::::::::::::::::@@@@@@:::::::::::::::::::::::::::::::",
"::::::::::::::::::::::::ooo;;;@@@:::::::::::::::::::::::::::::::",
"::::::::::::::::::::::::ooo;;;@@@:::::::::::::::::::::::::::::::",
"::::::::::::::::::::::::ooo;;;@@@:::::::::::::::::::::::::::::::",
"::::::::::::::::::::::::ooo===;;;@@@@@@:::::::::::::::::::::::::",
"::::::::::::::::::::::::ooo===;;;@@@@@@:::::::::::::::::::::::::",
"::::::::::::::::::::::::ooo===;;;@@@@@@:::::::::::::::::::::::::",
":::::::::::::::::::::@@@ooo======;;;;;;@@@::::::::::::::::::::::",
":::::::::::::::::::::@@@ooo======;;;;;;@@@::::::::::::::::::::::",
":::::::::::::::::::::@@@ooo======;;;;;;@@@::::::::::::::::::::::",
"::::::::::::::::::ooo&&&ooo=========;;;;;;@@@:::::::::::::::::::",
"::::::::::::::::::ooo&&&ooo=========;;;;;;@@@:::::::::::::::::::",
"::::::::::::::::::ooo&&&ooo=========;;;;;;@@@:::::::::::::::::::",
"::::::::::::::::::ooo&&&===ooo=========;;;@@@:::::::::::::::::::",
"::::::::::::::::::ooo&&&===ooo=========;;;@@@:::::::::::::::::::",
"::::::::::::::::::ooo&&&===ooo=========;;;@@@:::::::::::::::::::",
"::::::::::::::::::ooo&&&&&&=========---;;;@@@:::::::::::::::::::",
"::::::::::::::::::ooo&&&&&&=========---;;;@@@:::::::::::::::::::",
"::::::::::::::::::ooo&&&&&&=========---;;;@@@:::::::::::::::::::",
"::::::::::::::::::ooo&&&&&&&&&===---   ===@@@:::::::::::::::::::",
"::::::::::::::::::ooo&&&&&&&&&===---   ===@@@:::::::::::::::::::",
"::::::::::::::::::ooo&&&&&&&&&===---   ===@@@:::::::::::::::::::",
"::::::::::::::::::ooo&&&&&&&&&&&&***   ***+++:::::::::::::::::::",
"::::::::::::::::::ooo&&&&&&&&&&&&***   ***+++:::::::::::::::::::",
"::::::::::::::::::ooo&&&&&&&&&&&&***   ***+++:::::::::::::::::::",
":::::::::::::::::::::ooo&&&&&&;;;;;;&&&+++::::::::::::::::::::::",
":::::::::::::::::::::ooo&&&&&&;;;;;;&&&+++::::::::::::::::::::::",
":::::::::::::::::::::ooo&&&&&&;;;;;;&&&+++::::::::::::::::::::::",
"::::::::::::::::::::::::ooo;;;======;;;:::::::::::::::::::::::::",
"::::::::::::::::::::::::ooo;;;======;;;:::::::::::::::::::::::::",
"::::::::::::::::::::::::ooo;;;======;;;:::::::::::::::::::::::::",
"::::::::::::::::::::::::...%%%======%%%...::::::::::::::::::::::",
"::::::::::::::::::::::::...%%%======%%%...::::::::::::::::::::::",
"::::::::::::::::::::::::...%%%======%%%...::::::::::::::::::::::",
":::::::::::::::::::::...XXXOOO%%%%%%##@$$$XXX:::::::::::::::::::",
":::::::::::::::::::::...XXXOOO%%%%%%###$$%XXX:::::::::::::::::::",
":::::::::::::::::::::...XXXOOO%%%%%%###%$$XXX:::::::::::::::::::",
":::::::::::::::::::::...XXXOOO##@...##@$$$XXX:::::::::::::::::::",
":::::::::::::::::::::...XXXOOO###...###$$$XXX:::::::::::::::::::",
":::::::::::::::::::::...XXXOOO#@#...###%$$XXX:::::::::::::::::::",
"::::::::::::::::::::::::@@@=&&&&&&&&...XXX::::::::::::::::::::::",
"::::::::::::::::::::::::@@@%&&&&&&&&...XXX::::::::::::::::::::::",
"::::::::::::::::::::::::@@@&&&%=&&=%...XXX::::::::::::::::::::::",
":::::::::::::::::::::...$$$#$#@#@.XX######...:::::::::::::::::::",
":::::::::::::::::::::...$$$$$$##@XXX######...:::::::::::::::::::",
":::::::::::::::::::::...$$$%$$##@XXX######...:::::::::::::::::::",
":::::::::::::::::::::...@###@#XXXXXX######...:::::::::::::::::::",
":::::::::::::::::::::...@#####XXXXXX######...:::::::::::::::::::",
":::::::::::::::::::::...######XXXXXX@###@#...:::::::::::::::::::",
"::::::::::::::::::::::::......::::::......::::::::::::::::::::::",
"::::::::::::::::::::::::......::::::......::::::::::::::::::::::",
"::::::::::::::::::::::::......::::::......::::::::::::::::::::::",
"::::::::::::::::::::::::::::::::::::::::::::::::::::::::::::::::",
"::::::::::::::::::::::::::::::::::::::::::::::::::::::::::::::::",
"::::::::::::::::::::::::::::::::::::::::::::::::::::::::::::::::",
"::::::::::::::::::::::::::::::::::::::::::::::::::::::::::::::::"
};
