/* XPM */
static char *xpm_[] = {
/* columns rows colors chars-per-pixel */
"64 64 12 1 ",
"  c #1D1D1D",
". c #282828",
"X c gray20",
"o c gray23",
"O c #4C4C4C",
"+ c gray31",
"@ c gray39",
"# c gray40",
"$ c gray50",
"% c #B2B2B2",
"& c white",
"* c None",
/* pixels */
"****************************************************************",
"****************************************************************",
"****************************************************************",
"****************************************************************",
"****************************************************************",
"****************************************************************",
"****************************************************************",
"*****************OOOOOO******************OOOOOO*****************",
"*****************OOOOOO******************OOOOOO*****************",
"*****************OOOOOO******************OOOOOO*****************",
"**************XXX%%%OOO***XXXXXXXXXXXX***OOO%%%XXX**************",
"**************XXX%%%OOO***XXXXXXXXXXXX***OOO%%%XXX**************",
"**************XXX%%%OOO***XXXXXXXXXXXX***OOO%%%XXX**************",
"**************XXX$$$%%%XXX&&&&&&&&&&&&XXX%%%$$$XXX**************",
"**************XXX$$$%%%XXX&&&&&&&&&&&&XXX%%%$$$XXX**************",
"**************XXX$$$%%%XXX&&&&&&&&&&&&XXX%%%$$$XXX**************",
"**************XXX$$$XXX&&&%%%&&&&&&%%%&&&XXX$$$XXX**************",
"**************XXX$$$XXX&&&%%%&&&&&&%%%&&&XXX$$$XXX**************",
"**************XXX$$$XXX&&&%%%&&&&&&%%%&&&XXX$$$XXX**************",
"*****************XXX%%%%%%%%%%%%%%%%%%%%%%%%XXX*****************",
"*****************XXX%%%%%%%%%%%%%%%%%%%%%%%%XXX*****************",
"*****************XXX%%%%%%%%%%%%%%%%%%%%%%%%XXX*****************",
"*****************XXX$$$%%%%%%%%%%%%%%%%%%$$$XXX*****************",
"*****************XXX$$$%%%%%%%%%%%%%%%%%%$$$XXX*****************",
"*****************XXX$$$%%%%%%%%%%%%%%%%%%$$$XXX*****************",
"*****************XXX$$$$$$%%%%%%%%%%%%$$$$$$XXX*****************",
"*****************XXX$$$$$$%%%%%%%%%%%%$$$$$$XXX*****************",
"*****************XXX$$$$$$%%%%%%%%%%%%$$$$$$XXX*****************",
"*****************XXX$$$$$$$$$$$$$$$$$$$$$$$$XXX*****************",
"*****************XXX$$$$$$$$$$$$$$$$$$$$$$$$XXX*****************",
"*****************XXX$$$$$$$$$$$$$$$$$$$$$$$$XXX*****************",
"*****************XXX$$$$$$$$$$$$$$$$$$$$$$$$XXX*****************",
"*****************XXX$$$$$$$$$$$$$$$$$$$$$$$$XXX*****************",
"*****************XXX$$$$$$$$$$$$$$$$$$$$$$$$XXX*****************",
"*****************&&&XXX$$$$$$$$$$$$$$$$$$XXX%%%&&&**************",
"*****************&&&XXX$$$$$$$$$$$$$$$$$$XXX%%%&&&**************",
"*****************&&&XXX$$$$$%##$$$$$$$$$$XXX%%%&&&**************",
"**************&&&%%%%%%XXXXXXXXXXXXXXXXXX###%%%&&&**************",
"**************&&&%%%%%%XXXXXXXXXXXXXXXXXX###%%%&&&**************",
"**************&&&%%%%%%XXXXXXXXXXXXXXXXXX###%%%&&&**************",
"**************&&&%%%###O++oooooooooooooooooo   *****************",
"**************&&&%%%###+++oooooooooooooooooo   *****************",
"**************&&&%%%###+++oooooooooooooooooo   *****************",
"*****************...++++++...++++++O+++++ooo   *****************",
"*****************...++++++...+OO+++++++++ooo   *****************",
"*****************...++++++...++O+++++++++ooo   *****************",
"*****************...@@#O++...+OO+++++++++...   *****************",
"*****************...@@#+++...+OO+++++++++...   *****************",
"*****************...#@@O++...O+OOOOOOX+O+...   *****************",
"********************......OOO$%#$$$$$%OOOOOO********************",
"********************......OOO$##$$$$$$OOOOOO********************",
"********************......OOO$$%$$$$$$OOOOOO********************",
"***********************   ++++++O++#@@@@#...********************",
"***********************   ++++++O+O@@@@@@...********************",
"***********************   +++++++++##@@#@...********************",
"**************************   ......O++O+O   ********************",
"**************************   ......++++++   ********************",
"**************************   ......+++++O   ********************",
"***********************************      ***********************",
"***********************************      ***********************",
"***********************************      ***********************",
"****************************************************************",
"****************************************************************",
"****************************************************************"
};
